<svg xmlns="http://www.w3.org/2000/svg" xmlns:xlink="http://www.w3.org/1999/xlink" viewBox="0 0 339 339"><defs><style>.cls-1{isolation:isolate;}.cls-2{fill:url(#Unbenannter_Verlauf_29);}.cls-3{fill:url(#Unbenannter_Verlauf_29-2);}.cls-4{fill:url(#Unbenannter_Verlauf_29-3);}.cls-5{fill:url(#Unbenannter_Verlauf_29-4);}.cls-6{fill:url(#Unbenannter_Verlauf_29-5);}.cls-7{opacity:0.5;mix-blend-mode:soft-light;}.cls-8{fill:none;}</style><linearGradient id="Unbenannter_Verlauf_29" x1="92.08" y1="237.21" x2="229.14" y2="125.55" gradientUnits="userSpaceOnUse"><stop offset="0" stop-color="#d4145a"/><stop offset="1" stop-color="#f7931e"/></linearGradient><linearGradient id="Unbenannter_Verlauf_29-2" x1="114.52" y1="207.28" x2="267.62" y2="115" xlink:href="#Unbenannter_Verlauf_29"/><linearGradient id="Unbenannter_Verlauf_29-3" x1="257.09" y1="102.92" x2="150.21" y2="23.5" xlink:href="#Unbenannter_Verlauf_29"/><linearGradient id="Unbenannter_Verlauf_29-4" x1="150.32" y1="79.19" x2="144.84" y2="48.49" xlink:href="#Unbenannter_Verlauf_29"/><linearGradient id="Unbenannter_Verlauf_29-5" x1="44.71" y1="262.5" x2="221.12" y2="137.86" xlink:href="#Unbenannter_Verlauf_29"/></defs><title>Element 3</title><g class="cls-1"><g id="Ebene_2" data-name="Ebene 2"><g id="Ebene_1-2" data-name="Ebene 1"><path d="M169.5,134a40.14,40.14,0,1,1-40.14,40.14A40.18,40.18,0,0,1,169.5,134m0-1a41.14,41.14,0,1,0,41.14,41.14A41.14,41.14,0,0,0,169.5,133Z"/><path class="cls-2" d="M169.5,107.28a66.86,66.86,0,1,0,66.86,66.86A66.87,66.87,0,0,0,169.5,107.28Zm0,108a41.14,41.14,0,1,1,41.14-41.14A41.14,41.14,0,0,1,169.5,215.28Z"/><path class="cls-3" d="M169.5,133a41.14,41.14,0,1,0,41.14,41.14A41.14,41.14,0,0,0,169.5,133Zm0,66.85a25.71,25.71,0,1,1,25.71-25.71A25.71,25.71,0,0,1,169.5,199.85Z"/><path class="cls-4" d="M254.46,107.36a108,108,0,0,0-37.58-30.28,107.94,107.94,0,0,0-84.13-49.45,104.33,104.33,0,0,0-11.45-.11,108.06,108.06,0,0,1,133.16,79.84Z"/><path class="cls-5" d="M216.88,77.08A108.09,108.09,0,0,0,87.77,103.79,108,108,0,0,1,188.25,47.16,108,108,0,0,1,216.88,77.08Z"/><path class="cls-6" d="M277.43,181A107.92,107.92,0,1,1,216.88,77.08a107.62,107.62,0,0,1,16.9,65.1c-.21,3.31-.57,6.58-1.07,9.79A66.87,66.87,0,1,0,155,239.47h0c.29.08.6.13.91.19a64.63,64.63,0,0,0,9.54,1.29,66.89,66.89,0,0,0,63.93-36.67,108.2,108.2,0,0,0,25.07-96.92A107.64,107.64,0,0,1,277.43,181Z"/><g class="cls-7"><path d="M265.17,224.64c-.14.27-.28.54-.43.81A108,108,0,1,1,87,104.75a108,108,0,0,0,178.2,119.89Z"/></g><g class="cls-7"><path d="M119.56,242.91a107,107,0,0,1-41.3-11.13,108,108,0,0,1,8.71-127,108,108,0,0,0,32.59,138.16Z"/></g><rect class="cls-8" x="28.5" y="33.14" width="282" height="282"/><rect class="cls-8" width="339" height="339"/></g></g></g></svg>