<svg xmlns="http://www.w3.org/2000/svg" xmlns:xlink="http://www.w3.org/1999/xlink" viewBox="0 0 277.65 277.65"><defs><style>.cls-1{isolation:isolate;}.cls-2{fill:none;}.cls-3{fill:url(#Unbenannter_Verlauf_29);}.cls-4{fill:url(#Unbenannter_Verlauf_29-2);}.cls-5{fill:url(#Unbenannter_Verlauf_29-3);}.cls-6{fill:url(#Unbenannter_Verlauf_29-4);}.cls-7{fill:url(#Unbenannter_Verlauf_29-6);}.cls-8{fill:url(#Unbenannter_Verlauf_29-7);}.cls-9{fill:url(#Unbenannter_Verlauf_29-8);}.cls-10{fill:url(#Unbenannter_Verlauf_29-10);}.cls-11{fill:url(#Unbenannter_Verlauf_29-12);}.cls-12{fill:url(#Unbenannter_Verlauf_29-14);}.cls-13{fill:url(#Unbenannter_Verlauf_29-15);}.cls-14,.cls-16,.cls-18{mix-blend-mode:soft-light;}.cls-15{fill:url(#Unbenannter_Verlauf_29-16);}.cls-16{opacity:0.5;}.cls-17{fill:url(#Unbenannter_Verlauf_29-17);}.cls-18{opacity:0.19;}.cls-19{fill:url(#Unbenannter_Verlauf_29-18);}.cls-20{fill:url(#Unbenannter_Verlauf_29-19);}.cls-21{fill:#fbb03b;}</style><linearGradient id="Unbenannter_Verlauf_29" x1="75.67" y1="156.46" x2="275.67" y2="156.46" gradientTransform="translate(-39.74 4.42) rotate(-3.9)" gradientUnits="userSpaceOnUse"><stop offset="0" stop-color="#d4145a"/><stop offset="1" stop-color="#f7931e"/></linearGradient><linearGradient id="Unbenannter_Verlauf_29-2" x1="113.23" y1="58.07" x2="252.56" y2="58.07" xlink:href="#Unbenannter_Verlauf_29"/><linearGradient id="Unbenannter_Verlauf_29-3" x1="75.67" y1="145.46" x2="232.67" y2="145.46" xlink:href="#Unbenannter_Verlauf_29"/><linearGradient id="Unbenannter_Verlauf_29-4" x1="93.59" y1="63.17" x2="213.12" y2="63.17" xlink:href="#Unbenannter_Verlauf_29"/><linearGradient id="Unbenannter_Verlauf_29-6" x1="75.67" y1="165.96" x2="275.67" y2="165.96" xlink:href="#Unbenannter_Verlauf_29"/><linearGradient id="Unbenannter_Verlauf_29-7" x1="100.81" y1="165.96" x2="231.49" y2="165.96" xlink:href="#Unbenannter_Verlauf_29"/><linearGradient id="Unbenannter_Verlauf_29-8" x1="126.53" y1="165.96" x2="208.81" y2="165.96" xlink:href="#Unbenannter_Verlauf_29"/><linearGradient id="Unbenannter_Verlauf_29-10" x1="233.31" y1="96.13" x2="165.46" y2="32.57" xlink:href="#Unbenannter_Verlauf_29"/><linearGradient id="Unbenannter_Verlauf_29-12" x1="153.44" y1="78.08" x2="145.04" y2="40.24" xlink:href="#Unbenannter_Verlauf_29"/><linearGradient id="Unbenannter_Verlauf_29-14" x1="-0.81" y1="274.19" x2="257.98" y2="107.94" xlink:href="#Unbenannter_Verlauf_29"/><linearGradient id="Unbenannter_Verlauf_29-15" x1="32.8" y1="120.88" x2="278.01" y2="250.31" xlink:href="#Unbenannter_Verlauf_29"/><linearGradient id="Unbenannter_Verlauf_29-16" x1="45.64" y1="206.28" x2="199.83" y2="237.23" xlink:href="#Unbenannter_Verlauf_29"/><linearGradient id="Unbenannter_Verlauf_29-17" x1="168.84" y1="241.5" x2="216.93" y2="192.43" xlink:href="#Unbenannter_Verlauf_29"/><linearGradient id="Unbenannter_Verlauf_29-18" x1="88.91" y1="235.75" x2="211.82" y2="110.37" xlink:href="#Unbenannter_Verlauf_29"/><linearGradient id="Unbenannter_Verlauf_29-19" x1="104.5" y1="191.23" x2="278.75" y2="121.51" xlink:href="#Unbenannter_Verlauf_29"/></defs><title>Element 8</title><g class="cls-1"><g id="Ebene_2" data-name="Ebene 2"><g id="Ebene_1-2" data-name="Ebene 1"><rect class="cls-2" width="277.65" height="277.65"/><path class="cls-3" d="M219,86.21a108.08,108.08,0,0,1-20.57,102.72.15.15,0,0,1,0,.08,107.59,107.59,0,0,1-63.23,36.34,0,0,0,0,1,0,0,.28.28,0,0,1-.13,0A108.06,108.06,0,0,0,177.5,57.74,108.09,108.09,0,0,0,59.57,85.23,108,108,0,0,0,85.88,222.77a107.62,107.62,0,0,0,37.55,4,103.53,103.53,0,0,0,11.37-1.39,107.48,107.48,0,0,1-33.19,7.88,108.05,108.05,0,0,0,131.14-21.37A108,108,0,0,0,219,86.21Zm-78.41,98a25.71,25.71,0,1,1,23.9-27.4A25.72,25.72,0,0,1,140.57,184.25Z"/><path class="cls-4" d="M219,86.21A108.29,108.29,0,0,0,177.5,57.74,108,108,0,0,0,86.13,17.85a105.71,105.71,0,0,0-11.37,1.39A108.06,108.06,0,0,1,219,86.21Z"/><path class="cls-5" d="M177.5,57.74A108.09,108.09,0,0,0,59.57,85.23,108,108,0,0,0,85.88,222.77a107.62,107.62,0,0,0,37.55,4,103.53,103.53,0,0,0,11.37-1.39.83.83,0,0,0,.32-.06.28.28,0,0,1-.13,0A108.06,108.06,0,0,0,177.5,57.74ZM140.57,184.25a25.71,25.71,0,1,1,23.9-27.4A25.72,25.72,0,0,1,140.57,184.25Z"/><path class="cls-6" d="M177.5,57.74A108.09,108.09,0,0,0,59.57,85.23a107.84,107.84,0,0,1,85.79-54.36A108.5,108.5,0,0,1,177.5,57.74Z"/><path class="cls-5" d="M177.5,57.74A108.09,108.09,0,0,0,59.57,85.23,108,108,0,0,0,85.88,222.77a107.62,107.62,0,0,0,37.55,4,103.53,103.53,0,0,0,11.37-1.39l.17-.06h0A108.06,108.06,0,0,0,177.5,57.74ZM140.57,184.25a25.71,25.71,0,1,1,23.9-27.4A25.72,25.72,0,0,1,140.57,184.25Z"/><path class="cls-7" d="M219,86.21a108.08,108.08,0,0,1-20.57,102.72.15.15,0,0,1,0,.08c-.32.62-.65,1.23-1,1.85s-.69,1.22-1,1.82a67,67,0,0,1-4.78,7c-.32.42-.66.83-1,1.24s-.67.82-1,1.22c-.69.81-1.39,1.6-2.12,2.36-1,1-2,2-3,3l-1.1,1q-1.66,1.47-3.43,2.87c-1.55,1.19-3.14,2.33-4.78,3.4l-1.13.71c-.41.26-.81.51-1.24.75-.16.09-.32.18-.47.28l-1.63.91c-.55.3-1.11.58-1.67.87-.87.44-1.75.87-2.65,1.26l-.6.27c-.72.32-1.44.63-2.17.92l-.74.28c-.77.29-1.54.58-2.32.84l-.82.28c-1.17.39-2.36.74-3.56,1.05-.52.15-1,.27-1.56.4-.93.22-1.87.42-2.82.61l-1.19.22-.81.14c-.52.09-1,.17-1.57.24l-1.36.18-.9.1-.36,0-.92.1-1.25.09c-.44,0-.89.06-1.33.07s-.88,0-1.32,0q-1,0-1.95,0a5.81,5.81,0,0,1-.59,0c-1,0-2,0-3-.1a0,0,0,0,1,0,0,.28.28,0,0,1-.13,0h0c-1-.06-2.07-.14-3.09-.25-.47,0-.94-.09-1.4-.16-1.07-.13-2.12-.28-3.16-.47-.41-.06-.81-.15-1.21-.22-.75-.15-1.5-.3-2.23-.47-.34-.07-.69-.16-1-.25s-.89-.22-1.34-.35c-.9-.24-1.79-.5-2.68-.78-.5-.14-1-.3-1.46-.47l-1.71-.6-1.4-.54c-1.46-.58-2.9-1.2-4.31-1.89-.39-.18-.76-.37-1.14-.56s-.89-.46-1.32-.69-.88-.47-1.31-.71l-1.29-.74c-.43-.25-.85-.51-1.27-.77-.84-.52-1.67-1.07-2.49-1.62s-1.41-1-2.11-1.5-1.38-1.05-2.05-1.59-1.34-1.1-2-1.67-1.29-1.14-1.92-1.73c-.36-.34-.72-.68-1.07-1s-.8-.78-1.18-1.18q-1.74-1.79-3.35-3.72c-.48-.57-.94-1.14-1.4-1.73q-1.85-2.37-3.48-4.91c-.28-.43-.55-.86-.82-1.3l-.71-1.2L80.33,191l0-.1-.69-1.27a66.23,66.23,0,0,1-3-6.69q-.23-.55-.42-1.14c-.09-.2-.16-.41-.24-.61s-.23-.66-.34-1a2.11,2.11,0,0,1-.1-.3c-.17-.48-.32-1-.47-1.46-.34-1.07-.64-2.14-.92-3.23-.06-.27-.13-.52-.19-.79s-.14-.55-.2-.84-.1-.46-.16-.69-.14-.64-.19-1c-.22-1.06-.42-2.14-.58-3.22,0-.27-.08-.56-.12-.84q-.18-1.26-.3-2.55c0-.3-.07-.61-.1-.91l-.09-1.27a66.87,66.87,0,0,1,62.16-71.25q2.22-.15,4.44-.15h1.12c1.9,0,3.77.14,5.62.32.41,0,.8.08,1.2.13.89.1,1.78.22,2.68.37l1.32.22c.42.07.85.15,1.26.24.9.17,1.79.37,2.67.58.6.15,1.2.3,1.8.47a1.91,1.91,0,0,1,.34.1c.58.15,1.14.32,1.7.49l1.13.36a2.13,2.13,0,0,1,.33.11q.53.16,1.05.36l1.25.44c.61.23,1.22.48,1.84.73s1.21.5,1.81.77c1.6.7,3.16,1.48,4.7,2.3l1.14.64c.39.21.76.43,1.14.65,1.12.66,2.22,1.35,3.31,2.09l1.07.74c1.42,1,2.81,2.05,4.14,3.15l.86.72.16.14.95.83.94.85a.57.57,0,0,1,.11.11l.87.82c.32.3.63.61.93.91l.91.93c.3.31.59.63.89,1s.6.63.87,1,.77.88,1.14,1.32l1,1.2c.4.51.8,1,1.17,1.52.27.34.53.69.79,1q1.55,2.11,2.91,4.35c.24.37.46.75.68,1.12s.47.82.7,1.23c.41.74.82,1.49,1.2,2.24.25.49.49,1,.73,1.49.71,1.49,1.38,3,2,4.56a108.59,108.59,0,0,0,.08-16A107.4,107.4,0,0,0,177.5,57.74,108.09,108.09,0,0,0,59.57,85.23,108,108,0,0,0,85.88,222.77a107.62,107.62,0,0,0,37.55,4,103.53,103.53,0,0,0,11.37-1.39,107.48,107.48,0,0,1-33.19,7.88c-.26,0-.53.05-.79.06a107.47,107.47,0,0,1-46-6.89A108,108,0,1,0,219,86.21Z"/><path class="cls-8" d="M135.14,225.35c1,.06,2,.09,3,.1a5.81,5.81,0,0,0,.59,0q1,0,1.95,0c.44,0,.88,0,1.32,0s.89,0,1.33-.07l1.25-.09.92-.1.36,0,.9-.1,1.36-.18c.52-.07,1.05-.15,1.57-.24l.81-.14,1.19-.22c1-.19,1.89-.39,2.82-.61.52-.13,1-.25,1.56-.4,1.2-.31,2.39-.66,3.56-1.05l.82-.28c.78-.26,1.55-.55,2.32-.84l.74-.28c.73-.29,1.45-.6,2.17-.92l.6-.27c.9-.39,1.78-.82,2.65-1.26.56-.29,1.12-.57,1.67-.87l1.63-.91c.15-.1.31-.19.47-.28.43-.24.83-.49,1.24-.75l1.13-.71c1.64-1.07,3.23-2.21,4.78-3.4q1.77-1.38,3.43-2.87l1.1-1c1-1,2.05-2,3-3,.73-.76,1.43-1.55,2.12-2.36.35-.4.69-.81,1-1.22s.67-.82,1-1.24a61.75,61.75,0,0,0,4.78-7c.36-.6.71-1.21,1-1.82s.66-1.23,1-1.85A107.59,107.59,0,0,1,135.14,225.35Zm64-95.61c-.24-.51-.48-1-.73-1.49-.38-.75-.79-1.5-1.2-2.24-.23-.41-.46-.82-.7-1.23s-.44-.75-.68-1.12q-1.36-2.23-2.91-4.35c-.26-.36-.52-.71-.79-1-.37-.51-.77-1-1.17-1.52l-1-1.2c-.37-.44-.76-.88-1.14-1.32s-.56-.65-.87-1-.59-.64-.89-1l-.91-.93c-.3-.3-.61-.61-.93-.91l-.87-.82a.57.57,0,0,0-.11-.11l-.94-.85-.95-.83-.16-.14-.86-.72c-1.34-1.11-2.71-2.17-4.14-3.15l-1.07-.74c-1.09-.74-2.19-1.43-3.31-2.09-.38-.22-.75-.44-1.14-.65l-1.14-.64c-1.54-.82-3.1-1.6-4.7-2.3-.6-.27-1.21-.52-1.81-.77s-1.23-.5-1.84-.73l-1.25-.44q-.52-.19-1.05-.36a2.13,2.13,0,0,0-.33-.11l-1.13-.36c-.56-.17-1.12-.34-1.7-.49a1.91,1.91,0,0,0-.34-.1c-.6-.17-1.2-.32-1.8-.47-.88-.21-1.77-.41-2.67-.58-.41-.09-.84-.17-1.26-.24l-1.32-.22c-.9-.15-1.79-.27-2.68-.37-.4,0-.79-.1-1.2-.13-1.85-.18-3.72-.3-5.62-.32h-1.12q-2.22,0-4.44.15a66.87,66.87,0,0,0-62.16,71.25l.09,1.27c0,.3.07.61.1.91q.12,1.29.3,2.55c0,.28.08.57.12.84.16,1.08.36,2.16.58,3.22,0,.33.12.65.19,1s.11.46.16.69.13.56.2.84.13.52.19.79c.28,1.09.58,2.16.92,3.23.15.49.3,1,.47,1.46a2.11,2.11,0,0,0,.1.3c.11.33.22.67.34,1s.15.41.24.61q.19.58.42,1.14a66.23,66.23,0,0,0,3,6.69l.69,1.27,0,.1.71,1.24.71,1.2c.27.44.54.87.82,1.3q1.64,2.53,3.48,4.91c.46.59.92,1.16,1.4,1.73q1.6,1.94,3.35,3.72c.38.4.78.79,1.18,1.18s.71.69,1.07,1c.63.59,1.27,1.17,1.92,1.73s1.32,1.13,2,1.67,1.36,1.07,2.05,1.59,1.41,1,2.11,1.5,1.65,1.1,2.49,1.62c.42.26.84.52,1.27.77l1.29.74c.43.24.86.48,1.31.71s.87.47,1.32.69.75.38,1.14.56c1.41.69,2.85,1.31,4.31,1.89l1.4.54,1.71.6c.48.17,1,.33,1.46.47.89.28,1.78.54,2.68.78.45.13.89.24,1.34.35s.7.18,1,.25c.73.17,1.48.32,2.23.47.4.07.8.16,1.21.22,1,.19,2.09.34,3.16.47.46.07.93.11,1.4.16,1,.11,2.06.19,3.09.25h0a108.15,108.15,0,0,0,66.15-91C200.53,132.75,199.86,131.23,199.15,129.74Zm-57.53,69.9a41.14,41.14,0,1,1,38.25-43.84A41.13,41.13,0,0,1,141.62,199.64Z"/><path class="cls-9" d="M136,117.55a41.14,41.14,0,1,0,43.84,38.25A41.14,41.14,0,0,0,136,117.55Zm4.54,66.7a25.71,25.71,0,1,1,23.9-27.4A25.72,25.72,0,0,1,140.57,184.25Z"/><path class="cls-3" d="M219,86.21a108.08,108.08,0,0,1-20.57,102.72.15.15,0,0,1,0,.08,107.59,107.59,0,0,1-63.23,36.34,0,0,0,0,1,0,0,.28.28,0,0,1-.13,0A108.06,108.06,0,0,0,177.5,57.74,108.09,108.09,0,0,0,59.57,85.23,108,108,0,0,0,85.88,222.77a107.62,107.62,0,0,0,37.55,4,103.53,103.53,0,0,0,11.37-1.39,107.48,107.48,0,0,1-33.19,7.88,108.05,108.05,0,0,0,131.14-21.37A108,108,0,0,0,219,86.21Zm-78.41,98a25.71,25.71,0,1,1,23.9-27.4A25.72,25.72,0,0,1,140.57,184.25Z"/><path class="cls-10" d="M219,86.21A108.29,108.29,0,0,0,177.5,57.74,108,108,0,0,0,86.13,17.85a105.71,105.71,0,0,0-11.37,1.39A108.06,108.06,0,0,1,219,86.21Z"/><path class="cls-5" d="M177.5,57.74A108.09,108.09,0,0,0,59.57,85.23,108,108,0,0,0,85.88,222.77a107.62,107.62,0,0,0,37.55,4,103.53,103.53,0,0,0,11.37-1.39.83.83,0,0,0,.32-.06.28.28,0,0,1-.13,0A108.06,108.06,0,0,0,177.5,57.74ZM140.57,184.25a25.71,25.71,0,1,1,23.9-27.4A25.72,25.72,0,0,1,140.57,184.25Z"/><path class="cls-11" d="M177.5,57.74A108.09,108.09,0,0,0,59.57,85.23a107.84,107.84,0,0,1,85.79-54.36A108.5,108.5,0,0,1,177.5,57.74Z"/><path class="cls-5" d="M177.5,57.74A108.09,108.09,0,0,0,59.57,85.23,108,108,0,0,0,85.88,222.77a107.62,107.62,0,0,0,37.55,4,103.53,103.53,0,0,0,11.37-1.39l.17-.06h0A108.06,108.06,0,0,0,177.5,57.74ZM140.57,184.25a25.71,25.71,0,1,1,23.9-27.4A25.72,25.72,0,0,1,140.57,184.25Z"/><path class="cls-12" d="M219,86.21a108.08,108.08,0,0,1-20.57,102.72.15.15,0,0,1,0,.08c-.32.62-.65,1.23-1,1.85s-.69,1.22-1,1.82a67,67,0,0,1-4.78,7c-.32.42-.66.83-1,1.24s-.67.82-1,1.22c-.69.81-1.39,1.6-2.12,2.36-1,1-2,2-3,3l-1.1,1q-1.66,1.47-3.43,2.87c-1.55,1.19-3.14,2.33-4.78,3.4l-1.13.71c-.41.26-.81.51-1.24.75-.16.09-.32.18-.47.28l-1.63.91c-.55.3-1.11.58-1.67.87-.87.44-1.75.87-2.65,1.26l-.6.27c-.72.32-1.44.63-2.17.92l-.74.28c-.77.29-1.54.58-2.32.84l-.82.28c-1.17.39-2.36.74-3.56,1.05-.52.15-1,.27-1.56.4-.93.22-1.87.42-2.82.61l-1.19.22-.81.14c-.52.09-1,.17-1.57.24l-1.36.18-.9.1-.36,0-.92.1-1.25.09c-.44,0-.89.06-1.33.07s-.88,0-1.32,0q-1,0-1.95,0a5.81,5.81,0,0,1-.59,0c-1,0-2,0-3-.1a0,0,0,0,1,0,0,.28.28,0,0,1-.13,0h0c-1-.06-2.07-.14-3.09-.25-.47,0-.94-.09-1.4-.16-1.07-.13-2.12-.28-3.16-.47-.41-.06-.81-.15-1.21-.22-.75-.15-1.5-.3-2.23-.47-.34-.07-.69-.16-1-.25s-.89-.22-1.34-.35c-.9-.24-1.79-.5-2.68-.78-.5-.14-1-.3-1.46-.47l-1.71-.6-1.4-.54c-1.46-.58-2.9-1.2-4.31-1.89-.39-.18-.76-.37-1.14-.56s-.89-.46-1.32-.69-.88-.47-1.31-.71l-1.29-.74c-.43-.25-.85-.51-1.27-.77-.84-.52-1.67-1.07-2.49-1.62s-1.41-1-2.11-1.5-1.38-1.05-2.05-1.59-1.34-1.1-2-1.67-1.29-1.14-1.92-1.73c-.36-.34-.72-.68-1.07-1s-.8-.78-1.18-1.18q-1.74-1.79-3.35-3.72c-.48-.57-.94-1.14-1.4-1.73q-1.85-2.37-3.48-4.91c-.28-.43-.55-.86-.82-1.3l-.71-1.2L80.33,191l0-.1-.69-1.27a66.23,66.23,0,0,1-3-6.69q-.23-.55-.42-1.14c-.09-.2-.16-.41-.24-.61s-.23-.66-.34-1a2.11,2.11,0,0,1-.1-.3c-.17-.48-.32-1-.47-1.46-.34-1.07-.64-2.14-.92-3.23-.06-.27-.13-.52-.19-.79s-.14-.55-.2-.84-.1-.46-.16-.69-.14-.64-.19-1c-.22-1.06-.42-2.14-.58-3.22,0-.27-.08-.56-.12-.84q-.18-1.26-.3-2.55c0-.3-.07-.61-.1-.91l-.09-1.27a66.87,66.87,0,0,1,62.16-71.25q2.22-.15,4.44-.15h1.12c1.9,0,3.77.14,5.62.32.41,0,.8.08,1.2.13.89.1,1.78.22,2.68.37l1.32.22c.42.07.85.15,1.26.24.9.17,1.79.37,2.67.58.6.15,1.2.3,1.8.47a1.91,1.91,0,0,1,.34.1c.58.15,1.14.32,1.7.49l1.13.36a2.13,2.13,0,0,1,.33.11q.53.16,1.05.36l1.25.44c.61.23,1.22.48,1.84.73s1.21.5,1.81.77c1.6.7,3.16,1.48,4.7,2.3l1.14.64c.39.21.76.43,1.14.65,1.12.66,2.22,1.35,3.31,2.09l1.07.74c1.42,1,2.81,2.05,4.14,3.15l.86.72.16.14.95.83.94.85a.57.57,0,0,1,.11.11l.87.82c.32.3.63.61.93.91l.91.93c.3.31.59.63.89,1s.6.63.87,1,.77.88,1.14,1.32l1,1.2c.4.51.8,1,1.17,1.52.27.34.53.69.79,1q1.55,2.11,2.91,4.35c.24.37.46.75.68,1.12s.47.82.7,1.23c.41.74.82,1.49,1.2,2.24.25.49.49,1,.73,1.49.71,1.49,1.38,3,2,4.56a108.59,108.59,0,0,0,.08-16A107.4,107.4,0,0,0,177.5,57.74,108.09,108.09,0,0,0,59.57,85.23,108,108,0,0,0,85.88,222.77a107.62,107.62,0,0,0,37.55,4,103.53,103.53,0,0,0,11.37-1.39,107.48,107.48,0,0,1-33.19,7.88c-.26,0-.53.05-.79.06a107.47,107.47,0,0,1-46-6.89A108,108,0,1,0,219,86.21Z"/><path class="cls-13" d="M85.88,222.77a108.25,108.25,0,0,1-49.95-31.33A108,108,0,0,1,59.57,85.23,108,108,0,0,0,85.88,222.77Z"/><g class="cls-14"><path d="M85.88,222.77a108.25,108.25,0,0,1-49.95-31.33A108,108,0,0,1,59.57,85.23,108,108,0,0,0,85.88,222.77Z"/></g><path class="cls-15" d="M134.8,225.41a107.48,107.48,0,0,1-33.19,7.88c-.26,0-.53.05-.79.06a107.47,107.47,0,0,1-46-6.89,107.34,107.34,0,0,1-18.86-35,107.75,107.75,0,0,0,87.5,35.36A103.53,103.53,0,0,0,134.8,225.41Z"/><g class="cls-16"><path class="cls-17" d="M135.14,225.35A107.59,107.59,0,0,0,198.37,189c-.32.62-.65,1.23-1,1.85s-.69,1.22-1,1.82a61.75,61.75,0,0,1-4.78,7c-.32.42-.66.83-1,1.24s-.67.82-1,1.22c-.69.81-1.39,1.6-2.12,2.36-1,1-2,2-3,3l-1.1,1q-1.66,1.49-3.43,2.87c-1.55,1.19-3.14,2.33-4.78,3.4l-1.13.71c-.41.26-.81.51-1.24.75-.16.09-.32.18-.47.28l-1.63.91c-.55.3-1.11.58-1.67.87-.87.44-1.75.87-2.65,1.26l-.6.27c-.72.32-1.44.63-2.17.92l-.74.28c-.77.29-1.54.58-2.32.84l-.82.28c-1.17.39-2.36.74-3.56,1.05-.52.15-1,.27-1.56.4-.93.22-1.87.42-2.82.61l-1.19.22-.81.14c-.52.09-1,.17-1.57.24l-1.36.18-.9.1-.36,0-.92.1-1.25.09c-.44,0-.89.06-1.33.07s-.88,0-1.32,0q-1,0-1.95,0a5.81,5.81,0,0,1-.59,0C137.16,225.44,136.15,225.41,135.14,225.35Z"/></g><g class="cls-18"><path class="cls-19" d="M201.14,134.3c-.61-1.55-1.28-3.07-2-4.56-.24-.51-.48-1-.73-1.49-.38-.75-.79-1.5-1.2-2.24-.23-.41-.46-.82-.7-1.23s-.44-.75-.68-1.12q-1.36-2.23-2.91-4.35c-.26-.36-.52-.71-.79-1-.37-.51-.77-1-1.17-1.52l-1-1.2c-.37-.44-.76-.88-1.14-1.32s-.56-.65-.87-1-.59-.64-.89-1l-.91-.93c-.3-.3-.61-.61-.93-.91l-.87-.82a.57.57,0,0,0-.11-.11l-.94-.85-.95-.83-.16-.14-.86-.72c-1.34-1.11-2.71-2.17-4.14-3.15l-1.07-.74c-1.09-.74-2.19-1.43-3.31-2.09-.38-.22-.75-.44-1.14-.65l-1.14-.64c-1.54-.82-3.1-1.6-4.7-2.3-.6-.27-1.21-.52-1.81-.77s-1.23-.5-1.84-.73l-1.25-.44q-.52-.19-1.05-.36a2.13,2.13,0,0,0-.33-.11l-1.13-.36c-.56-.17-1.12-.34-1.7-.49a1.91,1.91,0,0,0-.34-.1c-.6-.17-1.2-.32-1.8-.47-.88-.21-1.77-.41-2.67-.58-.41-.09-.84-.17-1.26-.24l-1.32-.22c-.9-.15-1.79-.27-2.68-.37-.4,0-.79-.1-1.2-.13-1.85-.18-3.72-.3-5.62-.32h-1.12q-2.22,0-4.44.15a66.87,66.87,0,0,0-62.16,71.25l.09,1.27c0,.3.07.61.1.91q.12,1.29.3,2.55c0,.28.08.57.12.84.16,1.08.36,2.16.58,3.22,0,.33.12.65.19,1s.11.46.16.69.13.56.2.84.13.52.19.79c.28,1.09.58,2.16.92,3.23.15.49.3,1,.47,1.46a2.11,2.11,0,0,0,.1.3c.11.33.22.67.34,1s.15.41.24.61q.19.58.42,1.14a66.23,66.23,0,0,0,3,6.69l.69,1.27,0,.1.71,1.24.71,1.2c.27.44.54.87.82,1.3q1.64,2.53,3.48,4.91c.46.59.92,1.16,1.4,1.73q1.6,1.94,3.35,3.72c.38.4.78.79,1.18,1.18s.71.69,1.07,1c.63.59,1.27,1.17,1.92,1.73s1.32,1.13,2,1.67,1.36,1.07,2.05,1.59,1.41,1,2.11,1.5,1.65,1.1,2.49,1.62c.42.26.84.52,1.27.77l1.29.74c.43.24.86.48,1.31.71s.87.47,1.32.69.75.38,1.14.56c1.41.69,2.85,1.31,4.31,1.89l1.4.54,1.71.6c.48.17,1,.33,1.46.47.89.28,1.78.54,2.68.78.45.13.89.24,1.34.35s.7.18,1,.25c.73.17,1.48.32,2.23.47.4.07.8.16,1.21.22,1,.19,2.09.34,3.16.47.46.07.93.11,1.4.16,1,.11,2.06.19,3.09.25h0A108.15,108.15,0,0,0,201.14,134.3Zm-59.52,65.34a41.14,41.14,0,1,1,38.25-43.84A41.13,41.13,0,0,1,141.62,199.64Z"/></g><path class="cls-20" d="M136,117.55a41.14,41.14,0,1,0,43.84,38.25A41.14,41.14,0,0,0,136,117.55Zm4.54,66.7a25.71,25.71,0,1,1,23.9-27.4A25.72,25.72,0,0,1,140.57,184.25Z"/><g class="cls-14"><path d="M219,86.21a107.83,107.83,0,0,0-15-13.73c0-.17,0-.34,0-.51a66.53,66.53,0,0,0-5.87-23.22A107.29,107.29,0,0,1,219,86.21Z"/></g><g class="cls-14"><path d="M219,86.21a107.83,107.83,0,0,0-15-13.73c0-.17,0-.34,0-.51a66.53,66.53,0,0,0-5.87-23.22A107.29,107.29,0,0,1,219,86.21Z"/></g><path class="cls-12" d="M219,86.21a108.08,108.08,0,0,1-20.57,102.72.15.15,0,0,1,0,.08c-.32.62-.65,1.23-1,1.85s-.69,1.22-1,1.82a67,67,0,0,1-4.78,7c-.32.42-.66.83-1,1.24s-.67.82-1,1.22c-.69.81-1.39,1.6-2.12,2.36-1,1-2,2-3,3l-1.1,1q-1.66,1.47-3.43,2.87c-1.55,1.19-3.14,2.33-4.78,3.4l-1.13.71c-.41.26-.81.51-1.24.75-.16.09-.32.18-.47.28l-1.63.91c-.55.3-1.11.58-1.67.87-.87.44-1.75.87-2.65,1.26l-.6.27c-.72.32-1.44.63-2.17.92l-.74.28c-.77.29-1.54.58-2.32.84l-.82.28c-1.17.39-2.36.74-3.56,1.05-.52.15-1,.27-1.56.4-.93.22-1.87.42-2.82.61l-1.19.22-.81.14c-.52.09-1,.17-1.57.24l-1.36.18-.9.1-.36,0-.92.1-1.25.09c-.44,0-.89.06-1.33.07s-.88,0-1.32,0q-1,0-1.95,0a5.81,5.81,0,0,1-.59,0c-1,0-2,0-3-.1a0,0,0,0,1,0,0,.28.28,0,0,1-.13,0h0c-1-.06-2.07-.14-3.09-.25-.47,0-.94-.09-1.4-.16-1.07-.13-2.12-.28-3.16-.47-.41-.06-.81-.15-1.21-.22-.75-.15-1.5-.3-2.23-.47-.34-.07-.69-.16-1-.25s-.89-.22-1.34-.35c-.9-.24-1.79-.5-2.68-.78-.5-.14-1-.3-1.46-.47l-1.71-.6-1.4-.54c-1.46-.58-2.9-1.2-4.31-1.89-.39-.18-.76-.37-1.14-.56s-.89-.46-1.32-.69-.88-.47-1.31-.71l-1.29-.74c-.43-.25-.85-.51-1.27-.77-.84-.52-1.67-1.07-2.49-1.62s-1.41-1-2.11-1.5-1.38-1.05-2.05-1.59-1.34-1.1-2-1.67-1.29-1.14-1.92-1.73c-.36-.34-.72-.68-1.07-1s-.8-.78-1.18-1.18q-1.74-1.79-3.35-3.72c-.48-.57-.94-1.14-1.4-1.73q-1.85-2.37-3.48-4.91c-.28-.43-.55-.86-.82-1.3l-.71-1.2L80.33,191l0-.1-.69-1.27a66.23,66.23,0,0,1-3-6.69q-.23-.55-.42-1.14c-.09-.2-.16-.41-.24-.61s-.23-.66-.34-1a2.11,2.11,0,0,1-.1-.3c-.17-.48-.32-1-.47-1.46-.34-1.07-.64-2.14-.92-3.23-.06-.27-.13-.52-.19-.79s-.14-.55-.2-.84-.1-.46-.16-.69-.14-.64-.19-1c-.22-1.06-.42-2.14-.58-3.22,0-.27-.08-.56-.12-.84q-.18-1.26-.3-2.55c0-.3-.07-.61-.1-.91l-.09-1.27a66.87,66.87,0,0,1,62.16-71.25q2.22-.15,4.44-.15h1.12c1.9,0,3.77.14,5.62.32.41,0,.8.08,1.2.13.89.1,1.78.22,2.68.37l1.32.22c.42.07.85.15,1.26.24.9.17,1.79.37,2.67.58.6.15,1.2.3,1.8.47a1.91,1.91,0,0,1,.34.1c.58.15,1.14.32,1.7.49l1.13.36a2.13,2.13,0,0,1,.33.11q.53.16,1.05.36l1.25.44c.61.23,1.22.48,1.84.73s1.21.5,1.81.77c1.6.7,3.16,1.48,4.7,2.3l1.14.64c.39.21.76.43,1.14.65,1.12.66,2.22,1.35,3.31,2.09l1.07.74c1.42,1,2.81,2.05,4.14,3.15l.86.72.16.14.95.83.94.85a.57.57,0,0,1,.11.11l.87.82c.32.3.63.61.93.91l.91.93c.3.31.59.63.89,1s.6.63.87,1,.77.88,1.14,1.32l1,1.2c.4.51.8,1,1.17,1.52.27.34.53.69.79,1q1.55,2.11,2.91,4.35c.24.37.46.75.68,1.12s.47.82.7,1.23c.41.74.82,1.49,1.2,2.24.25.49.49,1,.73,1.49.71,1.49,1.38,3,2,4.56a108.59,108.59,0,0,0,.08-16A107.4,107.4,0,0,0,177.5,57.74,108.09,108.09,0,0,0,59.57,85.23,108,108,0,0,0,85.88,222.77a107.62,107.62,0,0,0,37.55,4,103.53,103.53,0,0,0,11.37-1.39,107.48,107.48,0,0,1-33.19,7.88c-.26,0-.53.05-.79.06a107.47,107.47,0,0,1-46-6.89A108,108,0,1,0,219,86.21Z"/><g class="cls-16"><path class="cls-21" d="M134.8,225.41a107.48,107.48,0,0,1-33.19,7.88c-.26,0-.53.05-.79.06a107.47,107.47,0,0,1-46-6.89,107.34,107.34,0,0,1-18.86-35,107.75,107.75,0,0,0,87.5,35.36A103.53,103.53,0,0,0,134.8,225.41Z"/></g></g></g></g></svg>