<svg xmlns="http://www.w3.org/2000/svg" xmlns:xlink="http://www.w3.org/1999/xlink" viewBox="0 0 299.75 299.75"><defs><style>.cls-1{isolation:isolate;}.cls-2{fill:none;}.cls-3{fill:url(#Unbenannter_Verlauf_29);}.cls-4{fill:url(#Unbenannter_Verlauf_29-2);}.cls-5{fill:url(#Unbenannter_Verlauf_29-3);}.cls-6{fill:url(#Unbenannter_Verlauf_29-4);}.cls-7{fill:url(#Unbenannter_Verlauf_29-6);}.cls-8{fill:url(#Unbenannter_Verlauf_29-7);}.cls-9{fill:url(#Unbenannter_Verlauf_29-8);}.cls-10{fill:url(#Unbenannter_Verlauf_29-10);}.cls-11{fill:url(#Unbenannter_Verlauf_29-12);}.cls-12{fill:url(#Unbenannter_Verlauf_29-14);}.cls-13{fill:url(#Unbenannter_Verlauf_29-15);}.cls-14{opacity:0.56;}.cls-14,.cls-16,.cls-17,.cls-19,.cls-22{mix-blend-mode:soft-light;}.cls-15{fill:url(#Unbenannter_Verlauf_29-16);}.cls-16{opacity:0.25;}.cls-17{opacity:0.5;}.cls-18{fill:url(#Unbenannter_Verlauf_29-17);}.cls-19{opacity:0.19;}.cls-20{fill:url(#Unbenannter_Verlauf_29-18);}.cls-21{fill:url(#Unbenannter_Verlauf_29-19);}</style><linearGradient id="Unbenannter_Verlauf_29" x1="57.88" y1="160.88" x2="257.88" y2="160.88" gradientUnits="userSpaceOnUse"><stop offset="0" stop-color="#d4145a"/><stop offset="1" stop-color="#f7931e"/></linearGradient><linearGradient id="Unbenannter_Verlauf_29-2" x1="95.44" y1="62.49" x2="234.77" y2="62.49" xlink:href="#Unbenannter_Verlauf_29"/><linearGradient id="Unbenannter_Verlauf_29-3" x1="57.88" y1="149.88" x2="214.88" y2="149.88" xlink:href="#Unbenannter_Verlauf_29"/><linearGradient id="Unbenannter_Verlauf_29-4" x1="75.79" y1="67.58" x2="195.32" y2="67.58" xlink:href="#Unbenannter_Verlauf_29"/><linearGradient id="Unbenannter_Verlauf_29-6" x1="57.88" y1="170.38" x2="257.88" y2="170.38" xlink:href="#Unbenannter_Verlauf_29"/><linearGradient id="Unbenannter_Verlauf_29-7" x1="83.02" y1="170.38" x2="213.7" y2="170.38" xlink:href="#Unbenannter_Verlauf_29"/><linearGradient id="Unbenannter_Verlauf_29-8" x1="108.73" y1="170.38" x2="191.02" y2="170.38" xlink:href="#Unbenannter_Verlauf_29"/><linearGradient id="Unbenannter_Verlauf_29-10" x1="215.52" y1="100.54" x2="147.67" y2="36.98" xlink:href="#Unbenannter_Verlauf_29"/><linearGradient id="Unbenannter_Verlauf_29-12" x1="135.65" y1="82.49" x2="127.25" y2="44.66" xlink:href="#Unbenannter_Verlauf_29"/><linearGradient id="Unbenannter_Verlauf_29-14" x1="-18.6" y1="278.61" x2="240.19" y2="112.36" xlink:href="#Unbenannter_Verlauf_29"/><linearGradient id="Unbenannter_Verlauf_29-15" x1="15.01" y1="125.29" x2="260.22" y2="254.73" xlink:href="#Unbenannter_Verlauf_29"/><linearGradient id="Unbenannter_Verlauf_29-16" x1="144.83" y1="209.47" x2="27.4" y2="227.21" xlink:href="#Unbenannter_Verlauf_29"/><linearGradient id="Unbenannter_Verlauf_29-17" x1="151.04" y1="245.92" x2="199.14" y2="196.85" xlink:href="#Unbenannter_Verlauf_29"/><linearGradient id="Unbenannter_Verlauf_29-18" x1="71.12" y1="240.17" x2="194.03" y2="114.79" xlink:href="#Unbenannter_Verlauf_29"/><linearGradient id="Unbenannter_Verlauf_29-19" x1="86.71" y1="195.65" x2="260.96" y2="125.93" xlink:href="#Unbenannter_Verlauf_29"/></defs><title>Element 7</title><g class="cls-1"><g id="Ebene_2" data-name="Ebene 2"><g id="Ebene_1-2" data-name="Ebene 1"><rect class="cls-2" width="299.75" height="299.75"/><path class="cls-3" d="M234.77,103.6a108.07,108.07,0,0,1-27.5,101.1.21.21,0,0,0-.05.07,107.68,107.68,0,0,1-65.55,31.95h-.15a108.16,108.16,0,0,0,72.18-86.33,109.67,109.67,0,0,0,1.18-16,107.39,107.39,0,0,0-19.56-62A108.09,108.09,0,0,0,75.79,91.78a108,108,0,0,0,16.91,139,107.69,107.69,0,0,0,37.18,6.58,105.37,105.37,0,0,0,11.43-.61,107.84,107.84,0,0,1-33.64,5.59A108,108,0,0,0,240,230a108,108,0,0,0-5.19-126.36Zm-84.89,92.48a25.71,25.71,0,1,1,25.7-25.7A25.71,25.71,0,0,1,149.88,196.08Z"/><path class="cls-4" d="M234.77,103.6a108.39,108.39,0,0,0-39.45-31.21A108.13,108.13,0,0,0,95.44,27,108.08,108.08,0,0,1,234.77,103.6Z"/><path class="cls-5" d="M195.32,72.39A108.09,108.09,0,0,0,75.79,91.78a108,108,0,0,0,16.91,139,107.69,107.69,0,0,0,37.18,6.58,105.37,105.37,0,0,0,11.43-.61,1,1,0,0,0,.34-.05h-.13a108.16,108.16,0,0,0,72.18-86.33,109.67,109.67,0,0,0,1.18-16A107.39,107.39,0,0,0,195.32,72.39ZM149.88,196.08a25.71,25.71,0,1,1,25.7-25.7A25.71,25.71,0,0,1,149.88,196.08Z"/><path class="cls-6" d="M195.32,72.39A108.09,108.09,0,0,0,75.79,91.78a107.83,107.83,0,0,1,89.29-48.39A108.2,108.2,0,0,1,195.32,72.39Z"/><path class="cls-5" d="M195.32,72.39A108.09,108.09,0,0,0,75.79,91.78a108,108,0,0,0,16.91,139,107.69,107.69,0,0,0,37.18,6.58,105.37,105.37,0,0,0,11.43-.61l.18-.06h0a108.16,108.16,0,0,0,72.18-86.33,109.67,109.67,0,0,0,1.18-16A107.39,107.39,0,0,0,195.32,72.39ZM149.88,196.08a25.71,25.71,0,1,1,25.7-25.7A25.71,25.71,0,0,1,149.88,196.08Z"/><path class="cls-7" d="M234.77,103.6a108.07,108.07,0,0,1-27.5,101.1.21.21,0,0,0-.05.07l-1.11,1.77c-.38.6-.77,1.17-1.16,1.75A72.15,72.15,0,0,1,199.7,215l-1.07,1.17c-.36.39-.73.78-1.1,1.15-.75.75-1.5,1.5-2.29,2.2-1,1-2.09,1.91-3.2,2.79-.38.3-.76.62-1.16.93-1.17.9-2.39,1.78-3.62,2.62q-2.43,1.65-5,3.08c-.4.2-.79.41-1.18.63l-1.29.67-.49.24c-.56.27-1.11.53-1.69.79l-1.71.76c-.91.38-1.82.74-2.73,1.07-.21.09-.41.16-.63.23-.74.27-1.48.53-2.23.77-.25.09-.5.15-.75.23-.78.24-1.58.48-2.37.68l-.84.23c-1.19.3-2.4.58-3.63.8-.51.11-1,.21-1.57.29-.94.17-1.89.3-2.86.42-.39.06-.8.1-1.21.14l-.8.09-1.59.13-1.38.09-.89,0h-.37l-.92,0h-1.25c-.44,0-.9,0-1.34,0l-1.32,0c-.65,0-1.29-.06-1.94-.11l-.59,0c-1-.08-2-.18-3-.31h-.18c-1-.13-2.05-.27-3.06-.45-.47-.08-.94-.17-1.4-.27-1.05-.2-2.08-.42-3.11-.68l-1.2-.29-2.19-.62c-.33-.11-.68-.21-1-.33s-.88-.28-1.32-.43c-.89-.31-1.75-.62-2.63-1l-1.41-.58c-.57-.22-1.12-.46-1.68-.71l-1.35-.63c-1.41-.69-2.82-1.41-4.17-2.19l-1.11-.63-1.27-.77-1.26-.81-1.23-.83-1.21-.84c-.81-.59-1.6-1.18-2.37-1.79l-2-1.64c-.67-.56-1.31-1.15-2-1.73s-1.26-1.19-1.86-1.8-1.22-1.22-1.8-1.85c-.35-.37-.68-.73-1-1.11s-.74-.82-1.1-1.25c-1.08-1.28-2.1-2.58-3.08-4-.44-.6-.87-1.19-1.28-1.81-1.13-1.67-2.17-3.37-3.15-5.14-.25-.44-.49-.9-.73-1.35L89.94,200c-.22-.43-.42-.85-.63-1.29a.36.36,0,0,1,0-.09l-.6-1.33a68.33,68.33,0,0,1-2.6-6.87c-.11-.39-.23-.77-.34-1.17-.06-.21-.13-.42-.19-.62s-.19-.68-.27-1a1.87,1.87,0,0,1-.08-.32c-.14-.49-.25-1-.38-1.48-.26-1.08-.49-2.17-.68-3.29-.06-.27-.1-.53-.15-.79s-.09-.56-.14-.85-.06-.47-.11-.71-.09-.65-.13-1c-.14-1.06-.27-2.16-.36-3.25,0-.27,0-.56,0-.85-.06-.85-.12-1.69-.14-2.56,0-.3,0-.61,0-.91s0-.86,0-1.27a66.86,66.86,0,0,1,66.86-66.86c1.48,0,3,0,4.43.14l1.13.08c1.88.15,3.75.4,5.59.71l1.18.2c.88.17,1.76.34,2.64.55.43.1.87.2,1.31.32s.83.2,1.25.32c.87.24,1.76.49,2.62.76.58.19,1.18.38,1.75.6a1.31,1.31,0,0,1,.35.12c.56.19,1.1.39,1.65.6l1.11.43.32.13,1,.43,1.22.54c.59.26,1.19.56,1.78.84s1.18.59,1.75.9c1.55.8,3.06,1.69,4.55,2.61q.56.35,1.08.72l1.1.72q1.6,1.1,3.15,2.31l1,.81c1.34,1.09,2.65,2.24,3.91,3.43l.81.77.16.15c.29.31.59.6.89.9l.87.91a.65.65,0,0,1,.11.12c.27.29.54.57.81.88s.58.65.86,1l.85,1c.28.33.55.68.82,1a12.93,12.93,0,0,1,.8,1c.36.45.71.93,1.05,1.39s.62.84.91,1.27.73,1.05,1.07,1.59c.24.35.48.72.72,1.09.93,1.48,1.79,3,2.61,4.55.2.38.4.78.59,1.16s.43.86.62,1.27c.37.77.71,1.55,1.05,2.33.21.5.41,1,.63,1.53q.91,2.3,1.67,4.69a109.67,109.67,0,0,0,1.18-16,107.39,107.39,0,0,0-19.56-62A108.09,108.09,0,0,0,75.79,91.78a108,108,0,0,0,16.91,139,107.69,107.69,0,0,0,37.18,6.58,105.37,105.37,0,0,0,11.43-.61,107.84,107.84,0,0,1-33.64,5.59c-.26,0-.53,0-.79,0a107.43,107.43,0,0,1-45.45-10A108,108,0,1,0,234.77,103.6Z"/><path class="cls-8" d="M141.67,236.72c1,.13,2,.23,3,.31l.59,0c.65.05,1.29.09,1.94.11l1.32,0c.44,0,.9,0,1.34,0h1.25l.92,0h.37l.89,0,1.38-.09,1.59-.13.8-.09c.41,0,.82-.08,1.21-.14,1-.12,1.92-.25,2.86-.42.53-.08,1.06-.18,1.57-.29,1.23-.22,2.44-.5,3.63-.8l.84-.23c.79-.2,1.59-.44,2.37-.68.25-.08.5-.14.75-.23.75-.24,1.49-.5,2.23-.77.22-.07.42-.14.63-.23.91-.33,1.82-.69,2.73-1.07l1.71-.76c.58-.26,1.13-.52,1.69-.79l.49-.24,1.29-.67c.39-.22.78-.43,1.18-.63q2.56-1.42,5-3.08c1.23-.83,2.45-1.71,3.62-2.62.4-.31.78-.63,1.16-.93,1.11-.88,2.18-1.81,3.2-2.79.79-.7,1.54-1.45,2.29-2.2.37-.37.74-.76,1.1-1.15L199.7,215a66.24,66.24,0,0,0,5.25-6.66c.39-.58.78-1.15,1.16-1.75l1.11-1.77A107.68,107.68,0,0,1,141.67,236.72Zm70.36-91c-.22-.52-.42-1-.63-1.53-.34-.78-.68-1.56-1.05-2.33-.19-.41-.4-.85-.62-1.27s-.39-.78-.59-1.16c-.82-1.56-1.68-3.07-2.61-4.55-.24-.37-.48-.74-.72-1.09-.34-.54-.7-1.06-1.07-1.59s-.59-.86-.91-1.27-.69-.94-1.05-1.39a12.93,12.93,0,0,0-.8-1c-.27-.33-.54-.68-.82-1l-.85-1c-.28-.31-.57-.65-.86-1s-.54-.59-.81-.88a.65.65,0,0,0-.11-.12l-.87-.91c-.3-.3-.6-.59-.89-.9l-.16-.15-.81-.77q-1.89-1.8-3.91-3.43l-1-.81q-1.55-1.22-3.15-2.31l-1.1-.72q-.53-.37-1.08-.72c-1.49-.92-3-1.81-4.55-2.61-.57-.31-1.17-.61-1.75-.9s-1.19-.58-1.78-.84l-1.22-.54-1-.43-.32-.13-1.11-.43c-.55-.21-1.09-.41-1.65-.6a1.31,1.31,0,0,0-.35-.12c-.57-.22-1.17-.41-1.75-.6-.86-.27-1.75-.52-2.62-.76-.42-.12-.84-.23-1.25-.32s-.88-.22-1.31-.32c-.88-.21-1.76-.38-2.64-.55l-1.18-.2c-1.84-.31-3.71-.56-5.59-.71l-1.13-.08c-1.47-.09-2.95-.14-4.43-.14A66.86,66.86,0,0,0,83,170.38c0,.41,0,.84,0,1.27s0,.61,0,.91c0,.87.08,1.71.14,2.56,0,.29,0,.58,0,.85.09,1.09.22,2.19.36,3.25,0,.33.09.67.13,1s.07.48.11.71.1.56.14.85.09.52.15.79c.19,1.12.42,2.21.68,3.29.13.5.24,1,.38,1.48a1.87,1.87,0,0,0,.08.32c.08.33.18.67.27,1s.13.41.19.62c.11.4.23.78.34,1.17a68.33,68.33,0,0,0,2.6,6.87l.6,1.33a.36.36,0,0,0,0,.09c.21.44.41.86.63,1.29l.62,1.25c.24.45.48.91.73,1.35,1,1.77,2,3.47,3.15,5.14.41.62.84,1.21,1.28,1.81,1,1.37,2,2.67,3.08,4,.36.43.73.83,1.1,1.25s.65.74,1,1.11c.58.63,1.18,1.24,1.8,1.85s1.24,1.22,1.86,1.8,1.28,1.17,2,1.73l2,1.64c.77.61,1.56,1.2,2.37,1.79l1.21.84,1.23.83,1.26.81,1.27.77,1.11.63c1.35.78,2.76,1.5,4.17,2.19l1.35.63c.56.25,1.11.49,1.68.71l1.41.58c.88.34,1.74.65,2.63,1,.44.15.87.3,1.32.43s.68.22,1,.33l2.19.62,1.2.29c1,.26,2.06.48,3.11.68.46.1.93.19,1.4.27,1,.18,2,.32,3.06.45h0a108.16,108.16,0,0,0,72.18-86.33Q213,148,212,145.69Zm-62.15,65.83A41.15,41.15,0,1,1,191,170.38,41.16,41.16,0,0,1,149.88,211.52Z"/><path class="cls-9" d="M149.88,129.23A41.15,41.15,0,1,0,191,170.38,41.16,41.16,0,0,0,149.88,129.23Zm0,66.85a25.71,25.71,0,1,1,25.7-25.7A25.71,25.71,0,0,1,149.88,196.08Z"/><path class="cls-3" d="M234.77,103.6a108.07,108.07,0,0,1-27.5,101.1.21.21,0,0,0-.05.07,107.68,107.68,0,0,1-65.55,31.95h-.15a108.16,108.16,0,0,0,72.18-86.33,109.67,109.67,0,0,0,1.18-16,107.39,107.39,0,0,0-19.56-62A108.09,108.09,0,0,0,75.79,91.78a108,108,0,0,0,16.91,139,107.69,107.69,0,0,0,37.18,6.58,105.37,105.37,0,0,0,11.43-.61,107.84,107.84,0,0,1-33.64,5.59A108,108,0,0,0,240,230a108,108,0,0,0-5.19-126.36Zm-84.89,92.48a25.71,25.71,0,1,1,25.7-25.7A25.71,25.71,0,0,1,149.88,196.08Z"/><path class="cls-10" d="M234.77,103.6a108.39,108.39,0,0,0-39.45-31.21A108.13,108.13,0,0,0,95.44,27,108.08,108.08,0,0,1,234.77,103.6Z"/><path class="cls-5" d="M195.32,72.39A108.09,108.09,0,0,0,75.79,91.78a108,108,0,0,0,16.91,139,107.69,107.69,0,0,0,37.18,6.58,105.37,105.37,0,0,0,11.43-.61,1,1,0,0,0,.34-.05h-.13a108.16,108.16,0,0,0,72.18-86.33,109.67,109.67,0,0,0,1.18-16A107.39,107.39,0,0,0,195.32,72.39ZM149.88,196.08a25.71,25.71,0,1,1,25.7-25.7A25.71,25.71,0,0,1,149.88,196.08Z"/><path class="cls-11" d="M195.32,72.39A108.09,108.09,0,0,0,75.79,91.78a107.83,107.83,0,0,1,89.29-48.39A108.2,108.2,0,0,1,195.32,72.39Z"/><path class="cls-5" d="M195.32,72.39A108.09,108.09,0,0,0,75.79,91.78a108,108,0,0,0,16.91,139,107.69,107.69,0,0,0,37.18,6.58,105.37,105.37,0,0,0,11.43-.61l.18-.06h0a108.16,108.16,0,0,0,72.18-86.33,109.67,109.67,0,0,0,1.18-16A107.39,107.39,0,0,0,195.32,72.39ZM149.88,196.08a25.71,25.71,0,1,1,25.7-25.7A25.71,25.71,0,0,1,149.88,196.08Z"/><path class="cls-12" d="M234.77,103.6a108.07,108.07,0,0,1-27.5,101.1.21.21,0,0,0-.05.07l-1.11,1.77c-.38.6-.77,1.17-1.16,1.75A72.15,72.15,0,0,1,199.7,215l-1.07,1.17c-.36.39-.73.78-1.1,1.15-.75.75-1.5,1.5-2.29,2.2-1,1-2.09,1.91-3.2,2.79-.38.3-.76.62-1.16.93-1.17.9-2.39,1.78-3.62,2.62q-2.43,1.65-5,3.08c-.4.2-.79.41-1.18.63l-1.29.67-.49.24c-.56.27-1.11.53-1.69.79l-1.71.76c-.91.38-1.82.74-2.73,1.07-.21.09-.41.16-.63.23-.74.27-1.48.53-2.23.77-.25.09-.5.15-.75.23-.78.24-1.58.48-2.37.68l-.84.23c-1.19.3-2.4.58-3.63.8-.51.11-1,.21-1.57.29-.94.17-1.89.3-2.86.42-.39.06-.8.1-1.21.14l-.8.09-1.59.13-1.38.09-.89,0h-.37l-.92,0h-1.25c-.44,0-.9,0-1.34,0l-1.32,0c-.65,0-1.29-.06-1.94-.11l-.59,0c-1-.08-2-.18-3-.31h-.18c-1-.13-2.05-.27-3.06-.45-.47-.08-.94-.17-1.4-.27-1.05-.2-2.08-.42-3.11-.68l-1.2-.29-2.19-.62c-.33-.11-.68-.21-1-.33s-.88-.28-1.32-.43c-.89-.31-1.75-.62-2.63-1l-1.41-.58c-.57-.22-1.12-.46-1.68-.71l-1.35-.63c-1.41-.69-2.82-1.41-4.17-2.19l-1.11-.63-1.27-.77-1.26-.81-1.23-.83-1.21-.84c-.81-.59-1.6-1.18-2.37-1.79l-2-1.64c-.67-.56-1.31-1.15-2-1.73s-1.26-1.19-1.86-1.8-1.22-1.22-1.8-1.85c-.35-.37-.68-.73-1-1.11s-.74-.82-1.1-1.25c-1.08-1.28-2.1-2.58-3.08-4-.44-.6-.87-1.19-1.28-1.81-1.13-1.67-2.17-3.37-3.15-5.14-.25-.44-.49-.9-.73-1.35L89.94,200c-.22-.43-.42-.85-.63-1.29a.36.36,0,0,1,0-.09l-.6-1.33a68.33,68.33,0,0,1-2.6-6.87c-.11-.39-.23-.77-.34-1.17-.06-.21-.13-.42-.19-.62s-.19-.68-.27-1a1.87,1.87,0,0,1-.08-.32c-.14-.49-.25-1-.38-1.48-.26-1.08-.49-2.17-.68-3.29-.06-.27-.1-.53-.15-.79s-.09-.56-.14-.85-.06-.47-.11-.71-.09-.65-.13-1c-.14-1.06-.27-2.16-.36-3.25,0-.27,0-.56,0-.85-.06-.85-.12-1.69-.14-2.56,0-.3,0-.61,0-.91s0-.86,0-1.27a66.86,66.86,0,0,1,66.86-66.86c1.48,0,3,0,4.43.14l1.13.08c1.88.15,3.75.4,5.59.71l1.18.2c.88.17,1.76.34,2.64.55.43.1.87.2,1.31.32s.83.2,1.25.32c.87.24,1.76.49,2.62.76.58.19,1.18.38,1.75.6a1.31,1.31,0,0,1,.35.12c.56.19,1.1.39,1.65.6l1.11.43.32.13,1,.43,1.22.54c.59.26,1.19.56,1.78.84s1.18.59,1.75.9c1.55.8,3.06,1.69,4.55,2.61q.56.35,1.08.72l1.1.72q1.6,1.1,3.15,2.31l1,.81c1.34,1.09,2.65,2.24,3.91,3.43l.81.77.16.15c.29.31.59.6.89.9l.87.91a.65.65,0,0,1,.11.12c.27.29.54.57.81.88s.58.65.86,1l.85,1c.28.33.55.68.82,1a12.93,12.93,0,0,1,.8,1c.36.45.71.93,1.05,1.39s.62.84.91,1.27.73,1.05,1.07,1.59c.24.35.48.72.72,1.09.93,1.48,1.79,3,2.61,4.55.2.38.4.78.59,1.16s.43.86.62,1.27c.37.77.71,1.55,1.05,2.33.21.5.41,1,.63,1.53q.91,2.3,1.67,4.69a109.67,109.67,0,0,0,1.18-16,107.39,107.39,0,0,0-19.56-62A108.09,108.09,0,0,0,75.79,91.78a108,108,0,0,0,16.91,139,107.69,107.69,0,0,0,37.18,6.58,105.37,105.37,0,0,0,11.43-.61,107.84,107.84,0,0,1-33.64,5.59c-.26,0-.53,0-.79,0a107.43,107.43,0,0,1-45.45-10A108,108,0,1,0,234.77,103.6Z"/><path class="cls-13" d="M92.7,230.8A108.36,108.36,0,0,1,45,196.15,108.18,108.18,0,0,1,75.79,91.78a108,108,0,0,0,16.91,139Z"/><g class="cls-14"><path d="M92.7,230.8A108.36,108.36,0,0,1,45,196.15,108.18,108.18,0,0,1,75.79,91.78a108,108,0,0,0,16.91,139Z"/></g><path class="cls-15" d="M141.31,236.77a107.84,107.84,0,0,1-33.64,5.59c-.26,0-.53,0-.79,0a107.43,107.43,0,0,1-45.45-10A107.27,107.27,0,0,1,45,196.15a107.85,107.85,0,0,0,84.9,41.23A105.37,105.37,0,0,0,141.31,236.77Z"/><g class="cls-16"><path d="M141.31,236.77a107.84,107.84,0,0,1-33.64,5.59c-.26,0-.53,0-.79,0a107.43,107.43,0,0,1-45.45-10A107.27,107.27,0,0,1,45,196.15a107.85,107.85,0,0,0,84.9,41.23A105.37,105.37,0,0,0,141.31,236.77Z"/></g><g class="cls-17"><path class="cls-18" d="M141.67,236.72a107.68,107.68,0,0,0,65.55-31.95l-1.11,1.77c-.38.6-.77,1.17-1.16,1.75A66.24,66.24,0,0,1,199.7,215l-1.07,1.17c-.36.39-.73.78-1.1,1.15-.75.75-1.5,1.5-2.29,2.2-1,1-2.09,1.91-3.2,2.79-.38.3-.76.62-1.16.93-1.17.91-2.39,1.79-3.62,2.62q-2.43,1.65-5,3.08c-.4.2-.79.41-1.18.63l-1.29.67-.49.24c-.56.27-1.11.53-1.69.79l-1.71.76c-.91.38-1.82.74-2.73,1.07-.21.09-.41.16-.63.23-.74.27-1.48.53-2.23.77-.25.09-.5.15-.75.23-.78.24-1.58.48-2.37.68l-.84.23c-1.19.3-2.4.58-3.63.8-.51.11-1,.21-1.57.29-.94.17-1.89.3-2.86.42-.39.06-.8.1-1.21.14l-.8.09-1.59.13-1.38.09-.89,0h-.37l-.92,0h-1.25c-.44,0-.9,0-1.34,0l-1.32,0c-.65,0-1.29-.06-1.94-.11l-.59,0C143.67,237,142.67,236.85,141.67,236.72Z"/></g><g class="cls-19"><path class="cls-20" d="M213.7,150.38Q213,148,212,145.69c-.22-.52-.42-1-.63-1.53-.34-.78-.68-1.56-1.05-2.33-.19-.41-.4-.85-.62-1.27s-.39-.78-.59-1.16c-.82-1.56-1.68-3.07-2.61-4.55-.24-.37-.48-.74-.72-1.09-.34-.54-.7-1.06-1.07-1.59s-.59-.86-.91-1.27-.69-.94-1.05-1.39a12.93,12.93,0,0,0-.8-1c-.27-.33-.54-.68-.82-1l-.85-1c-.28-.31-.57-.65-.86-1s-.54-.59-.81-.88a.65.65,0,0,0-.11-.12l-.87-.91c-.3-.3-.6-.59-.89-.9l-.16-.15-.81-.77q-1.89-1.8-3.91-3.43l-1-.81q-1.55-1.22-3.15-2.31l-1.1-.72q-.53-.37-1.08-.72c-1.49-.92-3-1.81-4.55-2.61-.57-.31-1.17-.61-1.75-.9s-1.19-.58-1.78-.84l-1.22-.54-1-.43-.32-.13-1.11-.43c-.55-.21-1.09-.41-1.65-.6a1.31,1.31,0,0,0-.35-.12c-.57-.22-1.17-.41-1.75-.6-.86-.27-1.75-.52-2.62-.76-.42-.12-.84-.23-1.25-.32s-.88-.22-1.31-.32c-.88-.21-1.76-.38-2.64-.55l-1.18-.2c-1.84-.31-3.71-.56-5.59-.71l-1.13-.08c-1.47-.09-2.95-.14-4.43-.14A66.86,66.86,0,0,0,83,170.38c0,.41,0,.84,0,1.27s0,.61,0,.91c0,.87.08,1.71.14,2.56,0,.29,0,.58,0,.85.09,1.09.22,2.19.36,3.25,0,.33.09.67.13,1s.07.48.11.71.1.56.14.85.09.52.15.79c.19,1.12.42,2.21.68,3.29.13.5.24,1,.38,1.48a1.87,1.87,0,0,0,.08.32c.08.33.18.67.27,1s.13.41.19.62c.11.4.23.78.34,1.17a68.33,68.33,0,0,0,2.6,6.87l.6,1.33a.36.36,0,0,0,0,.09c.21.44.41.86.63,1.29l.62,1.25c.24.45.48.91.73,1.35,1,1.77,2,3.47,3.15,5.14.41.62.84,1.21,1.28,1.81,1,1.37,2,2.67,3.08,4,.36.43.73.83,1.1,1.25s.65.74,1,1.11c.58.63,1.18,1.24,1.8,1.85s1.24,1.22,1.86,1.8,1.28,1.17,2,1.73l2,1.64c.77.61,1.56,1.2,2.37,1.79l1.21.84,1.23.83,1.26.81,1.27.77,1.11.63c1.35.78,2.76,1.5,4.17,2.19l1.35.63c.56.25,1.11.49,1.68.71l1.41.58c.88.34,1.74.65,2.63,1,.44.15.87.3,1.32.43s.68.22,1,.33l2.19.62,1.2.29c1,.26,2.06.48,3.11.68.46.1.93.19,1.4.27,1,.18,2,.32,3.06.45h0A108.16,108.16,0,0,0,213.7,150.38Zm-63.82,61.14A41.15,41.15,0,1,1,191,170.38,41.16,41.16,0,0,1,149.88,211.52Z"/></g><path class="cls-21" d="M149.88,129.23A41.15,41.15,0,1,0,191,170.38,41.16,41.16,0,0,0,149.88,129.23Zm0,66.85a25.71,25.71,0,1,1,25.7-25.7A25.71,25.71,0,0,1,149.88,196.08Z"/><g class="cls-22"><path d="M234.77,103.6a108.61,108.61,0,0,0-14.05-14.71c0-.18,0-.35,0-.51a66.64,66.64,0,0,0-4.27-23.56A107.5,107.5,0,0,1,234.77,103.6Z"/></g><g class="cls-22"><path d="M234.77,103.6a108.61,108.61,0,0,0-14.05-14.71c0-.18,0-.35,0-.51a66.64,66.64,0,0,0-4.27-23.56A107.5,107.5,0,0,1,234.77,103.6Z"/></g></g></g></g></svg>