<svg xmlns="http://www.w3.org/2000/svg" width="1120" height="700" viewBox="0 0 1120 700">
<rect width="100%" height="100%" fill="#ffffff"/>
<rect x="0" y="0" width="100%" height="100%" fill="#ffffff"/>
<text x="92.0" y="38.0" font-size="24" font-family="Arial, Helvetica, sans-serif" fill="#172033" text-anchor="start" font-weight="700">MINRES convergence from log.txt</text>
<text x="92.0" y="62.0" font-size="13" font-family="Arial, Helvetica, sans-serif" fill="#5b6472" text-anchor="start" font-weight="400">Relative preconditioned residual norm; rho = (final / initial)^(1 / N)</text>
<rect x="92" y="82" width="710" height="500" fill="#fbfcfe" stroke="#c8ced8" stroke-width="1"/>
<line x1="92.0" y1="82" x2="92.0" y2="582" stroke="#e6e9ef" stroke-width="1"/>
<line x1="92.0" y1="582" x2="92.0" y2="588" stroke="#6b7280" stroke-width="1"/>
<text x="92.0" y="606.0" font-size="12" font-family="Arial, Helvetica, sans-serif" fill="#4b5563" text-anchor="middle" font-weight="400">0</text>
<line x1="121.6" y1="82" x2="121.6" y2="582" stroke="#e6e9ef" stroke-width="1"/>
<line x1="121.6" y1="582" x2="121.6" y2="588" stroke="#6b7280" stroke-width="1"/>
<text x="121.6" y="606.0" font-size="12" font-family="Arial, Helvetica, sans-serif" fill="#4b5563" text-anchor="middle" font-weight="400">50</text>
<line x1="151.2" y1="82" x2="151.2" y2="582" stroke="#e6e9ef" stroke-width="1"/>
<line x1="151.2" y1="582" x2="151.2" y2="588" stroke="#6b7280" stroke-width="1"/>
<text x="151.2" y="606.0" font-size="12" font-family="Arial, Helvetica, sans-serif" fill="#4b5563" text-anchor="middle" font-weight="400">100</text>
<line x1="180.8" y1="82" x2="180.8" y2="582" stroke="#e6e9ef" stroke-width="1"/>
<line x1="180.8" y1="582" x2="180.8" y2="588" stroke="#6b7280" stroke-width="1"/>
<text x="180.8" y="606.0" font-size="12" font-family="Arial, Helvetica, sans-serif" fill="#4b5563" text-anchor="middle" font-weight="400">150</text>
<line x1="210.3" y1="82" x2="210.3" y2="582" stroke="#e6e9ef" stroke-width="1"/>
<line x1="210.3" y1="582" x2="210.3" y2="588" stroke="#6b7280" stroke-width="1"/>
<text x="210.3" y="606.0" font-size="12" font-family="Arial, Helvetica, sans-serif" fill="#4b5563" text-anchor="middle" font-weight="400">200</text>
<line x1="239.9" y1="82" x2="239.9" y2="582" stroke="#e6e9ef" stroke-width="1"/>
<line x1="239.9" y1="582" x2="239.9" y2="588" stroke="#6b7280" stroke-width="1"/>
<text x="239.9" y="606.0" font-size="12" font-family="Arial, Helvetica, sans-serif" fill="#4b5563" text-anchor="middle" font-weight="400">250</text>
<line x1="269.5" y1="82" x2="269.5" y2="582" stroke="#e6e9ef" stroke-width="1"/>
<line x1="269.5" y1="582" x2="269.5" y2="588" stroke="#6b7280" stroke-width="1"/>
<text x="269.5" y="606.0" font-size="12" font-family="Arial, Helvetica, sans-serif" fill="#4b5563" text-anchor="middle" font-weight="400">300</text>
<line x1="299.1" y1="82" x2="299.1" y2="582" stroke="#e6e9ef" stroke-width="1"/>
<line x1="299.1" y1="582" x2="299.1" y2="588" stroke="#6b7280" stroke-width="1"/>
<text x="299.1" y="606.0" font-size="12" font-family="Arial, Helvetica, sans-serif" fill="#4b5563" text-anchor="middle" font-weight="400">350</text>
<line x1="328.7" y1="82" x2="328.7" y2="582" stroke="#e6e9ef" stroke-width="1"/>
<line x1="328.7" y1="582" x2="328.7" y2="588" stroke="#6b7280" stroke-width="1"/>
<text x="328.7" y="606.0" font-size="12" font-family="Arial, Helvetica, sans-serif" fill="#4b5563" text-anchor="middle" font-weight="400">400</text>
<line x1="358.2" y1="82" x2="358.2" y2="582" stroke="#e6e9ef" stroke-width="1"/>
<line x1="358.2" y1="582" x2="358.2" y2="588" stroke="#6b7280" stroke-width="1"/>
<text x="358.2" y="606.0" font-size="12" font-family="Arial, Helvetica, sans-serif" fill="#4b5563" text-anchor="middle" font-weight="400">450</text>
<line x1="387.8" y1="82" x2="387.8" y2="582" stroke="#e6e9ef" stroke-width="1"/>
<line x1="387.8" y1="582" x2="387.8" y2="588" stroke="#6b7280" stroke-width="1"/>
<text x="387.8" y="606.0" font-size="12" font-family="Arial, Helvetica, sans-serif" fill="#4b5563" text-anchor="middle" font-weight="400">500</text>
<line x1="417.4" y1="82" x2="417.4" y2="582" stroke="#e6e9ef" stroke-width="1"/>
<line x1="417.4" y1="582" x2="417.4" y2="588" stroke="#6b7280" stroke-width="1"/>
<text x="417.4" y="606.0" font-size="12" font-family="Arial, Helvetica, sans-serif" fill="#4b5563" text-anchor="middle" font-weight="400">550</text>
<line x1="447.0" y1="82" x2="447.0" y2="582" stroke="#e6e9ef" stroke-width="1"/>
<line x1="447.0" y1="582" x2="447.0" y2="588" stroke="#6b7280" stroke-width="1"/>
<text x="447.0" y="606.0" font-size="12" font-family="Arial, Helvetica, sans-serif" fill="#4b5563" text-anchor="middle" font-weight="400">600</text>
<line x1="476.6" y1="82" x2="476.6" y2="582" stroke="#e6e9ef" stroke-width="1"/>
<line x1="476.6" y1="582" x2="476.6" y2="588" stroke="#6b7280" stroke-width="1"/>
<text x="476.6" y="606.0" font-size="12" font-family="Arial, Helvetica, sans-serif" fill="#4b5563" text-anchor="middle" font-weight="400">650</text>
<line x1="506.2" y1="82" x2="506.2" y2="582" stroke="#e6e9ef" stroke-width="1"/>
<line x1="506.2" y1="582" x2="506.2" y2="588" stroke="#6b7280" stroke-width="1"/>
<text x="506.2" y="606.0" font-size="12" font-family="Arial, Helvetica, sans-serif" fill="#4b5563" text-anchor="middle" font-weight="400">700</text>
<line x1="535.8" y1="82" x2="535.8" y2="582" stroke="#e6e9ef" stroke-width="1"/>
<line x1="535.8" y1="582" x2="535.8" y2="588" stroke="#6b7280" stroke-width="1"/>
<text x="535.8" y="606.0" font-size="12" font-family="Arial, Helvetica, sans-serif" fill="#4b5563" text-anchor="middle" font-weight="400">750</text>
<line x1="565.3" y1="82" x2="565.3" y2="582" stroke="#e6e9ef" stroke-width="1"/>
<line x1="565.3" y1="582" x2="565.3" y2="588" stroke="#6b7280" stroke-width="1"/>
<text x="565.3" y="606.0" font-size="12" font-family="Arial, Helvetica, sans-serif" fill="#4b5563" text-anchor="middle" font-weight="400">800</text>
<line x1="594.9" y1="82" x2="594.9" y2="582" stroke="#e6e9ef" stroke-width="1"/>
<line x1="594.9" y1="582" x2="594.9" y2="588" stroke="#6b7280" stroke-width="1"/>
<text x="594.9" y="606.0" font-size="12" font-family="Arial, Helvetica, sans-serif" fill="#4b5563" text-anchor="middle" font-weight="400">850</text>
<line x1="624.5" y1="82" x2="624.5" y2="582" stroke="#e6e9ef" stroke-width="1"/>
<line x1="624.5" y1="582" x2="624.5" y2="588" stroke="#6b7280" stroke-width="1"/>
<text x="624.5" y="606.0" font-size="12" font-family="Arial, Helvetica, sans-serif" fill="#4b5563" text-anchor="middle" font-weight="400">900</text>
<line x1="654.1" y1="82" x2="654.1" y2="582" stroke="#e6e9ef" stroke-width="1"/>
<line x1="654.1" y1="582" x2="654.1" y2="588" stroke="#6b7280" stroke-width="1"/>
<text x="654.1" y="606.0" font-size="12" font-family="Arial, Helvetica, sans-serif" fill="#4b5563" text-anchor="middle" font-weight="400">950</text>
<line x1="683.7" y1="82" x2="683.7" y2="582" stroke="#e6e9ef" stroke-width="1"/>
<line x1="683.7" y1="582" x2="683.7" y2="588" stroke="#6b7280" stroke-width="1"/>
<text x="683.7" y="606.0" font-size="12" font-family="Arial, Helvetica, sans-serif" fill="#4b5563" text-anchor="middle" font-weight="400">1000</text>
<line x1="713.2" y1="82" x2="713.2" y2="582" stroke="#e6e9ef" stroke-width="1"/>
<line x1="713.2" y1="582" x2="713.2" y2="588" stroke="#6b7280" stroke-width="1"/>
<text x="713.2" y="606.0" font-size="12" font-family="Arial, Helvetica, sans-serif" fill="#4b5563" text-anchor="middle" font-weight="400">1050</text>
<line x1="742.8" y1="82" x2="742.8" y2="582" stroke="#e6e9ef" stroke-width="1"/>
<line x1="742.8" y1="582" x2="742.8" y2="588" stroke="#6b7280" stroke-width="1"/>
<text x="742.8" y="606.0" font-size="12" font-family="Arial, Helvetica, sans-serif" fill="#4b5563" text-anchor="middle" font-weight="400">1100</text>
<line x1="772.4" y1="82" x2="772.4" y2="582" stroke="#e6e9ef" stroke-width="1"/>
<line x1="772.4" y1="582" x2="772.4" y2="588" stroke="#6b7280" stroke-width="1"/>
<text x="772.4" y="606.0" font-size="12" font-family="Arial, Helvetica, sans-serif" fill="#4b5563" text-anchor="middle" font-weight="400">1150</text>
<line x1="802.0" y1="82" x2="802.0" y2="582" stroke="#e6e9ef" stroke-width="1"/>
<line x1="802.0" y1="582" x2="802.0" y2="588" stroke="#6b7280" stroke-width="1"/>
<text x="802.0" y="606.0" font-size="12" font-family="Arial, Helvetica, sans-serif" fill="#4b5563" text-anchor="middle" font-weight="400">1200</text>
<line x1="92" y1="82.0" x2="802" y2="82.0" stroke="#e6e9ef" stroke-width="1"/>
<line x1="86" y1="82.0" x2="92" y2="82.0" stroke="#6b7280" stroke-width="1"/>
<text x="80.0" y="86.0" font-size="12" font-family="Arial, Helvetica, sans-serif" fill="#4b5563" text-anchor="end" font-weight="400">1</text>
<line x1="92" y1="144.5" x2="802" y2="144.5" stroke="#e6e9ef" stroke-width="1"/>
<line x1="86" y1="144.5" x2="92" y2="144.5" stroke="#6b7280" stroke-width="1"/>
<text x="80.0" y="148.5" font-size="12" font-family="Arial, Helvetica, sans-serif" fill="#4b5563" text-anchor="end" font-weight="400">1e-1</text>
<line x1="92" y1="207.0" x2="802" y2="207.0" stroke="#e6e9ef" stroke-width="1"/>
<line x1="86" y1="207.0" x2="92" y2="207.0" stroke="#6b7280" stroke-width="1"/>
<text x="80.0" y="211.0" font-size="12" font-family="Arial, Helvetica, sans-serif" fill="#4b5563" text-anchor="end" font-weight="400">1e-2</text>
<line x1="92" y1="269.5" x2="802" y2="269.5" stroke="#e6e9ef" stroke-width="1"/>
<line x1="86" y1="269.5" x2="92" y2="269.5" stroke="#6b7280" stroke-width="1"/>
<text x="80.0" y="273.5" font-size="12" font-family="Arial, Helvetica, sans-serif" fill="#4b5563" text-anchor="end" font-weight="400">1e-3</text>
<line x1="92" y1="332.0" x2="802" y2="332.0" stroke="#e6e9ef" stroke-width="1"/>
<line x1="86" y1="332.0" x2="92" y2="332.0" stroke="#6b7280" stroke-width="1"/>
<text x="80.0" y="336.0" font-size="12" font-family="Arial, Helvetica, sans-serif" fill="#4b5563" text-anchor="end" font-weight="400">1e-4</text>
<line x1="92" y1="394.5" x2="802" y2="394.5" stroke="#e6e9ef" stroke-width="1"/>
<line x1="86" y1="394.5" x2="92" y2="394.5" stroke="#6b7280" stroke-width="1"/>
<text x="80.0" y="398.5" font-size="12" font-family="Arial, Helvetica, sans-serif" fill="#4b5563" text-anchor="end" font-weight="400">1e-5</text>
<line x1="92" y1="457.0" x2="802" y2="457.0" stroke="#e6e9ef" stroke-width="1"/>
<line x1="86" y1="457.0" x2="92" y2="457.0" stroke="#6b7280" stroke-width="1"/>
<text x="80.0" y="461.0" font-size="12" font-family="Arial, Helvetica, sans-serif" fill="#4b5563" text-anchor="end" font-weight="400">1e-6</text>
<line x1="92" y1="519.5" x2="802" y2="519.5" stroke="#e6e9ef" stroke-width="1"/>
<line x1="86" y1="519.5" x2="92" y2="519.5" stroke="#6b7280" stroke-width="1"/>
<text x="80.0" y="523.5" font-size="12" font-family="Arial, Helvetica, sans-serif" fill="#4b5563" text-anchor="end" font-weight="400">1e-7</text>
<line x1="92" y1="582.0" x2="802" y2="582.0" stroke="#e6e9ef" stroke-width="1"/>
<line x1="86" y1="582.0" x2="92" y2="582.0" stroke="#6b7280" stroke-width="1"/>
<text x="80.0" y="586.0" font-size="12" font-family="Arial, Helvetica, sans-serif" fill="#4b5563" text-anchor="end" font-weight="400">1e-8</text>
<line x1="92" y1="582" x2="802" y2="582" stroke="#111827" stroke-width="1.2"/>
<line x1="92" y1="82" x2="92" y2="582" stroke="#111827" stroke-width="1.2"/>
<text x="447.0" y="652.0" font-size="14" font-family="Arial, Helvetica, sans-serif" fill="#172033" text-anchor="middle" font-weight="400">MINRES iteration</text>
<text x="24.0" y="332.0" font-size="14" font-family="Arial, Helvetica, sans-serif" fill="#172033" text-anchor="middle" font-weight="400" transform="rotate(-90.0 24.0 332.0)">relative residual norm</text>
<path d="M 92.00 82.00 L 92.59 105.89 L 93.18 142.79 L 93.78 143.99 L 94.37 157.37 L 94.96 158.98 L 95.55 171.86 L 96.14 175.59 L 96.73 179.90 L 97.33 181.43 L 97.92 181.98 L 98.51 184.41 L 99.10 184.65 L 99.69 191.12 L 100.28 191.23 L 100.88 196.46 L 101.47 196.78 L 102.06 202.04 L 102.65 202.29 L 103.24 207.32 L 103.83 208.65 L 104.42 212.99 L 105.02 217.11 L 105.61 218.04 L 106.20 222.14 L 106.79 222.81 L 107.38 226.77 L 107.97 227.77 L 108.57 233.04 L 109.16 233.05 L 109.75 238.42 L 110.34 238.58 L 110.93 242.59 L 111.53 242.74 L 112.12 247.05 L 112.71 247.59 L 113.30 252.05 L 113.89 253.29 L 114.48 256.09 L 115.08 257.87 L 115.67 259.60 L 116.26 261.33 L 116.85 262.57 L 117.44 264.61 L 118.03 265.59 L 118.62 267.73 L 119.22 268.42 L 119.81 270.48 L 120.40 270.69 L 120.99 273.36 L 121.58 273.38 L 122.17 275.94 L 122.77 276.00 L 123.36 278.26 L 123.95 278.27 L 124.54 280.70 L 125.13 280.85 L 125.72 282.69 L 126.32 283.44 L 126.91 284.62 L 127.50 285.49 L 128.09 286.67 L 128.68 287.67 L 129.28 289.12 L 129.87 291.03 L 130.46 291.64 L 131.05 293.49 L 131.64 293.67 L 132.23 295.40 L 132.82 295.49 L 133.42 297.24 L 134.01 297.27 L 134.60 299.65 L 135.19 299.80 L 135.78 301.09 L 136.38 301.31 L 136.97 302.24 L 137.56 302.57 L 138.15 303.23 L 138.74 303.94 L 139.33 304.26 L 139.93 304.93 L 140.52 305.23 L 141.11 305.76 L 141.70 305.96 L 142.29 306.52 L 142.88 306.61 L 143.47 307.04 L 144.07 307.07 L 144.66 307.42 L 145.25 307.44 L 145.84 307.78 L 146.43 307.78 L 147.03 308.15 L 147.62 308.17 L 148.21 308.39 L 148.80 308.41 L 149.39 308.61 L 149.98 308.61 L 150.57 308.77 L 151.17 308.79 L 151.76 308.92 L 152.35 308.96 L 152.94 309.03 L 153.53 309.05 L 154.12 309.13 L 154.72 309.15 L 155.31 309.20 L 155.90 309.23 L 156.49 309.24 L 157.08 309.29 L 157.68 309.29 L 158.27 309.33 L 158.86 309.34 L 159.45 309.39 L 160.04 309.40 L 160.63 309.45 L 161.23 309.45 L 161.82 309.51 L 162.41 309.51 L 163.00 309.56 L 163.59 309.57 L 164.18 309.63 L 164.77 309.64 L 165.37 309.71 L 165.96 309.72 L 166.55 309.79 L 167.14 309.82 L 167.73 309.88 L 168.32 309.91 L 168.92 310.00 L 169.51 310.03 L 170.10 310.12 L 170.69 310.15 L 171.28 310.24 L 171.88 310.26 L 172.47 310.45 L 173.06 310.45 L 173.65 310.71 L 174.24 310.71 L 174.83 311.00 L 175.43 311.00 L 176.02 311.34 L 176.61 311.36 L 177.20 311.74 L 177.79 311.74 L 178.38 312.17 L 178.97 312.29 L 179.57 312.69 L 180.16 312.92 L 180.75 313.33 L 181.34 313.49 L 181.93 313.94 L 182.53 314.09 L 183.12 314.33 L 183.71 314.85 L 184.30 314.98 L 184.89 315.49 L 185.48 315.53 L 186.07 315.93 L 186.67 315.96 L 187.26 316.45 L 187.85 316.45 L 188.44 317.00 L 189.03 317.01 L 189.62 317.57 L 190.22 317.59 L 190.81 317.97 L 191.40 318.03 L 191.99 318.58 L 192.58 318.75 L 193.18 319.25 L 193.77 319.53 L 194.36 319.87 L 194.95 320.52 L 195.54 320.57 L 196.13 321.39 L 196.72 321.46 L 197.32 322.24 L 197.91 322.29 L 198.50 323.28 L 199.09 323.34 L 199.68 324.53 L 200.27 324.70 L 200.87 325.46 L 201.46 325.91 L 202.05 326.13 L 202.64 326.54 L 203.23 326.95 L 203.82 327.40 L 204.42 327.72 L 205.01 328.44 L 205.60 328.44 L 206.19 329.18 L 206.78 329.27 L 207.38 329.71 L 207.97 330.00 L 208.56 330.08 L 209.15 330.56 L 209.74 330.56 L 210.33 330.94 L 210.93 330.95 L 211.52 331.18 L 212.11 331.22 L 212.70 331.54 L 213.29 331.65 L 213.88 331.96 L 214.47 332.10 L 215.07 332.22 L 215.66 332.45 L 216.25 332.50 L 216.84 332.67 L 217.43 332.77 L 218.02 332.95 L 218.62 333.07 L 219.21 333.19 L 219.80 333.38 L 220.39 333.48 L 220.98 333.63 L 221.57 333.65 L 222.17 333.77 L 222.76 333.84 L 223.35 333.95 L 223.94 334.09 L 224.53 334.24 L 225.12 334.38 L 225.72 334.52 L 226.31 334.56 L 226.90 334.72 L 227.49 334.86 L 228.08 335.02 L 228.68 335.18 L 229.27 335.46 L 229.86 335.54 L 230.45 335.92 L 231.04 336.18 L 231.63 336.32 L 232.22 336.71 L 232.82 336.99 L 233.41 337.52 L 234.00 337.73 L 234.59 338.65 L 235.18 338.68 L 235.78 340.07 L 236.37 340.08 L 236.96 341.47 L 237.55 341.49 L 238.14 343.09 L 238.73 343.16 L 239.32 345.08 L 239.92 345.09 L 240.51 348.04 L 241.10 348.05 L 241.69 350.65 L 242.28 350.65 L 242.88 352.72 L 243.47 352.85 L 244.06 354.66 L 244.65 356.23 L 245.24 356.70 L 245.83 358.95 L 246.43 359.16 L 247.02 361.41 L 247.61 361.90 L 248.20 363.16 L 248.79 363.22 L 249.38 364.88 L 249.97 364.91 L 250.57 366.68 L 251.16 366.68 L 251.75 367.62 L 252.34 367.64 L 252.93 368.70 L 253.53 368.84 L 254.12 369.41 L 254.71 369.90 L 255.30 370.18 L 255.89 370.47 L 256.48 370.78 L 257.08 370.98 L 257.67 371.20 L 258.26 371.31 L 258.85 371.43 L 259.44 371.69 L 260.03 371.74 L 260.62 371.97 L 261.22 371.98 L 261.81 372.13 L 262.40 372.15 L 262.99 372.29 L 263.58 372.30 L 264.17 372.41 L 264.77 372.41 L 265.36 372.55 L 265.95 372.55 L 266.54 372.63 L 267.13 372.63 L 267.73 372.72 L 268.32 372.72 L 268.91 372.81 L 269.50 372.83 L 270.09 372.89 L 270.68 372.93 L 271.27 372.99 L 271.87 373.03 L 272.46 373.09 L 273.05 373.14 L 273.64 373.23 L 274.23 373.31 L 274.83 373.37 L 275.42 373.45 L 276.01 373.50 L 276.60 373.63 L 277.19 373.70 L 277.78 373.88 L 278.38 373.92 L 278.97 374.08 L 279.56 374.09 L 280.15 374.36 L 280.74 374.37 L 281.33 374.55 L 281.93 374.56 L 282.52 374.93 L 283.11 374.93 L 283.70 375.33 L 284.29 375.34 L 284.88 375.63 L 285.48 375.63 L 286.07 376.11 L 286.66 376.15 L 287.25 376.76 L 287.84 376.76 L 288.43 377.61 L 289.02 377.65 L 289.62 378.33 L 290.21 378.44 L 290.80 378.90 L 291.39 378.96 L 291.98 379.47 L 292.57 380.04 L 293.17 380.12 L 293.76 380.88 L 294.35 380.90 L 294.94 381.44 L 295.53 381.47 L 296.12 382.15 L 296.72 382.21 L 297.31 382.92 L 297.90 382.93 L 298.49 383.58 L 299.08 383.88 L 299.67 384.48 L 300.27 384.48 L 300.86 385.23 L 301.45 385.32 L 302.04 385.80 L 302.63 385.90 L 303.23 386.31 L 303.82 386.32 L 304.41 386.71 L 305.00 386.71 L 305.59 387.05 L 306.18 387.09 L 306.77 387.30 L 307.37 387.31 L 307.96 387.55 L 308.55 387.61 L 309.14 387.72 L 309.73 387.78 L 310.32 387.88 L 310.92 388.02 L 311.51 388.08 L 312.10 388.17 L 312.69 388.28 L 313.28 388.34 L 313.88 388.42 L 314.47 388.49 L 315.06 388.53 L 315.65 388.64 L 316.24 388.66 L 316.83 388.76 L 317.43 388.76 L 318.02 388.83 L 318.61 388.83 L 319.20 388.95 L 319.79 388.95 L 320.38 389.06 L 320.98 389.06 L 321.57 389.16 L 322.16 389.16 L 322.75 389.25 L 323.34 389.26 L 323.93 389.35 L 324.52 389.35 L 325.12 389.43 L 325.71 389.43 L 326.30 389.55 L 326.89 389.57 L 327.48 389.67 L 328.08 389.71 L 328.67 389.81 L 329.26 389.83 L 329.85 389.94 L 330.44 389.97 L 331.03 390.12 L 331.62 390.19 L 332.22 390.27 L 332.81 390.37 L 333.40 390.55 L 333.99 390.79 L 334.58 390.87 L 335.18 391.27 L 335.77 391.29 L 336.36 391.79 L 336.95 391.82 L 337.54 392.33 L 338.13 392.44 L 338.73 393.05 L 339.32 393.28 L 339.91 393.84 L 340.50 394.70 L 341.09 394.93 L 341.68 395.99 L 342.27 396.28 L 342.87 397.45 L 343.46 397.62 L 344.05 399.13 L 344.64 399.13 L 345.23 400.97 L 345.82 401.37 L 346.42 402.70 L 347.01 402.73 L 347.60 404.06 L 348.19 404.49 L 348.78 405.31 L 349.38 405.63 L 349.97 406.37 L 350.56 407.18 L 351.15 407.38 L 351.74 408.07 L 352.33 408.12 L 352.93 408.65 L 353.52 408.71 L 354.11 409.21 L 354.70 409.24 L 355.29 409.74 L 355.88 409.82 L 356.48 410.11 L 357.07 410.12 L 357.66 410.37 L 358.25 410.52 L 358.84 410.67 L 359.43 410.84 L 360.02 410.91 L 360.62 411.02 L 361.21 411.05 L 361.80 411.15 L 362.39 411.18 L 362.98 411.29 L 363.57 411.32 L 364.17 411.41 L 364.76 411.45 L 365.35 411.55 L 365.94 411.57 L 366.53 411.72 L 367.12 411.72 L 367.72 411.91 L 368.31 411.91 L 368.90 412.06 L 369.49 412.06 L 370.08 412.25 L 370.68 412.25 L 371.27 412.42 L 371.86 412.44 L 372.45 412.66 L 373.04 412.78 L 373.63 413.01 L 374.23 413.05 L 374.82 413.31 L 375.41 413.35 L 376.00 413.69 L 376.59 413.86 L 377.18 414.11 L 377.78 414.43 L 378.37 414.87 L 378.96 415.03 L 379.55 415.25 L 380.14 415.76 L 380.73 416.21 L 381.32 417.31 L 381.92 417.54 L 382.51 419.25 L 383.10 419.25 L 383.69 420.62 L 384.28 420.62 L 384.88 422.38 L 385.47 422.40 L 386.06 424.25 L 386.65 424.39 L 387.24 425.89 L 387.83 426.54 L 388.43 427.73 L 389.02 428.33 L 389.61 429.98 L 390.20 430.25 L 390.79 432.71 L 391.38 432.77 L 391.97 434.94 L 392.57 435.28 L 393.16 437.27 L 393.75 437.67 L 394.34 439.39 L 394.93 440.51 L 395.52 442.20 L 396.12 443.58 L 396.71 444.60 L 397.30 447.20 L 397.89 447.62 L 398.48 449.75 L 399.07 449.79 L 399.67 452.09 L 400.26 452.18 L 400.85 454.17 L 401.44 454.17 L 402.03 455.76 L 402.62 456.04 L 403.22 457.57 L 403.81 458.36 L 404.40 458.71 L 404.99 459.33 L 405.58 459.84 L 406.18 460.61 L 406.77 460.81 L 407.36 461.21 L 407.95 461.28 L 408.54 461.78 L 409.13 461.81 L 409.73 462.27 L 410.32 462.27 L 410.91 462.64 L 411.50 462.64 L 412.09 462.89 L 412.68 462.89 L 413.28 463.07 L 413.87 463.08 L 414.46 463.30 L 415.05 463.39 L 415.64 463.45 L 416.23 463.56 L 416.82 463.61 L 417.42 463.68 L 418.01 463.71 L 418.60 463.83 L 419.19 463.83 L 419.78 463.93 L 420.38 463.95 L 420.97 464.03 L 421.56 464.03 L 422.15 464.12 L 422.74 464.13 L 423.33 464.18 L 423.93 464.26 L 424.52 464.30 L 425.11 464.32 L 425.70 464.37 L 426.29 464.45 L 426.88 464.47 L 427.47 464.57 L 428.07 464.58 L 428.66 464.68 L 429.25 464.69 L 429.84 464.88 L 430.43 464.88 L 431.02 465.15 L 431.62 465.16 L 432.21 465.32 L 432.80 465.33 L 433.39 465.71 L 433.98 465.79 L 434.57 466.14 L 435.17 466.40 L 435.76 466.53 L 436.35 466.81 L 436.94 467.03 L 437.53 467.65 L 438.12 468.08 L 438.72 468.88 L 439.31 469.00 L 439.90 470.11 L 440.49 470.39 L 441.08 471.44 L 441.68 471.80 L 442.27 473.08 L 442.86 473.41 L 443.45 476.02 L 444.04 476.16 L 444.63 478.78 L 445.23 479.17 L 445.82 481.77 L 446.41 481.80 L 447.00 484.53 L 447.59 484.97 L 448.18 487.72 L 448.77 488.65 L 449.37 491.01 L 449.96 491.12 L 450.55 493.06 L 451.14 493.14 L 451.73 495.14 L 452.32 495.36 L 452.92 496.56 L 453.51 497.28 L 454.10 497.79 L 454.69 498.47 L 455.28 498.72 L 455.87 499.21 L 456.47 499.39 L 457.06 499.84 L 457.65 499.85 L 458.24 500.35 L 458.83 500.35 L 459.42 500.71 L 460.02 500.76 L 460.61 501.01 L 461.20 501.01 L 461.79 501.27 L 462.38 501.29 L 462.97 501.46 L 463.57 501.47 L 464.16 501.62 L 464.75 501.66 L 465.34 501.78 L 465.93 501.81 L 466.52 501.91 L 467.12 501.95 L 467.71 502.03 L 468.30 502.06 L 468.89 502.11 L 469.48 502.18 L 470.07 502.19 L 470.67 502.26 L 471.26 502.29 L 471.85 502.35 L 472.44 502.37 L 473.03 502.47 L 473.62 502.47 L 474.22 502.59 L 474.81 502.59 L 475.40 502.73 L 475.99 502.74 L 476.58 502.86 L 477.18 502.88 L 477.77 503.10 L 478.36 503.14 L 478.95 503.31 L 479.54 503.41 L 480.13 503.57 L 480.72 503.84 L 481.32 503.94 L 481.91 504.32 L 482.50 504.56 L 483.09 505.22 L 483.68 505.26 L 484.27 506.09 L 484.87 506.09 L 485.46 507.11 L 486.05 507.11 L 486.64 508.18 L 487.23 508.55 L 487.82 509.67 L 488.42 510.05 L 489.01 511.16 L 489.60 511.61 L 490.19 512.82 L 490.78 513.55 L 491.38 514.45 L 491.97 516.71 L 492.56 517.14 L 493.15 518.61 L 493.74 519.81" fill="none" stroke="#1f77b4" stroke-width="2.2" stroke-linejoin="round" stroke-linecap="round"/>
<circle cx="493.7" cy="519.8" r="3.8" fill="#1f77b4" stroke="#ffffff" stroke-width="1.2"/>
<path d="M 92.00 82.00 L 92.59 109.76 L 93.18 141.49 L 93.78 141.69 L 94.37 156.57 L 94.96 158.60 L 95.55 169.28 L 96.14 170.17 L 96.73 176.44 L 97.33 179.74 L 97.92 181.08 L 98.51 183.66 L 99.10 184.07 L 99.69 188.54 L 100.28 188.80 L 100.88 193.34 L 101.47 194.19 L 102.06 197.83 L 102.65 198.48 L 103.24 201.96 L 103.83 203.80 L 104.42 207.83 L 105.02 212.25 L 105.61 213.09 L 106.20 216.88 L 106.79 217.14 L 107.38 222.33 L 107.97 222.75 L 108.57 229.57 L 109.16 229.62 L 109.75 236.03 L 110.34 236.10 L 110.93 240.14 L 111.53 240.34 L 112.12 243.87 L 112.71 244.55 L 113.30 248.67 L 113.89 250.01 L 114.48 252.76 L 115.08 255.51 L 115.67 256.88 L 116.26 259.44 L 116.85 260.77 L 117.44 263.85 L 118.03 264.36 L 118.62 268.02 L 119.22 268.09 L 119.81 271.06 L 120.40 271.09 L 120.99 274.03 L 121.58 274.04 L 122.17 276.85 L 122.77 276.93 L 123.36 279.35 L 123.95 279.75 L 124.54 281.76 L 125.13 282.37 L 125.72 284.28 L 126.32 285.38 L 126.91 286.70 L 127.50 288.19 L 128.09 288.73 L 128.68 290.62 L 129.28 291.04 L 129.87 292.73 L 130.46 293.10 L 131.05 294.99 L 131.64 295.01 L 132.23 296.72 L 132.82 296.76 L 133.42 298.38 L 134.01 298.55 L 134.60 299.88 L 135.19 300.16 L 135.78 301.18 L 136.38 301.74 L 136.97 302.31 L 137.56 303.05 L 138.15 303.27 L 138.74 304.02 L 139.33 304.16 L 139.93 304.88 L 140.52 304.94 L 141.11 305.60 L 141.70 305.60 L 142.29 306.18 L 142.88 306.19 L 143.47 306.68 L 144.07 306.69 L 144.66 307.12 L 145.25 307.14 L 145.84 307.47 L 146.43 307.50 L 147.03 307.75 L 147.62 307.80 L 148.21 308.01 L 148.80 308.06 L 149.39 308.26 L 149.98 308.33 L 150.57 308.49 L 151.17 308.58 L 151.76 308.71 L 152.35 308.83 L 152.94 308.94 L 153.53 309.07 L 154.12 309.17 L 154.72 309.32 L 155.31 309.37 L 155.90 309.56 L 156.49 309.58 L 157.08 309.76 L 157.68 309.78 L 158.27 309.96 L 158.86 309.96 L 159.45 310.14 L 160.04 310.14 L 160.63 310.27 L 161.23 310.28 L 161.82 310.38 L 162.41 310.38 L 163.00 310.49 L 163.59 310.50 L 164.18 310.57 L 164.77 310.60 L 165.37 310.65 L 165.96 310.68 L 166.55 310.72 L 167.14 310.75 L 167.73 310.79 L 168.32 310.82 L 168.92 310.86 L 169.51 310.90 L 170.10 310.93 L 170.69 310.98 L 171.28 311.01 L 171.88 311.05 L 172.47 311.08 L 173.06 311.14 L 173.65 311.16 L 174.24 311.24 L 174.83 311.25 L 175.43 311.34 L 176.02 311.35 L 176.61 311.44 L 177.20 311.45 L 177.79 311.55 L 178.38 311.56 L 178.97 311.69 L 179.57 311.69 L 180.16 311.81 L 180.75 311.81 L 181.34 311.96 L 181.93 311.96 L 182.53 312.12 L 183.12 312.13 L 183.71 312.30 L 184.30 312.33 L 184.89 312.48 L 185.48 312.51 L 186.07 312.68 L 186.67 312.73 L 187.26 312.89 L 187.85 313.02 L 188.44 313.18 L 189.03 313.37 L 189.62 313.50 L 190.22 313.70 L 190.81 313.84 L 191.40 314.12 L 191.99 314.26 L 192.58 314.65 L 193.18 314.74 L 193.77 315.19 L 194.36 315.23 L 194.95 315.71 L 195.54 315.75 L 196.13 316.29 L 196.72 316.33 L 197.32 316.96 L 197.91 316.97 L 198.50 317.57 L 199.09 317.58 L 199.68 318.13 L 200.27 318.15 L 200.87 318.71 L 201.46 318.74 L 202.05 319.33 L 202.64 319.41 L 203.23 320.00 L 203.82 320.12 L 204.42 320.60 L 205.01 320.76 L 205.60 321.16 L 206.19 321.39 L 206.78 321.89 L 207.38 322.22 L 207.97 322.69 L 208.56 323.06 L 209.15 323.46 L 209.74 323.87 L 210.33 324.23 L 210.93 324.77 L 211.52 325.07 L 212.11 325.78 L 212.70 326.05 L 213.29 326.93 L 213.88 327.05 L 214.47 327.97 L 215.07 328.04 L 215.66 328.97 L 216.25 329.02 L 216.84 330.08 L 217.43 330.08 L 218.02 331.13 L 218.62 331.14 L 219.21 332.03 L 219.80 332.04 L 220.39 332.97 L 220.98 332.97 L 221.57 333.96 L 222.17 334.06 L 222.76 334.79 L 223.35 335.04 L 223.94 335.69 L 224.53 335.94 L 225.12 336.56 L 225.72 336.77 L 226.31 337.29 L 226.90 337.84 L 227.49 338.08 L 228.08 338.75 L 228.68 338.94 L 229.27 339.63 L 229.86 339.74 L 230.45 340.37 L 231.04 340.44 L 231.63 341.19 L 232.22 341.21 L 232.82 341.95 L 233.41 341.96 L 234.00 342.69 L 234.59 342.69 L 235.18 343.29 L 235.78 343.29 L 236.37 343.92 L 236.96 343.92 L 237.55 344.57 L 238.14 344.58 L 238.73 345.21 L 239.32 345.22 L 239.92 345.77 L 240.51 345.79 L 241.10 346.24 L 241.69 346.30 L 242.28 346.80 L 242.88 346.90 L 243.47 347.37 L 244.06 347.49 L 244.65 347.86 L 245.24 348.05 L 245.83 348.31 L 246.43 348.59 L 247.02 348.89 L 247.61 349.10 L 248.20 349.47 L 248.79 349.69 L 249.38 350.06 L 249.97 350.29 L 250.57 350.63 L 251.16 350.78 L 251.75 351.15 L 252.34 351.26 L 252.93 351.61 L 253.53 351.81 L 254.12 352.00 L 254.71 352.36 L 255.30 352.49 L 255.89 352.86 L 256.48 353.00 L 257.08 353.29 L 257.67 353.51 L 258.26 353.80 L 258.85 354.01 L 259.44 354.31 L 260.03 354.44 L 260.62 354.78 L 261.22 354.83 L 261.81 355.19 L 262.40 355.27 L 262.99 355.69 L 263.58 355.75 L 264.17 356.19 L 264.77 356.26 L 265.36 356.67 L 265.95 356.77 L 266.54 357.14 L 267.13 357.23 L 267.73 357.76 L 268.32 357.76 L 268.91 358.39 L 269.50 358.39 L 270.09 359.00 L 270.68 359.00 L 271.27 359.58 L 271.87 359.61 L 272.46 360.37 L 273.05 360.39 L 273.64 361.10 L 274.23 361.10 L 274.83 361.81 L 275.42 361.81 L 276.01 362.41 L 276.60 362.45 L 277.19 363.14 L 277.78 363.14 L 278.38 363.80 L 278.97 363.87 L 279.56 364.50 L 280.15 364.59 L 280.74 365.20 L 281.33 365.24 L 281.93 365.90 L 282.52 365.92 L 283.11 366.56 L 283.70 366.62 L 284.29 367.07 L 284.88 367.27 L 285.48 367.56 L 286.07 367.78 L 286.66 368.13 L 287.25 368.31 L 287.84 368.69 L 288.43 368.90 L 289.02 369.19 L 289.62 369.46 L 290.21 369.59 L 290.80 369.94 L 291.39 370.03 L 291.98 370.36 L 292.57 370.50 L 293.17 370.85 L 293.76 370.96 L 294.35 371.32 L 294.94 371.34 L 295.53 371.73 L 296.12 371.73 L 296.72 372.05 L 297.31 372.05 L 297.90 372.38 L 298.49 372.39 L 299.08 372.70 L 299.67 372.77 L 300.27 373.01 L 300.86 373.10 L 301.45 373.24 L 302.04 373.37 L 302.63 373.50 L 303.23 373.62 L 303.82 373.78 L 304.41 373.91 L 305.00 374.01 L 305.59 374.15 L 306.18 374.22 L 306.77 374.37 L 307.37 374.45 L 307.96 374.61 L 308.55 374.65 L 309.14 374.82 L 309.73 374.84 L 310.32 375.02 L 310.92 375.05 L 311.51 375.23 L 312.10 375.25 L 312.69 375.44 L 313.28 375.44 L 313.88 375.63 L 314.47 375.64 L 315.06 375.80 L 315.65 375.80 L 316.24 375.97 L 316.83 375.99 L 317.43 376.15 L 318.02 376.20 L 318.61 376.33 L 319.20 376.40 L 319.79 376.47 L 320.38 376.55 L 320.98 376.62 L 321.57 376.70 L 322.16 376.78 L 322.75 376.88 L 323.34 376.93 L 323.93 377.07 L 324.52 377.09 L 325.12 377.27 L 325.71 377.28 L 326.30 377.45 L 326.89 377.46 L 327.48 377.65 L 328.08 377.65 L 328.67 377.87 L 329.26 377.87 L 329.85 378.07 L 330.44 378.07 L 331.03 378.28 L 331.62 378.29 L 332.22 378.50 L 332.81 378.52 L 333.40 378.70 L 333.99 378.75 L 334.58 378.92 L 335.18 378.97 L 335.77 379.17 L 336.36 379.26 L 336.95 379.40 L 337.54 379.57 L 338.13 379.67 L 338.73 379.87 L 339.32 379.97 L 339.91 380.18 L 340.50 380.26 L 341.09 380.50 L 341.68 380.54 L 342.27 380.82 L 342.87 380.85 L 343.46 381.13 L 344.05 381.14 L 344.64 381.42 L 345.23 381.42 L 345.82 381.71 L 346.42 381.71 L 347.01 382.00 L 347.60 382.02 L 348.19 382.25 L 348.78 382.32 L 349.38 382.51 L 349.97 382.56 L 350.56 382.75 L 351.15 382.83 L 351.74 382.99 L 352.33 383.12 L 352.93 383.23 L 353.52 383.37 L 354.11 383.45 L 354.70 383.62 L 355.29 383.68 L 355.88 383.90 L 356.48 383.93 L 357.07 384.15 L 357.66 384.16 L 358.25 384.41 L 358.84 384.42 L 359.43 384.65 L 360.02 384.65 L 360.62 384.89 L 361.21 384.89 L 361.80 385.14 L 362.39 385.14 L 362.98 385.38 L 363.57 385.40 L 364.17 385.62 L 364.76 385.65 L 365.35 385.85 L 365.94 385.86 L 366.53 386.08 L 367.12 386.12 L 367.72 386.29 L 368.31 386.37 L 368.90 386.52 L 369.49 386.58 L 370.08 386.75 L 370.68 386.80 L 371.27 386.93 L 371.86 387.04 L 372.45 387.16 L 373.04 387.26 L 373.63 387.37 L 374.23 387.49 L 374.82 387.58 L 375.41 387.75 L 376.00 387.80 L 376.59 388.02 L 377.18 388.03 L 377.78 388.26 L 378.37 388.26 L 378.96 388.49 L 379.55 388.49 L 380.14 388.71 L 380.73 388.71 L 381.32 388.94 L 381.92 388.96 L 382.51 389.18 L 383.10 389.23 L 383.69 389.41 L 384.28 389.45 L 384.88 389.62 L 385.47 389.68 L 386.06 389.86 L 386.65 389.97 L 387.24 390.10 L 387.83 390.25 L 388.43 390.36 L 389.02 390.50 L 389.61 390.64 L 390.20 390.81 L 390.79 390.92 L 391.38 391.17 L 391.97 391.21 L 392.57 391.51 L 393.16 391.51 L 393.75 391.84 L 394.34 391.84 L 394.93 392.17 L 395.52 392.19 L 396.12 392.50 L 396.71 392.56 L 397.30 392.85 L 397.89 392.90 L 398.48 393.20 L 399.07 393.26 L 399.67 393.60 L 400.26 393.72 L 400.85 393.90 L 401.44 394.18 L 402.03 394.29 L 402.62 394.62 L 403.22 394.73 L 403.81 395.05 L 404.40 395.10 L 404.99 395.50 L 405.58 395.56 L 406.18 396.00 L 406.77 396.02 L 407.36 396.50 L 407.95 396.50 L 408.54 397.06 L 409.13 397.07 L 409.73 397.52 L 410.32 397.52 L 410.91 397.99 L 411.50 398.00 L 412.09 398.49 L 412.68 398.54 L 413.28 399.10 L 413.87 399.17 L 414.46 399.66 L 415.05 399.77 L 415.64 400.17 L 416.23 400.32 L 416.82 400.76 L 417.42 400.99 L 418.01 401.46 L 418.60 401.69 L 419.19 402.19 L 419.78 402.38 L 420.38 402.81 L 420.97 403.01 L 421.56 403.42 L 422.15 403.72 L 422.74 404.13 L 423.33 404.48 L 423.93 404.94 L 424.52 405.31 L 425.11 405.58 L 425.70 405.91 L 426.29 406.22 L 426.88 406.49 L 427.47 406.70 L 428.07 407.16 L 428.66 407.33 L 429.25 407.80 L 429.84 407.87 L 430.43 408.34 L 431.02 408.34 L 431.62 408.83 L 432.21 408.83 L 432.80 409.28 L 433.39 409.28 L 433.98 409.71 L 434.57 409.71 L 435.17 410.05 L 435.76 410.10 L 436.35 410.42 L 436.94 410.48 L 437.53 410.77 L 438.12 410.79 L 438.72 411.11 L 439.31 411.13 L 439.90 411.36 L 440.49 411.45 L 441.08 411.57 L 441.68 411.74 L 442.27 411.80 L 442.86 411.96 L 443.45 412.02 L 444.04 412.14 L 444.63 412.18 L 445.23 412.36 L 445.82 412.36 L 446.41 412.56 L 447.00 412.56 L 447.59 412.74 L 448.18 412.74 L 448.77 412.93 L 449.37 412.93 L 449.96 413.10 L 450.55 413.13 L 451.14 413.27 L 451.73 413.35 L 452.32 413.51 L 452.92 413.57 L 453.51 413.75 L 454.10 413.80 L 454.69 414.05 L 455.28 414.09 L 455.87 414.36 L 456.47 414.41 L 457.06 414.66 L 457.65 414.69 L 458.24 414.90 L 458.83 415.00 L 459.42 415.20 L 460.02 415.37 L 460.61 415.52 L 461.20 415.73 L 461.79 415.87 L 462.38 416.00 L 462.97 416.16 L 463.57 416.27 L 464.16 416.40 L 464.75 416.58 L 465.34 416.65 L 465.93 416.88 L 466.52 416.93 L 467.12 417.14 L 467.71 417.20 L 468.30 417.41 L 468.89 417.44 L 469.48 417.75 L 470.07 417.76 L 470.67 418.06 L 471.26 418.06 L 471.85 418.39 L 472.44 418.39 L 473.03 418.74 L 473.62 418.75 L 474.22 419.12 L 474.81 419.13 L 475.40 419.50 L 475.99 419.55 L 476.58 419.80 L 477.18 419.94 L 477.77 420.14 L 478.36 420.30 L 478.95 420.53 L 479.54 420.71 L 480.13 420.89 L 480.72 421.12 L 481.32 421.21 L 481.91 421.50 L 482.50 421.58 L 483.09 421.91 L 483.68 421.95 L 484.27 422.33 L 484.87 422.33 L 485.46 422.78 L 486.05 422.78 L 486.64 423.24 L 487.23 423.24 L 487.82 423.77 L 488.42 423.77 L 489.01 424.25 L 489.60 424.32 L 490.19 424.73 L 490.78 424.86 L 491.38 425.30 L 491.97 425.41 L 492.56 425.82 L 493.15 426.14 L 493.74 426.45 L 494.33 426.83 L 494.93 427.00 L 495.52 427.39 L 496.11 427.53 L 496.70 428.08 L 497.29 428.18 L 497.88 428.74 L 498.48 428.79 L 499.07 429.28 L 499.66 429.35 L 500.25 429.88 L 500.84 429.89 L 501.43 430.44 L 502.03 430.44 L 502.62 430.96 L 503.21 430.98 L 503.80 431.48 L 504.39 431.49 L 504.98 432.02 L 505.57 432.06 L 506.17 432.54 L 506.76 432.65 L 507.35 433.04 L 507.94 433.22 L 508.53 433.49 L 509.12 433.68 L 509.72 434.01 L 510.31 434.30 L 510.90 434.51 L 511.49 434.85 L 512.08 434.95 L 512.67 435.35 L 513.27 435.45 L 513.86 435.77 L 514.45 435.89 L 515.04 436.30 L 515.63 436.33 L 516.23 436.83 L 516.82 436.83 L 517.41 437.29 L 518.00 437.29 L 518.59 437.76 L 519.18 437.76 L 519.78 438.26 L 520.37 438.26 L 520.96 438.75 L 521.55 438.76 L 522.14 439.20 L 522.73 439.23 L 523.33 439.67 L 523.92 439.71 L 524.51 440.09 L 525.10 440.21 L 525.69 440.59 L 526.28 440.69 L 526.88 440.99 L 527.47 441.20 L 528.06 441.39 L 528.65 441.65 L 529.24 441.84 L 529.83 442.09 L 530.42 442.28 L 531.02 442.57 L 531.61 442.70 L 532.20 443.02 L 532.79 443.07 L 533.38 443.43 L 533.98 443.46 L 534.57 443.80 L 535.16 443.83 L 535.75 444.24 L 536.34 444.24 L 536.93 444.66 L 537.52 444.66 L 538.12 445.04 L 538.71 445.08 L 539.30 445.37 L 539.89 445.42 L 540.48 445.75 L 541.08 445.80 L 541.67 446.08 L 542.26 446.25 L 542.85 446.40 L 543.44 446.57 L 544.03 446.77 L 544.62 446.96 L 545.22 447.18 L 545.81 447.36 L 546.40 447.51 L 546.99 447.74 L 547.58 447.88 L 548.17 448.12 L 548.77 448.24 L 549.36 448.49 L 549.95 448.61 L 550.54 448.94 L 551.13 449.01 L 551.72 449.38 L 552.32 449.43 L 552.91 449.78 L 553.50 449.81 L 554.09 450.22 L 554.68 450.24 L 555.27 450.78 L 555.87 450.78 L 556.46 451.33 L 557.05 451.35 L 557.64 451.86 L 558.23 452.01 L 558.83 452.46 L 559.42 452.53 L 560.01 453.09 L 560.60 453.22 L 561.19 453.67 L 561.78 453.94 L 562.38 454.35 L 562.97 454.72 L 563.56 455.07 L 564.15 455.28 L 564.74 455.78 L 565.33 456.16 L 565.92 456.37 L 566.52 457.02 L 567.11 457.13 L 567.70 457.63 L 568.29 457.72 L 568.88 458.29 L 569.47 458.38 L 570.07 459.11 L 570.66 459.16 L 571.25 459.93 L 571.84 459.93 L 572.43 460.64 L 573.02 460.64 L 573.62 461.45 L 574.21 461.46 L 574.80 462.29 L 575.39 462.34 L 575.98 463.12 L 576.58 463.20 L 577.17 464.01 L 577.76 464.15 L 578.35 465.05 L 578.94 465.36 L 579.53 465.95 L 580.12 466.27 L 580.72 466.86 L 581.31 467.27 L 581.90 467.77 L 582.49 468.16 L 583.08 468.67 L 583.67 469.25 L 584.27 469.54 L 584.86 470.25 L 585.45 470.46 L 586.04 471.23 L 586.63 471.37 L 587.23 471.98 L 587.82 472.11 L 588.41 472.82 L 589.00 472.90 L 589.59 473.59 L 590.18 473.60 L 590.78 474.36 L 591.37 474.36 L 591.96 474.95 L 592.55 474.95 L 593.14 475.50 L 593.73 475.52 L 594.33 476.14 L 594.92 476.20 L 595.51 476.65 L 596.10 476.69 L 596.69 477.10 L 597.28 477.12 L 597.88 477.51 L 598.47 477.60 L 599.06 477.88 L 599.65 477.98 L 600.24 478.25 L 600.83 478.33 L 601.42 478.56 L 602.02 478.73 L 602.61 478.84 L 603.20 479.07 L 603.79 479.13 L 604.38 479.41 L 604.98 479.47 L 605.57 479.65 L 606.16 479.72 L 606.75 479.96 L 607.34 479.97 L 607.93 480.25 L 608.52 480.26 L 609.12 480.51 L 609.71 480.52 L 610.30 480.76 L 610.89 480.77 L 611.48 481.02 L 612.08 481.02 L 612.67 481.35 L 613.26 481.35 L 613.85 481.66 L 614.44 481.66 L 615.03 481.98 L 615.62 481.99 L 616.22 482.35 L 616.81 482.36 L 617.40 482.80 L 617.99 482.87 L 618.58 483.31 L 619.18 483.36 L 619.77 483.78 L 620.36 484.03 L 620.95 484.27 L 621.54 484.61 L 622.13 484.97 L 622.73 485.22 L 623.32 485.63 L 623.91 486.02 L 624.50 486.20 L 625.09 486.84 L 625.68 486.96 L 626.27 487.52 L 626.87 487.87 L 627.46 488.51 L 628.05 488.59 L 628.64 489.47 L 629.23 489.47 L 629.82 490.25 L 630.42 490.27 L 631.01 491.10 L 631.60 491.10 L 632.19 491.79 L 632.78 491.80 L 633.38 492.61 L 633.97 492.79 L 634.56 493.46 L 635.15 493.76 L 635.74 494.25 L 636.33 494.40 L 636.92 494.94 L 637.52 495.34 L 638.11 495.62 L 638.70 496.14 L 639.29 496.49 L 639.88 496.95 L 640.48 497.35 L 641.07 497.77 L 641.66 498.04 L 642.25 498.65 L 642.84 498.88 L 643.43 499.63 L 644.02 499.72 L 644.62 500.28 L 645.21 500.37 L 645.80 501.07 L 646.39 501.09 L 646.98 501.70 L 647.57 501.71 L 648.17 502.47 L 648.76 502.50 L 649.35 503.11 L 649.94 503.35 L 650.53 503.74 L 651.12 503.86 L 651.72 504.46 L 652.31 504.67 L 652.90 505.07 L 653.49 505.40 L 654.08 505.62 L 654.67 505.81 L 655.27 506.04 L 655.86 506.40 L 656.45 506.45 L 657.04 506.81 L 657.63 506.83 L 658.23 507.12 L 658.82 507.19 L 659.41 507.52 L 660.00 507.52 L 660.59 507.80 L 661.18 507.80 L 661.77 508.13 L 662.37 508.13 L 662.96 508.41 L 663.55 508.44 L 664.14 508.71 L 664.73 508.72 L 665.33 509.00 L 665.92 509.02 L 666.51 509.29 L 667.10 509.29 L 667.69 509.57 L 668.28 509.60 L 668.88 509.86 L 669.47 509.87 L 670.06 510.23 L 670.65 510.25 L 671.24 510.55 L 671.83 510.57 L 672.42 510.87 L 673.02 510.93 L 673.61 511.21 L 674.20 511.28 L 674.79 511.68 L 675.38 511.76 L 675.98 512.15 L 676.57 512.47 L 677.16 512.68 L 677.75 512.94 L 678.34 513.28 L 678.93 513.71 L 679.52 513.92 L 680.12 514.42 L 680.71 514.57 L 681.30 515.31 L 681.89 515.35 L 682.48 516.33 L 683.08 516.39 L 683.67 517.22 L 684.26 517.25 L 684.85 518.47 L 685.44 518.51 L 686.03 519.49 L 686.62 519.50" fill="none" stroke="#d62728" stroke-width="2.2" stroke-linejoin="round" stroke-linecap="round"/>
<circle cx="686.6" cy="519.5" r="3.8" fill="#d62728" stroke="#ffffff" stroke-width="1.2"/>
<path d="M 92.00 82.00 L 92.59 112.53 L 93.18 140.95 L 93.78 141.42 L 94.37 155.12 L 94.96 156.25 L 95.55 166.93 L 96.14 167.11 L 96.73 174.41 L 97.33 178.40 L 97.92 180.59 L 98.51 183.71 L 99.10 184.14 L 99.69 187.65 L 100.28 187.65 L 100.88 191.99 L 101.47 192.81 L 102.06 195.36 L 102.65 196.21 L 103.24 198.49 L 103.83 200.29 L 104.42 202.46 L 105.02 205.35 L 105.61 207.07 L 106.20 210.35 L 106.79 210.77 L 107.38 213.50 L 107.97 213.73 L 108.57 218.76 L 109.16 218.79 L 109.75 224.06 L 110.34 224.06 L 110.93 228.39 L 111.53 228.44 L 112.12 231.77 L 112.71 231.89 L 113.30 235.11 L 113.89 235.92 L 114.48 238.35 L 115.08 239.48 L 115.67 241.80 L 116.26 243.66 L 116.85 245.87 L 117.44 248.85 L 118.03 249.82 L 118.62 253.26 L 119.22 253.45 L 119.81 256.49 L 120.40 256.66 L 120.99 259.95 L 121.58 259.96 L 122.17 263.55 L 122.77 263.89 L 123.36 266.47 L 123.95 266.81 L 124.54 268.68 L 125.13 269.20 L 125.72 271.05 L 126.32 272.09 L 126.91 273.59 L 127.50 275.24 L 128.09 276.04 L 128.68 277.74 L 129.28 278.29 L 129.87 279.91 L 130.46 280.20 L 131.05 282.35 L 131.64 282.42 L 132.23 284.37 L 132.82 284.37 L 133.42 286.15 L 134.01 286.18 L 134.60 287.86 L 135.19 287.98 L 135.78 289.38 L 136.38 289.81 L 136.97 290.94 L 137.56 291.62 L 138.15 292.52 L 138.74 293.45 L 139.33 294.09 L 139.93 295.24 L 140.52 295.63 L 141.11 296.86 L 141.70 297.00 L 142.29 298.39 L 142.88 298.44 L 143.47 299.82 L 144.07 299.82 L 144.66 301.10 L 145.25 301.13 L 145.84 302.20 L 146.43 302.27 L 147.03 303.15 L 147.62 303.31 L 148.21 304.03 L 148.80 304.28 L 149.39 304.75 L 149.98 305.11 L 150.57 305.37 L 151.17 305.72 L 151.76 305.92 L 152.35 306.24 L 152.94 306.35 L 153.53 306.70 L 154.12 306.73 L 154.72 307.02 L 155.31 307.03 L 155.90 307.26 L 156.49 307.26 L 157.08 307.47 L 157.68 307.47 L 158.27 307.65 L 158.86 307.66 L 159.45 307.79 L 160.04 307.80 L 160.63 307.90 L 161.23 307.92 L 161.82 308.00 L 162.41 308.03 L 163.00 308.09 L 163.59 308.13 L 164.18 308.17 L 164.77 308.21 L 165.37 308.25 L 165.96 308.29 L 166.55 308.31 L 167.14 308.35 L 167.73 308.37 L 168.32 308.41 L 168.92 308.43 L 169.51 308.47 L 170.10 308.48 L 170.69 308.53 L 171.28 308.54 L 171.88 308.59 L 172.47 308.60 L 173.06 308.67 L 173.65 308.67 L 174.24 308.75 L 174.83 308.75 L 175.43 308.84 L 176.02 308.84 L 176.61 308.95 L 177.20 308.95 L 177.79 309.07 L 178.38 309.08 L 178.97 309.20 L 179.57 309.23 L 180.16 309.36 L 180.75 309.41 L 181.34 309.52 L 181.93 309.60 L 182.53 309.69 L 183.12 309.80 L 183.71 309.87 L 184.30 310.01 L 184.89 310.06 L 185.48 310.22 L 186.07 310.25 L 186.67 310.42 L 187.26 310.44 L 187.85 310.61 L 188.44 310.62 L 189.03 310.81 L 189.62 310.82 L 190.22 311.02 L 190.81 311.02 L 191.40 311.21 L 191.99 311.21 L 192.58 311.40 L 193.18 311.40 L 193.77 311.62 L 194.36 311.64 L 194.95 311.85 L 195.54 311.89 L 196.13 312.09 L 196.72 312.14 L 197.32 312.37 L 197.91 312.44 L 198.50 312.65 L 199.09 312.79 L 199.68 312.96 L 200.27 313.17 L 200.87 313.32 L 201.46 313.57 L 202.05 313.71 L 202.64 314.04 L 203.23 314.13 L 203.82 314.55 L 204.42 314.59 L 205.01 315.05 L 205.60 315.07 L 206.19 315.56 L 206.78 315.57 L 207.38 316.07 L 207.97 316.07 L 208.56 316.58 L 209.15 316.59 L 209.74 317.06 L 210.33 317.09 L 210.93 317.55 L 211.52 317.60 L 212.11 318.05 L 212.70 318.14 L 213.29 318.55 L 213.88 318.71 L 214.47 319.06 L 215.07 319.24 L 215.66 319.56 L 216.25 319.81 L 216.84 320.06 L 217.43 320.40 L 218.02 320.58 L 218.62 321.01 L 219.21 321.11 L 219.80 321.56 L 220.39 321.66 L 220.98 322.13 L 221.57 322.18 L 222.17 322.71 L 222.76 322.72 L 223.35 323.31 L 223.94 323.31 L 224.53 323.88 L 225.12 323.88 L 225.72 324.46 L 226.31 324.47 L 226.90 325.07 L 227.49 325.12 L 228.08 325.74 L 228.68 325.80 L 229.27 326.40 L 229.86 326.51 L 230.45 327.05 L 231.04 327.27 L 231.63 327.77 L 232.22 328.07 L 232.82 328.49 L 233.41 328.84 L 234.00 329.16 L 234.59 329.58 L 235.18 329.86 L 235.78 330.37 L 236.37 330.57 L 236.96 331.11 L 237.55 331.25 L 238.14 331.81 L 238.73 331.90 L 239.32 332.53 L 239.92 332.58 L 240.51 333.25 L 241.10 333.26 L 241.69 333.92 L 242.28 333.92 L 242.88 334.57 L 243.47 334.58 L 244.06 335.21 L 244.65 335.25 L 245.24 335.85 L 245.83 335.94 L 246.43 336.47 L 247.02 336.62 L 247.61 337.10 L 248.20 337.29 L 248.79 337.73 L 249.38 338.02 L 249.97 338.41 L 250.57 338.81 L 251.16 339.13 L 251.75 339.64 L 252.34 339.87 L 252.93 340.47 L 253.53 340.65 L 254.12 341.37 L 254.71 341.48 L 255.30 342.30 L 255.89 342.34 L 256.48 343.21 L 257.08 343.22 L 257.67 344.05 L 258.26 344.05 L 258.85 344.90 L 259.44 344.90 L 260.03 345.70 L 260.62 345.74 L 261.22 346.44 L 261.81 346.52 L 262.40 347.13 L 262.99 347.22 L 263.58 347.80 L 264.17 347.96 L 264.77 348.48 L 265.36 348.71 L 265.95 349.10 L 266.54 349.38 L 267.13 349.69 L 267.73 350.00 L 268.32 350.29 L 268.91 350.67 L 269.50 350.89 L 270.09 351.34 L 270.68 351.46 L 271.27 351.97 L 271.87 352.06 L 272.46 352.60 L 273.05 352.68 L 273.64 353.29 L 274.23 353.32 L 274.83 354.00 L 275.42 354.00 L 276.01 354.70 L 276.60 354.70 L 277.19 355.38 L 277.78 355.39 L 278.38 356.08 L 278.97 356.14 L 279.56 356.78 L 280.15 356.92 L 280.74 357.47 L 281.33 357.65 L 281.93 358.12 L 282.52 358.38 L 283.11 358.74 L 283.70 359.15 L 284.29 359.39 L 284.88 359.82 L 285.48 359.99 L 286.07 360.44 L 286.66 360.57 L 287.25 361.08 L 287.84 361.16 L 288.43 361.69 L 289.02 361.72 L 289.62 362.26 L 290.21 362.27 L 290.80 362.76 L 291.39 362.77 L 291.98 363.30 L 292.57 363.30 L 293.17 363.78 L 293.76 363.79 L 294.35 364.25 L 294.94 364.28 L 295.53 364.72 L 296.12 364.75 L 296.72 365.19 L 297.31 365.27 L 297.90 365.67 L 298.49 365.82 L 299.08 366.15 L 299.67 366.32 L 300.27 366.61 L 300.86 366.81 L 301.45 367.09 L 302.04 367.36 L 302.63 367.58 L 303.23 367.93 L 303.82 368.09 L 304.41 368.47 L 305.00 368.57 L 305.59 369.00 L 306.18 369.08 L 306.77 369.56 L 307.37 369.61 L 307.96 370.08 L 308.55 370.09 L 309.14 370.56 L 309.73 370.56 L 310.32 371.02 L 310.92 371.02 L 311.51 371.46 L 312.10 371.47 L 312.69 371.86 L 313.28 371.91 L 313.88 372.23 L 314.47 372.29 L 315.06 372.58 L 315.65 372.68 L 316.24 372.89 L 316.83 373.04 L 317.43 373.21 L 318.02 373.36 L 318.61 373.50 L 319.20 373.66 L 319.79 373.76 L 320.38 373.97 L 320.98 374.04 L 321.57 374.26 L 322.16 374.31 L 322.75 374.51 L 323.34 374.55 L 323.93 374.78 L 324.52 374.79 L 325.12 375.04 L 325.71 375.04 L 326.30 375.29 L 326.89 375.29 L 327.48 375.52 L 328.08 375.52 L 328.67 375.77 L 329.26 375.78 L 329.85 376.03 L 330.44 376.04 L 331.03 376.27 L 331.62 376.29 L 332.22 376.51 L 332.81 376.54 L 333.40 376.76 L 333.99 376.82 L 334.58 377.00 L 335.18 377.08 L 335.77 377.23 L 336.36 377.32 L 336.95 377.45 L 337.54 377.57 L 338.13 377.65 L 338.73 377.82 L 339.32 377.86 L 339.91 378.04 L 340.50 378.07 L 341.09 378.24 L 341.68 378.26 L 342.27 378.43 L 342.87 378.44 L 343.46 378.64 L 344.05 378.64 L 344.64 378.83 L 345.23 378.83 L 345.82 378.99 L 346.42 379.00 L 347.01 379.18 L 347.60 379.20 L 348.19 379.37 L 348.78 379.41 L 349.38 379.56 L 349.97 379.62 L 350.56 379.74 L 351.15 379.82 L 351.74 379.95 L 352.33 380.02 L 352.93 380.15 L 353.52 380.26 L 354.11 380.35 L 354.70 380.49 L 355.29 380.55 L 355.88 380.72 L 356.48 380.76 L 357.07 380.93 L 357.66 380.97 L 358.25 381.15 L 358.84 381.16 L 359.43 381.38 L 360.02 381.38 L 360.62 381.59 L 361.21 381.59 L 361.80 381.79 L 362.39 381.79 L 362.98 381.99 L 363.57 382.01 L 364.17 382.19 L 364.76 382.23 L 365.35 382.39 L 365.94 382.44 L 366.53 382.58 L 367.12 382.63 L 367.72 382.77 L 368.31 382.83 L 368.90 382.96 L 369.49 383.06 L 370.08 383.15 L 370.68 383.26 L 371.27 383.35 L 371.86 383.45 L 372.45 383.54 L 373.04 383.66 L 373.63 383.71 L 374.23 383.87 L 374.82 383.90 L 375.41 384.06 L 376.00 384.08 L 376.59 384.24 L 377.18 384.25 L 377.78 384.43 L 378.37 384.44 L 378.96 384.64 L 379.55 384.64 L 380.14 384.82 L 380.73 384.83 L 381.32 385.01 L 381.92 385.02 L 382.51 385.22 L 383.10 385.23 L 383.69 385.43 L 384.28 385.44 L 384.88 385.63 L 385.47 385.64 L 386.06 385.82 L 386.65 385.85 L 387.24 386.03 L 387.83 386.08 L 388.43 386.25 L 389.02 386.32 L 389.61 386.46 L 390.20 386.54 L 390.79 386.65 L 391.38 386.77 L 391.97 386.87 L 392.57 387.03 L 393.16 387.10 L 393.75 387.28 L 394.34 387.31 L 394.93 387.52 L 395.52 387.55 L 396.12 387.75 L 396.71 387.78 L 397.30 388.00 L 397.89 388.01 L 398.48 388.23 L 399.07 388.23 L 399.67 388.45 L 400.26 388.45 L 400.85 388.68 L 401.44 388.68 L 402.03 388.92 L 402.62 388.93 L 403.22 389.14 L 403.81 389.19 L 404.40 389.37 L 404.99 389.44 L 405.58 389.62 L 406.18 389.70 L 406.77 389.86 L 407.36 390.00 L 407.95 390.13 L 408.54 390.33 L 409.13 390.43 L 409.73 390.63 L 410.32 390.72 L 410.91 390.93 L 411.50 390.98 L 412.09 391.27 L 412.68 391.28 L 413.28 391.62 L 413.87 391.62 L 414.46 391.94 L 415.05 391.95 L 415.64 392.26 L 416.23 392.27 L 416.82 392.63 L 417.42 392.64 L 418.01 393.00 L 418.60 393.03 L 419.19 393.32 L 419.78 393.36 L 420.38 393.62 L 420.97 393.68 L 421.56 393.96 L 422.15 394.05 L 422.74 394.30 L 423.33 394.42 L 423.93 394.59 L 424.52 394.72 L 425.11 394.86 L 425.70 395.04 L 426.29 395.16 L 426.88 395.39 L 427.47 395.48 L 428.07 395.71 L 428.66 395.76 L 429.25 396.01 L 429.84 396.04 L 430.43 396.28 L 431.02 396.32 L 431.62 396.59 L 432.21 396.61 L 432.80 396.89 L 433.39 396.89 L 433.98 397.18 L 434.57 397.19 L 435.17 397.49 L 435.76 397.49 L 436.35 397.80 L 436.94 397.81 L 437.53 398.09 L 438.12 398.15 L 438.72 398.40 L 439.31 398.53 L 439.90 398.77 L 440.49 398.87 L 441.08 399.14 L 441.68 399.24 L 442.27 399.55 L 442.86 399.67 L 443.45 399.91 L 444.04 400.09 L 444.63 400.20 L 445.23 400.47 L 445.82 400.58 L 446.41 400.85 L 447.00 400.98 L 447.59 401.27 L 448.18 401.40 L 448.77 401.69 L 449.37 401.79 L 449.96 402.08 L 450.55 402.12 L 451.14 402.49 L 451.73 402.51 L 452.32 402.92 L 452.92 402.94 L 453.51 403.36 L 454.10 403.40 L 454.69 403.81 L 455.28 403.86 L 455.87 404.30 L 456.47 404.31 L 457.06 404.74 L 457.65 404.75 L 458.24 405.19 L 458.83 405.21 L 459.42 405.67 L 460.02 405.67 L 460.61 406.18 L 461.20 406.19 L 461.79 406.69 L 462.38 406.72 L 462.97 407.14 L 463.57 407.20 L 464.16 407.56 L 464.75 407.67 L 465.34 408.04 L 465.93 408.22 L 466.52 408.58 L 467.12 408.79 L 467.71 409.10 L 468.30 409.29 L 468.89 409.57 L 469.48 409.77 L 470.07 409.98 L 470.67 410.32 L 471.26 410.47 L 471.85 410.88 L 472.44 410.99 L 473.03 411.36 L 473.62 411.46 L 474.22 411.80 L 474.81 411.86 L 475.40 412.32 L 475.99 412.33 L 476.58 412.84 L 477.18 412.84 L 477.77 413.33 L 478.36 413.33 L 478.95 413.75 L 479.54 413.75 L 480.13 414.16 L 480.72 414.19 L 481.32 414.59 L 481.91 414.66 L 482.50 415.01 L 483.09 415.11 L 483.68 415.40 L 484.27 415.48 L 484.87 415.73 L 485.46 415.86 L 486.05 416.04 L 486.64 416.25 L 487.23 416.38 L 487.82 416.62 L 488.42 416.71 L 489.01 416.93 L 489.60 417.01 L 490.19 417.25 L 490.78 417.28 L 491.38 417.57 L 491.97 417.57 L 492.56 417.85 L 493.15 417.85 L 493.74 418.14 L 494.33 418.14 L 494.93 418.43 L 495.52 418.46 L 496.11 418.70 L 496.70 418.79 L 497.29 418.97 L 497.88 419.10 L 498.48 419.27 L 499.07 419.43 L 499.66 419.59 L 500.25 419.80 L 500.84 419.91 L 501.43 420.17 L 502.03 420.22 L 502.62 420.57 L 503.21 420.58 L 503.80 420.96 L 504.39 420.97 L 504.98 421.35 L 505.57 421.35 L 506.17 421.76 L 506.76 421.76 L 507.35 422.17 L 507.94 422.19 L 508.53 422.52 L 509.12 422.60 L 509.72 422.87 L 510.31 422.99 L 510.90 423.25 L 511.49 423.38 L 512.08 423.58 L 512.67 423.74 L 513.27 423.90 L 513.86 424.13 L 514.45 424.26 L 515.04 424.52 L 515.63 424.63 L 516.23 424.89 L 516.82 424.97 L 517.41 425.23 L 518.00 425.28 L 518.59 425.61 L 519.18 425.64 L 519.78 426.02 L 520.37 426.03 L 520.96 426.40 L 521.55 426.41 L 522.14 426.78 L 522.73 426.80 L 523.33 427.19 L 523.92 427.23 L 524.51 427.60 L 525.10 427.70 L 525.69 428.00 L 526.28 428.13 L 526.88 428.40 L 527.47 428.57 L 528.06 428.81 L 528.65 429.05 L 529.24 429.23 L 529.83 429.50 L 530.42 429.61 L 531.02 429.89 L 531.61 429.97 L 532.20 430.30 L 532.79 430.36 L 533.38 430.73 L 533.98 430.75 L 534.57 431.15 L 535.16 431.15 L 535.75 431.53 L 536.34 431.53 L 536.93 431.92 L 537.52 431.93 L 538.12 432.35 L 538.71 432.38 L 539.30 432.77 L 539.89 432.83 L 540.48 433.17 L 541.08 433.24 L 541.67 433.58 L 542.26 433.70 L 542.85 434.01 L 543.44 434.20 L 544.03 434.44 L 544.62 434.65 L 545.22 434.83 L 545.81 435.08 L 546.40 435.22 L 546.99 435.54 L 547.58 435.64 L 548.17 435.97 L 548.77 436.03 L 549.36 436.37 L 549.95 436.40 L 550.54 436.80 L 551.13 436.81 L 551.72 437.24 L 552.32 437.24 L 552.91 437.66 L 553.50 437.66 L 554.09 438.05 L 554.68 438.06 L 555.27 438.46 L 555.87 438.48 L 556.46 438.86 L 557.05 438.89 L 557.64 439.26 L 558.23 439.32 L 558.83 439.67 L 559.42 439.74 L 560.01 440.04 L 560.60 440.14 L 561.19 440.42 L 561.78 440.56 L 562.38 440.79 L 562.97 440.96 L 563.56 441.15 L 564.15 441.35 L 564.74 441.51 L 565.33 441.74 L 565.92 441.86 L 566.52 442.17 L 567.11 442.20 L 567.70 442.54 L 568.29 442.54 L 568.88 442.87 L 569.47 442.88 L 570.07 443.22 L 570.66 443.22 L 571.25 443.58 L 571.84 443.60 L 572.43 443.91 L 573.02 443.96 L 573.62 444.22 L 574.21 444.29 L 574.80 444.52 L 575.39 444.62 L 575.98 444.84 L 576.58 444.98 L 577.17 445.14 L 577.76 445.29 L 578.35 445.43 L 578.94 445.61 L 579.53 445.74 L 580.12 445.99 L 580.72 446.06 L 581.31 446.37 L 581.90 446.40 L 582.49 446.72 L 583.08 446.73 L 583.67 447.08 L 584.27 447.09 L 584.86 447.46 L 585.45 447.47 L 586.04 447.83 L 586.63 447.88 L 587.23 448.19 L 587.82 448.30 L 588.41 448.55 L 589.00 448.69 L 589.59 448.90 L 590.18 449.08 L 590.78 449.26 L 591.37 449.51 L 591.96 449.61 L 592.55 449.94 L 593.14 450.00 L 593.73 450.33 L 594.33 450.37 L 594.92 450.75 L 595.51 450.76 L 596.10 451.18 L 596.69 451.18 L 597.28 451.59 L 597.88 451.59 L 598.47 452.00 L 599.06 452.00 L 599.65 452.42 L 600.24 452.47 L 600.83 452.85 L 601.42 452.96 L 602.02 453.27 L 602.61 453.42 L 603.20 453.67 L 603.79 453.82 L 604.38 454.08 L 604.98 454.26 L 605.57 454.50 L 606.16 454.76 L 606.75 454.91 L 607.34 455.21 L 607.93 455.32 L 608.52 455.66 L 609.12 455.74 L 609.71 456.15 L 610.30 456.18 L 610.89 456.64 L 611.48 456.64 L 612.08 457.11 L 612.67 457.11 L 613.26 457.58 L 613.85 457.59 L 614.44 458.08 L 615.03 458.12 L 615.62 458.57 L 616.22 458.67 L 616.81 459.01 L 617.40 459.13 L 617.99 459.47 L 618.58 459.61 L 619.18 459.95 L 619.77 460.14 L 620.36 460.40 L 620.95 460.66 L 621.54 460.83 L 622.13 461.17 L 622.73 461.30 L 623.32 461.67 L 623.91 461.76 L 624.50 462.17 L 625.09 462.21 L 625.68 462.69 L 626.27 462.73 L 626.87 463.20 L 627.46 463.23 L 628.05 463.71 L 628.64 463.72 L 629.23 464.26 L 629.82 464.26 L 630.42 464.81 L 631.01 464.82 L 631.60 465.31 L 632.19 465.34 L 632.78 465.80 L 633.38 465.88 L 633.97 466.33 L 634.56 466.46 L 635.15 466.82 L 635.74 467.02 L 636.33 467.33 L 636.92 467.56 L 637.52 467.87 L 638.11 468.17 L 638.70 468.36 L 639.29 468.78 L 639.88 468.89 L 640.48 469.32 L 641.07 469.42 L 641.66 469.86 L 642.25 469.92 L 642.84 470.46 L 643.43 470.47 L 644.02 471.05 L 644.62 471.05 L 645.21 471.58 L 645.80 471.59 L 646.39 472.14 L 646.98 472.17 L 647.57 472.72 L 648.17 472.79 L 648.76 473.31 L 649.35 473.43 L 649.94 473.86 L 650.53 474.00 L 651.12 474.46 L 651.72 474.64 L 652.31 475.04 L 652.90 475.31 L 653.49 475.60 L 654.08 475.96 L 654.67 476.19 L 655.27 476.54 L 655.86 476.76 L 656.45 477.16 L 657.04 477.31 L 657.63 477.79 L 658.23 477.86 L 658.82 478.41 L 659.41 478.43 L 660.00 478.99 L 660.59 478.99 L 661.18 479.57 L 661.77 479.57 L 662.37 480.16 L 662.96 480.16 L 663.55 480.75 L 664.14 480.78 L 664.73 481.29 L 665.33 481.33 L 665.92 481.86 L 666.51 481.94 L 667.10 482.45 L 667.69 482.60 L 668.28 483.00 L 668.88 483.24 L 669.47 483.56 L 670.06 483.83 L 670.65 484.13 L 671.24 484.51 L 671.83 484.72 L 672.42 485.23 L 673.02 485.32 L 673.61 485.88 L 674.20 485.95 L 674.79 486.53 L 675.38 486.59 L 675.98 487.23 L 676.57 487.24 L 677.16 487.89 L 677.75 487.89 L 678.34 488.53 L 678.93 488.53 L 679.52 489.15 L 680.12 489.15 L 680.71 489.73 L 681.30 489.77 L 681.89 490.30 L 682.48 490.42 L 683.08 490.87 L 683.67 491.01 L 684.26 491.38 L 684.85 491.56 L 685.44 491.87 L 686.03 492.10 L 686.62 492.45 L 687.22 492.73 L 687.81 492.99 L 688.40 493.37 L 688.99 493.53 L 689.58 493.99 L 690.18 494.10 L 690.77 494.56 L 691.36 494.67 L 691.95 495.17 L 692.54 495.23 L 693.13 495.81 L 693.73 495.82 L 694.32 496.42 L 694.91 496.43 L 695.50 497.02 L 696.09 497.03 L 696.68 497.65 L 697.27 497.65 L 697.87 498.30 L 698.46 498.34 L 699.05 498.88 L 699.64 499.01 L 700.23 499.44 L 700.83 499.63 L 701.42 500.04 L 702.01 500.25 L 702.60 500.62 L 703.19 500.91 L 703.78 501.18 L 704.38 501.56 L 704.97 501.81 L 705.56 502.22 L 706.15 502.39 L 706.74 502.90 L 707.33 502.96 L 707.93 503.59 L 708.52 503.60 L 709.11 504.22 L 709.70 504.23 L 710.29 504.85 L 710.88 504.85 L 711.48 505.48 L 712.07 505.49 L 712.66 506.12 L 713.25 506.13 L 713.84 506.75 L 714.43 506.76 L 715.02 507.37 L 715.62 507.42 L 716.21 507.97 L 716.80 508.09 L 717.39 508.61 L 717.98 508.75 L 718.57 509.22 L 719.17 509.40 L 719.76 509.77 L 720.35 509.98 L 720.94 510.35 L 721.53 510.60 L 722.12 510.93 L 722.72 511.27 L 723.31 511.46 L 723.90 511.92 L 724.49 512.02 L 725.08 512.47 L 725.67 512.61 L 726.27 513.10 L 726.86 513.18 L 727.45 513.72 L 728.04 513.75 L 728.63 514.35 L 729.23 514.37 L 729.82 514.94 L 730.41 514.95 L 731.00 515.58 L 731.59 515.58 L 732.18 516.19 L 732.77 516.26 L 733.37 516.74 L 733.96 516.92 L 734.55 517.31 L 735.14 517.45 L 735.73 517.88 L 736.32 518.07 L 736.92 518.43 L 737.51 518.70 L 738.10 518.92 L 738.69 519.25 L 739.28 519.46 L 739.88 519.76" fill="none" stroke="#2ca02c" stroke-width="2.2" stroke-linejoin="round" stroke-linecap="round"/>
<circle cx="739.9" cy="519.8" r="3.8" fill="#2ca02c" stroke="#ffffff" stroke-width="1.2"/>
<path d="M 92.00 82.00 L 92.59 115.40 L 93.18 140.14 L 93.78 140.99 L 94.37 153.90 L 94.96 156.24 L 95.55 166.63 L 96.14 166.78 L 96.73 174.26 L 97.33 175.93 L 97.92 179.72 L 98.51 182.62 L 99.10 183.72 L 99.69 186.43 L 100.28 186.57 L 100.88 190.31 L 101.47 190.43 L 102.06 193.85 L 102.65 194.06 L 103.24 196.64 L 103.83 197.23 L 104.42 200.05 L 105.02 202.16 L 105.61 204.77 L 106.20 207.17 L 106.79 208.99 L 107.38 210.92 L 107.97 211.77 L 108.57 213.88 L 109.16 214.46 L 109.75 218.07 L 110.34 218.19 L 110.93 221.80 L 111.53 221.84 L 112.12 225.98 L 112.71 225.98 L 113.30 229.48 L 113.89 229.53 L 114.48 232.44 L 115.08 232.72 L 115.67 235.23 L 116.26 235.78 L 116.85 238.13 L 117.44 239.42 L 118.03 241.10 L 118.62 242.98 L 119.22 243.73 L 119.81 245.79 L 120.40 246.22 L 120.99 248.74 L 121.58 248.92 L 122.17 251.77 L 122.77 251.78 L 123.36 254.50 L 123.95 254.55 L 124.54 256.69 L 125.13 256.91 L 125.72 258.70 L 126.32 259.15 L 126.91 260.86 L 127.50 261.67 L 128.09 263.05 L 128.68 264.32 L 129.28 265.27 L 129.87 266.83 L 130.46 267.41 L 131.05 269.20 L 131.64 269.51 L 132.23 271.50 L 132.82 271.57 L 133.42 273.52 L 134.01 273.52 L 134.60 275.40 L 135.19 275.42 L 135.78 277.12 L 136.38 277.26 L 136.97 278.72 L 137.56 279.00 L 138.15 280.33 L 138.74 280.77 L 139.33 281.93 L 139.93 282.72 L 140.52 283.52 L 141.11 284.61 L 141.70 285.03 L 142.29 286.15 L 142.88 286.40 L 143.47 287.69 L 144.07 287.82 L 144.66 289.29 L 145.25 289.33 L 145.84 290.76 L 146.43 290.76 L 147.03 292.13 L 147.62 292.14 L 148.21 293.51 L 148.80 293.62 L 149.39 294.88 L 149.98 295.13 L 150.57 296.10 L 151.17 296.43 L 151.76 297.18 L 152.35 297.64 L 152.94 298.23 L 153.53 298.82 L 154.12 299.23 L 154.72 299.86 L 155.31 300.14 L 155.90 300.80 L 156.49 300.96 L 157.08 301.66 L 157.68 301.70 L 158.27 302.41 L 158.86 302.42 L 159.45 303.03 L 160.04 303.03 L 160.63 303.57 L 161.23 303.58 L 161.82 304.06 L 162.41 304.09 L 163.00 304.49 L 163.59 304.53 L 164.18 304.87 L 164.77 304.94 L 165.37 305.21 L 165.96 305.33 L 166.55 305.54 L 167.14 305.69 L 167.73 305.84 L 168.32 305.99 L 168.92 306.10 L 169.51 306.27 L 170.10 306.35 L 170.69 306.55 L 171.28 306.59 L 171.88 306.80 L 172.47 306.82 L 173.06 307.02 L 173.65 307.03 L 174.24 307.22 L 174.83 307.22 L 175.43 307.40 L 176.02 307.41 L 176.61 307.55 L 177.20 307.56 L 177.79 307.69 L 178.38 307.70 L 178.97 307.80 L 179.57 307.83 L 180.16 307.90 L 180.75 307.94 L 181.34 308.00 L 181.93 308.04 L 182.53 308.08 L 183.12 308.12 L 183.71 308.15 L 184.30 308.20 L 184.89 308.21 L 185.48 308.26 L 186.07 308.27 L 186.67 308.33 L 187.26 308.33 L 187.85 308.39 L 188.44 308.39 L 189.03 308.45 L 189.62 308.45 L 190.22 308.51 L 190.81 308.51 L 191.40 308.58 L 191.99 308.58 L 192.58 308.66 L 193.18 308.66 L 193.77 308.73 L 194.36 308.73 L 194.95 308.81 L 195.54 308.82 L 196.13 308.90 L 196.72 308.92 L 197.32 309.01 L 197.91 309.03 L 198.50 309.12 L 199.09 309.17 L 199.68 309.25 L 200.27 309.32 L 200.87 309.39 L 201.46 309.48 L 202.05 309.55 L 202.64 309.68 L 203.23 309.72 L 203.82 309.90 L 204.42 309.93 L 205.01 310.14 L 205.60 310.15 L 206.19 310.39 L 206.78 310.40 L 207.38 310.68 L 207.97 310.68 L 208.56 310.97 L 209.15 310.98 L 209.74 311.27 L 210.33 311.30 L 210.93 311.57 L 211.52 311.64 L 212.11 311.89 L 212.70 312.01 L 213.29 312.22 L 213.88 312.39 L 214.47 312.56 L 215.07 312.79 L 215.66 312.93 L 216.25 313.20 L 216.84 313.29 L 217.43 313.58 L 218.02 313.63 L 218.62 313.97 L 219.21 313.99 L 219.80 314.36 L 220.39 314.36 L 220.98 314.75 L 221.57 314.75 L 222.17 315.13 L 222.76 315.13 L 223.35 315.52 L 223.94 315.53 L 224.53 315.92 L 225.12 315.95 L 225.72 316.29 L 226.31 316.34 L 226.90 316.67 L 227.49 316.76 L 228.08 317.06 L 228.68 317.20 L 229.27 317.46 L 229.86 317.64 L 230.45 317.87 L 231.04 318.09 L 231.63 318.27 L 232.22 318.54 L 232.82 318.68 L 233.41 319.02 L 234.00 319.13 L 234.59 319.52 L 235.18 319.59 L 235.78 320.04 L 236.37 320.08 L 236.96 320.59 L 237.55 320.61 L 238.14 321.18 L 238.73 321.18 L 239.32 321.80 L 239.92 321.80 L 240.51 322.44 L 241.10 322.47 L 241.69 323.14 L 242.28 323.21 L 242.88 323.87 L 243.47 324.01 L 244.06 324.63 L 244.65 324.87 L 245.24 325.45 L 245.83 325.79 L 246.43 326.29 L 247.02 326.80 L 247.61 327.20 L 248.20 327.86 L 248.79 328.15 L 249.38 328.92 L 249.97 329.10 L 250.57 330.01 L 251.16 330.10 L 251.75 331.09 L 252.34 331.11 L 252.93 332.10 L 253.53 332.10 L 254.12 333.04 L 254.71 333.04 L 255.30 333.95 L 255.89 333.99 L 256.48 334.82 L 257.08 334.92 L 257.67 335.64 L 258.26 335.79 L 258.85 336.46 L 259.44 336.70 L 260.03 337.25 L 260.62 337.60 L 261.22 338.04 L 261.81 338.46 L 262.40 338.81 L 262.99 339.29 L 263.58 339.58 L 264.17 340.17 L 264.77 340.36 L 265.36 341.05 L 265.95 341.16 L 266.54 341.93 L 267.13 342.00 L 267.73 342.85 L 268.32 342.87 L 268.91 343.79 L 269.50 343.79 L 270.09 344.71 L 270.68 344.72 L 271.27 345.64 L 271.87 345.68 L 272.46 346.65 L 273.05 346.77 L 273.64 347.64 L 274.23 347.86 L 274.83 348.63 L 275.42 348.96 L 276.01 349.63 L 276.60 350.10 L 277.19 350.61 L 277.78 351.19 L 278.38 351.56 L 278.97 352.21 L 279.56 352.46 L 280.15 353.20 L 280.74 353.34 L 281.33 354.16 L 281.93 354.22 L 282.52 355.03 L 283.11 355.05 L 283.70 355.86 L 284.29 355.86 L 284.88 356.66 L 285.48 356.67 L 286.07 357.34 L 286.66 357.38 L 287.25 357.95 L 287.84 358.03 L 288.43 358.51 L 289.02 358.65 L 289.62 359.06 L 290.21 359.27 L 290.80 359.58 L 291.39 359.83 L 291.98 360.06 L 292.57 360.37 L 293.17 360.53 L 293.76 360.90 L 294.35 361.01 L 294.94 361.40 L 295.53 361.48 L 296.12 361.88 L 296.72 361.93 L 297.31 362.37 L 297.90 362.40 L 298.49 362.89 L 299.08 362.90 L 299.67 363.42 L 300.27 363.42 L 300.86 363.95 L 301.45 363.96 L 302.04 364.48 L 302.63 364.51 L 303.23 365.01 L 303.82 365.09 L 304.41 365.53 L 305.00 365.64 L 305.59 366.04 L 306.18 366.20 L 306.77 366.55 L 307.37 366.77 L 307.96 367.03 L 308.55 367.33 L 309.14 367.53 L 309.73 367.86 L 310.32 368.00 L 310.92 368.37 L 311.51 368.46 L 312.10 368.88 L 312.69 368.92 L 313.28 369.35 L 313.88 369.36 L 314.47 369.80 L 315.06 369.81 L 315.65 370.25 L 316.24 370.25 L 316.83 370.67 L 317.43 370.69 L 318.02 371.06 L 318.61 371.09 L 319.20 371.43 L 319.79 371.49 L 320.38 371.79 L 320.98 371.89 L 321.57 372.13 L 322.16 372.26 L 322.75 372.45 L 323.34 372.61 L 323.93 372.76 L 324.52 372.96 L 325.12 373.06 L 325.71 373.28 L 326.30 373.35 L 326.89 373.58 L 327.48 373.62 L 328.08 373.87 L 328.67 373.89 L 329.26 374.15 L 329.85 374.15 L 330.44 374.40 L 331.03 374.40 L 331.62 374.63 L 332.22 374.63 L 332.81 374.85 L 333.40 374.86 L 333.99 375.06 L 334.58 375.08 L 335.18 375.26 L 335.77 375.30 L 336.36 375.46 L 336.95 375.52 L 337.54 375.67 L 338.13 375.73 L 338.73 375.86 L 339.32 375.94 L 339.91 376.04 L 340.50 376.15 L 341.09 376.24 L 341.68 376.37 L 342.27 376.43 L 342.87 376.58 L 343.46 376.62 L 344.05 376.79 L 344.64 376.83 L 345.23 377.01 L 345.82 377.03 L 346.42 377.24 L 347.01 377.24 L 347.60 377.45 L 348.19 377.46 L 348.78 377.68 L 349.38 377.68 L 349.97 377.91 L 350.56 377.91 L 351.15 378.14 L 351.74 378.15 L 352.33 378.38 L 352.93 378.40 L 353.52 378.61 L 354.11 378.65 L 354.70 378.84 L 355.29 378.91 L 355.88 379.07 L 356.48 379.16 L 357.07 379.29 L 357.66 379.41 L 358.25 379.52 L 358.84 379.66 L 359.43 379.74 L 360.02 379.89 L 360.62 379.95 L 361.21 380.12 L 361.80 380.15 L 362.39 380.35 L 362.98 380.36 L 363.57 380.55 L 364.17 380.55 L 364.76 380.73 L 365.35 380.73 L 365.94 380.90 L 366.53 380.90 L 367.12 381.06 L 367.72 381.07 L 368.31 381.20 L 368.90 381.22 L 369.49 381.33 L 370.08 381.36 L 370.68 381.47 L 371.27 381.50 L 371.86 381.59 L 372.45 381.64 L 373.04 381.71 L 373.63 381.77 L 374.23 381.83 L 374.82 381.90 L 375.41 381.95 L 376.00 382.04 L 376.59 382.07 L 377.18 382.17 L 377.78 382.20 L 378.37 382.31 L 378.96 382.33 L 379.55 382.47 L 380.14 382.48 L 380.73 382.62 L 381.32 382.63 L 381.92 382.79 L 382.51 382.79 L 383.10 382.96 L 383.69 382.96 L 384.28 383.15 L 384.88 383.16 L 385.47 383.34 L 386.06 383.37 L 386.65 383.55 L 387.24 383.61 L 387.83 383.77 L 388.43 383.87 L 389.02 383.99 L 389.61 384.12 L 390.20 384.22 L 390.79 384.38 L 391.38 384.46 L 391.97 384.65 L 392.57 384.70 L 393.16 384.92 L 393.75 384.94 L 394.34 385.18 L 394.93 385.18 L 395.52 385.43 L 396.12 385.43 L 396.71 385.65 L 397.30 385.66 L 397.89 385.87 L 398.48 385.88 L 399.07 386.08 L 399.67 386.10 L 400.26 386.27 L 400.85 386.31 L 401.44 386.47 L 402.03 386.52 L 402.62 386.66 L 403.22 386.73 L 403.81 386.84 L 404.40 386.94 L 404.99 387.03 L 405.58 387.15 L 406.18 387.22 L 406.77 387.37 L 407.36 387.41 L 407.95 387.59 L 408.54 387.61 L 409.13 387.81 L 409.73 387.82 L 410.32 388.03 L 410.91 388.03 L 411.50 388.27 L 412.09 388.27 L 412.68 388.49 L 413.28 388.50 L 413.87 388.72 L 414.46 388.73 L 415.05 388.95 L 415.64 388.98 L 416.23 389.18 L 416.82 389.24 L 417.42 389.42 L 418.01 389.50 L 418.60 389.66 L 419.19 389.78 L 419.78 389.91 L 420.38 390.07 L 420.97 390.17 L 421.56 390.37 L 422.15 390.44 L 422.74 390.66 L 423.33 390.71 L 423.93 390.98 L 424.52 391.01 L 425.11 391.31 L 425.70 391.32 L 426.29 391.64 L 426.88 391.65 L 427.47 391.97 L 428.07 391.97 L 428.66 392.32 L 429.25 392.32 L 429.84 392.67 L 430.43 392.68 L 431.02 393.01 L 431.62 393.05 L 432.21 393.36 L 432.80 393.43 L 433.39 393.71 L 433.98 393.82 L 434.57 394.07 L 435.17 394.22 L 435.76 394.42 L 436.35 394.60 L 436.94 394.75 L 437.53 394.99 L 438.12 395.09 L 438.72 395.35 L 439.31 395.42 L 439.90 395.71 L 440.49 395.75 L 441.08 396.08 L 441.68 396.09 L 442.27 396.42 L 442.86 396.43 L 443.45 396.76 L 444.04 396.76 L 444.63 397.09 L 445.23 397.10 L 445.82 397.41 L 446.41 397.44 L 447.00 397.74 L 447.59 397.78 L 448.18 398.05 L 448.77 398.13 L 449.37 398.38 L 449.96 398.49 L 450.55 398.72 L 451.14 398.86 L 451.73 399.04 L 452.32 399.22 L 452.92 399.37 L 453.51 399.59 L 454.10 399.72 L 454.69 399.98 L 455.28 400.07 L 455.87 400.37 L 456.47 400.43 L 457.06 400.78 L 457.65 400.82 L 458.24 401.22 L 458.83 401.24 L 459.42 401.65 L 460.02 401.66 L 460.61 402.09 L 461.20 402.09 L 461.79 402.56 L 462.38 402.56 L 462.97 403.02 L 463.57 403.04 L 464.16 403.49 L 464.75 403.54 L 465.34 403.96 L 465.93 404.05 L 466.52 404.43 L 467.12 404.59 L 467.71 404.90 L 468.30 405.11 L 468.89 405.35 L 469.48 405.62 L 470.07 405.80 L 470.67 406.13 L 471.26 406.27 L 471.85 406.64 L 472.44 406.72 L 473.03 407.12 L 473.62 407.16 L 474.22 407.59 L 474.81 407.60 L 475.40 408.05 L 475.99 408.05 L 476.58 408.48 L 477.18 408.48 L 477.77 408.89 L 478.36 408.91 L 478.95 409.30 L 479.54 409.32 L 480.13 409.69 L 480.72 409.73 L 481.32 410.05 L 481.91 410.13 L 482.50 410.42 L 483.09 410.53 L 483.68 410.77 L 484.27 410.91 L 484.87 411.10 L 485.46 411.28 L 486.05 411.42 L 486.64 411.64 L 487.23 411.75 L 487.82 412.02 L 488.42 412.09 L 489.01 412.39 L 489.60 412.43 L 490.19 412.75 L 490.78 412.77 L 491.38 413.11 L 491.97 413.11 L 492.56 413.45 L 493.15 413.45 L 493.74 413.80 L 494.33 413.80 L 494.93 414.13 L 495.52 414.14 L 496.11 414.46 L 496.70 414.49 L 497.29 414.79 L 497.88 414.86 L 498.48 415.12 L 499.07 415.22 L 499.66 415.43 L 500.25 415.57 L 500.84 415.76 L 501.43 415.92 L 502.03 416.08 L 502.62 416.27 L 503.21 416.40 L 503.80 416.64 L 504.39 416.73 L 504.98 417.00 L 505.57 417.08 L 506.17 417.37 L 506.76 417.42 L 507.35 417.75 L 507.94 417.76 L 508.53 418.12 L 509.12 418.12 L 509.72 418.48 L 510.31 418.48 L 510.90 418.84 L 511.49 418.85 L 512.08 419.20 L 512.67 419.24 L 513.27 419.57 L 513.86 419.64 L 514.45 419.91 L 515.04 420.03 L 515.63 420.26 L 516.23 420.43 L 516.82 420.60 L 517.41 420.82 L 518.00 420.93 L 518.59 421.19 L 519.18 421.25 L 519.78 421.54 L 520.37 421.57 L 520.96 421.88 L 521.55 421.89 L 522.14 422.19 L 522.73 422.19 L 523.33 422.48 L 523.92 422.48 L 524.51 422.75 L 525.10 422.76 L 525.69 423.01 L 526.28 423.03 L 526.88 423.25 L 527.47 423.29 L 528.06 423.47 L 528.65 423.55 L 529.24 423.69 L 529.83 423.80 L 530.42 423.90 L 531.02 424.05 L 531.61 424.11 L 532.20 424.29 L 532.79 424.32 L 533.38 424.53 L 533.98 424.54 L 534.57 424.77 L 535.16 424.77 L 535.75 425.02 L 536.34 425.02 L 536.93 425.26 L 537.52 425.28 L 538.12 425.51 L 538.71 425.55 L 539.30 425.77 L 539.89 425.84 L 540.48 426.04 L 541.08 426.15 L 541.67 426.31 L 542.26 426.46 L 542.85 426.60 L 543.44 426.80 L 544.03 426.89 L 544.62 427.15 L 545.22 427.19 L 545.81 427.50 L 546.40 427.52 L 546.99 427.85 L 547.58 427.86 L 548.17 428.21 L 548.77 428.21 L 549.36 428.57 L 549.95 428.57 L 550.54 428.93 L 551.13 428.94 L 551.72 429.30 L 552.32 429.33 L 552.91 429.67 L 553.50 429.72 L 554.09 430.03 L 554.68 430.12 L 555.27 430.37 L 555.87 430.53 L 556.46 430.73 L 557.05 430.95 L 557.64 431.10 L 558.23 431.35 L 558.83 431.46 L 559.42 431.76 L 560.01 431.83 L 560.60 432.16 L 561.19 432.21 L 561.78 432.57 L 562.38 432.59 L 562.97 432.95 L 563.56 432.95 L 564.15 433.33 L 564.74 433.33 L 565.33 433.69 L 565.92 433.70 L 566.52 434.05 L 567.11 434.06 L 567.70 434.40 L 568.29 434.43 L 568.88 434.76 L 569.47 434.80 L 570.07 435.11 L 570.66 435.16 L 571.25 435.43 L 571.84 435.52 L 572.43 435.76 L 573.02 435.88 L 573.62 436.10 L 574.21 436.24 L 574.80 436.43 L 575.39 436.61 L 575.98 436.76 L 576.58 436.99 L 577.17 437.10 L 577.76 437.39 L 578.35 437.45 L 578.94 437.77 L 579.53 437.80 L 580.12 438.16 L 580.72 438.17 L 581.31 438.57 L 581.90 438.58 L 582.49 438.99 L 583.08 438.99 L 583.67 439.41 L 584.27 439.42 L 584.86 439.85 L 585.45 439.87 L 586.04 440.30 L 586.63 440.35 L 587.23 440.75 L 587.82 440.83 L 588.41 441.20 L 589.00 441.32 L 589.59 441.67 L 590.18 441.85 L 590.78 442.14 L 591.37 442.38 L 591.96 442.60 L 592.55 442.93 L 593.14 443.08 L 593.73 443.46 L 594.33 443.55 L 594.92 443.98 L 595.51 444.03 L 596.10 444.48 L 596.69 444.51 L 597.28 444.99 L 597.88 444.99 L 598.47 445.48 L 599.06 445.48 L 599.65 445.97 L 600.24 445.97 L 600.83 446.44 L 601.42 446.46 L 602.02 446.90 L 602.61 446.95 L 603.20 447.35 L 603.79 447.44 L 604.38 447.81 L 604.98 447.93 L 605.57 448.26 L 606.16 448.43 L 606.75 448.71 L 607.34 448.93 L 607.93 449.17 L 608.52 449.44 L 609.12 449.63 L 609.71 449.95 L 610.30 450.09 L 610.89 450.47 L 611.48 450.54 L 612.08 450.97 L 612.67 451.01 L 613.26 451.47 L 613.85 451.49 L 614.44 451.96 L 615.03 451.97 L 615.62 452.45 L 616.22 452.46 L 616.81 452.93 L 617.40 452.94 L 617.99 453.38 L 618.58 453.42 L 619.18 453.82 L 619.77 453.90 L 620.36 454.27 L 620.95 454.38 L 621.54 454.72 L 622.13 454.86 L 622.73 455.17 L 623.32 455.35 L 623.91 455.59 L 624.50 455.83 L 625.09 456.00 L 625.68 456.30 L 626.27 456.43 L 626.87 456.77 L 627.46 456.85 L 628.05 457.23 L 628.64 457.27 L 629.23 457.66 L 629.82 457.68 L 630.42 458.09 L 631.01 458.10 L 631.60 458.52 L 632.19 458.53 L 632.78 458.92 L 633.38 458.95 L 633.97 459.31 L 634.56 459.36 L 635.15 459.71 L 635.74 459.80 L 636.33 460.10 L 636.92 460.25 L 637.52 460.47 L 638.11 460.69 L 638.70 460.86 L 639.29 461.12 L 639.88 461.26 L 640.48 461.56 L 641.07 461.64 L 641.66 461.99 L 642.25 462.01 L 642.84 462.39 L 643.43 462.40 L 644.02 462.80 L 644.62 462.80 L 645.21 463.19 L 645.80 463.21 L 646.39 463.58 L 646.98 463.64 L 647.57 463.96 L 648.17 464.05 L 648.76 464.33 L 649.35 464.47 L 649.94 464.69 L 650.53 464.87 L 651.12 465.05 L 651.72 465.27 L 652.31 465.40 L 652.90 465.68 L 653.49 465.76 L 654.08 466.07 L 654.67 466.12 L 655.27 466.44 L 655.86 466.46 L 656.45 466.81 L 657.04 466.81 L 657.63 467.18 L 658.23 467.18 L 658.82 467.54 L 659.41 467.54 L 660.00 467.89 L 660.59 467.92 L 661.18 468.25 L 661.77 468.31 L 662.37 468.61 L 662.96 468.71 L 663.55 468.96 L 664.14 469.12 L 664.73 469.34 L 665.33 469.55 L 665.92 469.74 L 666.51 470.00 L 667.10 470.12 L 667.69 470.45 L 668.28 470.55 L 668.88 470.91 L 669.47 471.00 L 670.06 471.39 L 670.65 471.44 L 671.24 471.88 L 671.83 471.90 L 672.42 472.38 L 673.02 472.38 L 673.61 472.88 L 674.20 472.88 L 674.79 473.38 L 675.38 473.41 L 675.98 473.89 L 676.57 473.96 L 677.16 474.43 L 677.75 474.52 L 678.34 474.94 L 678.93 475.09 L 679.52 475.46 L 680.12 475.66 L 680.71 475.99 L 681.30 476.24 L 681.89 476.48 L 682.48 476.81 L 683.08 477.00 L 683.67 477.38 L 684.26 477.53 L 684.85 477.95 L 685.44 478.04 L 686.03 478.53 L 686.62 478.57 L 687.22 479.10 L 687.81 479.13 L 688.40 479.65 L 688.99 479.67 L 689.58 480.20 L 690.18 480.20 L 690.77 480.76 L 691.36 480.77 L 691.95 481.33 L 692.54 481.34 L 693.13 481.88 L 693.73 481.91 L 694.32 482.43 L 694.91 482.50 L 695.50 482.98 L 696.09 483.09 L 696.68 483.50 L 697.27 483.70 L 697.87 484.04 L 698.46 484.30 L 699.05 484.63 L 699.64 484.92 L 700.23 485.20 L 700.83 485.56 L 701.42 485.75 L 702.01 486.20 L 702.60 486.33 L 703.19 486.82 L 703.78 486.92 L 704.38 487.43 L 704.97 487.48 L 705.56 488.03 L 706.15 488.05 L 706.74 488.66 L 707.33 488.66 L 707.93 489.27 L 708.52 489.27 L 709.11 489.85 L 709.70 489.85 L 710.29 490.44 L 710.88 490.47 L 711.48 491.03 L 712.07 491.10 L 712.66 491.62 L 713.25 491.73 L 713.84 492.24 L 714.43 492.40 L 715.02 492.88 L 715.62 493.09 L 716.21 493.50 L 716.80 493.76 L 717.39 494.09 L 717.98 494.44 L 718.57 494.71 L 719.17 495.13 L 719.76 495.30 L 720.35 495.78 L 720.94 495.89 L 721.53 496.45 L 722.12 496.52 L 722.72 497.13 L 723.31 497.15 L 723.90 497.77 L 724.49 497.77 L 725.08 498.41 L 725.67 498.41 L 726.27 499.06 L 726.86 499.07 L 727.45 499.68 L 728.04 499.72 L 728.63 500.27 L 729.23 500.35 L 729.82 500.88 L 730.41 500.99 L 731.00 501.47 L 731.59 501.63 L 732.18 501.99 L 732.77 502.24 L 733.37 502.53 L 733.96 502.83 L 734.55 503.08 L 735.14 503.42 L 735.73 503.59 L 736.32 504.00 L 736.92 504.12 L 737.51 504.56 L 738.10 504.68 L 738.69 505.12 L 739.28 505.21 L 739.88 505.68 L 740.47 505.70 L 741.06 506.23 L 741.65 506.24 L 742.24 506.79 L 742.83 506.79 L 743.42 507.34 L 744.02 507.34 L 744.61 507.90 L 745.20 507.92 L 745.79 508.50 L 746.38 508.53 L 746.98 509.10 L 747.57 509.15 L 748.16 509.68 L 748.75 509.76 L 749.34 510.27 L 749.93 510.38 L 750.52 510.86 L 751.12 511.02 L 751.71 511.43 L 752.30 511.66 L 752.89 511.93 L 753.48 512.27 L 754.08 512.49 L 754.67 512.87 L 755.26 513.07 L 755.85 513.46 L 756.44 513.61 L 757.03 514.04 L 757.62 514.13 L 758.22 514.61 L 758.81 514.67 L 759.40 515.16 L 759.99 515.21 L 760.58 515.71 L 761.17 515.73 L 761.77 516.21 L 762.36 516.21 L 762.95 516.72 L 763.54 516.72 L 764.13 517.25 L 764.73 517.26 L 765.32 517.78 L 765.91 517.80 L 766.50 518.29 L 767.09 518.34 L 767.68 518.79 L 768.27 518.88 L 768.87 519.27 L 769.46 519.45 L 770.05 519.76" fill="none" stroke="#9467bd" stroke-width="2.2" stroke-linejoin="round" stroke-linecap="round"/>
<circle cx="770.0" cy="519.8" r="3.8" fill="#9467bd" stroke="#ffffff" stroke-width="1.2"/>
<path d="M 92.00 82.00 L 92.59 118.24 L 93.18 138.53 L 93.78 140.78 L 94.37 152.79 L 94.96 155.46 L 95.55 165.11 L 96.14 165.90 L 96.73 173.32 L 97.33 173.74 L 97.92 178.61 L 98.51 180.92 L 99.10 182.68 L 99.69 184.89 L 100.28 185.22 L 100.88 187.81 L 101.47 187.81 L 102.06 191.05 L 102.65 191.07 L 103.24 193.73 L 103.83 193.93 L 104.42 196.29 L 105.02 197.53 L 105.61 199.86 L 106.20 202.20 L 106.79 204.64 L 107.38 206.98 L 107.97 208.25 L 108.57 210.36 L 109.16 210.82 L 109.75 213.35 L 110.34 213.49 L 110.93 216.44 L 111.53 216.46 L 112.12 219.68 L 112.71 219.68 L 113.30 223.09 L 113.89 223.21 L 114.48 226.09 L 115.08 226.42 L 115.67 228.77 L 116.26 229.35 L 116.85 231.28 L 117.44 232.20 L 118.03 233.77 L 118.62 235.41 L 119.22 236.09 L 119.81 237.98 L 120.40 238.21 L 120.99 240.21 L 121.58 240.32 L 122.17 242.75 L 122.77 242.75 L 123.36 245.21 L 123.95 245.23 L 124.54 247.47 L 125.13 247.66 L 125.72 249.40 L 126.32 249.82 L 126.91 251.23 L 127.50 252.11 L 128.09 252.93 L 128.68 254.02 L 129.28 254.63 L 129.87 256.09 L 130.46 256.51 L 131.05 258.32 L 131.64 258.49 L 132.23 260.46 L 132.82 260.47 L 133.42 262.31 L 134.01 262.33 L 134.60 264.06 L 135.19 264.14 L 135.78 265.74 L 136.38 266.04 L 136.97 267.30 L 137.56 267.82 L 138.15 268.75 L 138.74 269.40 L 139.33 270.08 L 139.93 270.94 L 140.52 271.43 L 141.11 272.52 L 141.70 272.78 L 142.29 274.08 L 142.88 274.16 L 143.47 275.54 L 144.07 275.55 L 144.66 276.92 L 145.25 276.92 L 145.84 278.13 L 146.43 278.17 L 147.03 279.24 L 147.62 279.37 L 148.21 280.38 L 148.80 280.65 L 149.39 281.58 L 149.98 282.00 L 150.57 282.72 L 151.17 283.26 L 151.76 283.84 L 152.35 284.51 L 152.94 284.97 L 153.53 285.84 L 154.12 286.12 L 154.72 287.09 L 155.31 287.23 L 155.90 288.18 L 156.49 288.26 L 157.08 289.29 L 157.68 289.31 L 158.27 290.48 L 158.86 290.49 L 159.45 291.65 L 160.04 291.70 L 160.63 292.73 L 161.23 292.84 L 161.82 293.73 L 162.41 293.97 L 163.00 294.69 L 163.59 295.06 L 164.18 295.59 L 164.77 296.05 L 165.37 296.44 L 165.96 297.03 L 166.55 297.27 L 167.14 297.97 L 167.73 298.09 L 168.32 298.84 L 168.92 298.89 L 169.51 299.63 L 170.10 299.64 L 170.69 300.37 L 171.28 300.37 L 171.88 301.04 L 172.47 301.07 L 173.06 301.63 L 173.65 301.69 L 174.24 302.19 L 174.83 302.27 L 175.43 302.71 L 176.02 302.85 L 176.61 303.19 L 177.20 303.38 L 177.79 303.64 L 178.38 303.88 L 178.97 304.07 L 179.57 304.36 L 180.16 304.48 L 180.75 304.83 L 181.34 304.90 L 181.93 305.25 L 182.53 305.29 L 183.12 305.64 L 183.71 305.66 L 184.30 306.02 L 184.89 306.02 L 185.48 306.38 L 186.07 306.38 L 186.67 306.72 L 187.26 306.74 L 187.85 307.03 L 188.44 307.06 L 189.03 307.30 L 189.62 307.36 L 190.22 307.55 L 190.81 307.63 L 191.40 307.77 L 191.99 307.87 L 192.58 307.98 L 193.18 308.10 L 193.77 308.17 L 194.36 308.31 L 194.95 308.34 L 195.54 308.48 L 196.13 308.50 L 196.72 308.63 L 197.32 308.64 L 197.91 308.77 L 198.50 308.77 L 199.09 308.88 L 199.68 308.88 L 200.27 308.98 L 200.87 308.98 L 201.46 309.07 L 202.05 309.08 L 202.64 309.16 L 203.23 309.17 L 203.82 309.23 L 204.42 309.25 L 205.01 309.30 L 205.60 309.32 L 206.19 309.36 L 206.78 309.39 L 207.38 309.42 L 207.97 309.45 L 208.56 309.47 L 209.15 309.52 L 209.74 309.53 L 210.33 309.58 L 210.93 309.58 L 211.52 309.63 L 212.11 309.64 L 212.70 309.69 L 213.29 309.69 L 213.88 309.75 L 214.47 309.75 L 215.07 309.81 L 215.66 309.81 L 216.25 309.86 L 216.84 309.87 L 217.43 309.93 L 218.02 309.94 L 218.62 309.99 L 219.21 310.01 L 219.80 310.07 L 220.39 310.10 L 220.98 310.15 L 221.57 310.20 L 222.17 310.25 L 222.76 310.31 L 223.35 310.35 L 223.94 310.43 L 224.53 310.46 L 225.12 310.57 L 225.72 310.59 L 226.31 310.74 L 226.90 310.75 L 227.49 310.93 L 228.08 310.93 L 228.68 311.14 L 229.27 311.15 L 229.86 311.38 L 230.45 311.39 L 231.04 311.63 L 231.63 311.66 L 232.22 311.92 L 232.82 311.98 L 233.41 312.24 L 234.00 312.34 L 234.59 312.58 L 235.18 312.75 L 235.78 312.95 L 236.37 313.20 L 236.96 313.37 L 237.55 313.70 L 238.14 313.84 L 238.73 314.27 L 239.32 314.35 L 239.92 314.88 L 240.51 314.91 L 241.10 315.49 L 241.69 315.50 L 242.28 316.14 L 242.88 316.14 L 243.47 316.85 L 244.06 316.87 L 244.65 317.60 L 245.24 317.66 L 245.83 318.38 L 246.43 318.51 L 247.02 319.19 L 247.61 319.43 L 248.20 320.04 L 248.79 320.44 L 249.38 320.92 L 249.97 321.48 L 250.57 321.83 L 251.16 322.52 L 251.75 322.79 L 252.34 323.64 L 252.93 323.80 L 253.53 324.80 L 254.12 324.85 L 254.71 325.97 L 255.30 325.98 L 255.89 327.15 L 256.48 327.15 L 257.08 328.27 L 257.67 328.31 L 258.26 329.36 L 258.85 329.48 L 259.44 330.44 L 260.03 330.67 L 260.62 331.51 L 261.22 331.89 L 261.81 332.52 L 262.40 333.05 L 262.99 333.50 L 263.58 334.14 L 264.17 334.47 L 264.77 335.21 L 265.36 335.41 L 265.95 336.21 L 266.54 336.29 L 267.13 337.09 L 267.73 337.11 L 268.32 337.90 L 268.91 337.91 L 269.50 338.69 L 270.09 338.70 L 270.68 339.42 L 271.27 339.45 L 271.87 340.07 L 272.46 340.15 L 273.05 340.70 L 273.64 340.83 L 274.23 341.31 L 274.83 341.50 L 275.42 341.89 L 276.01 342.16 L 276.60 342.46 L 277.19 342.80 L 277.78 343.04 L 278.38 343.44 L 278.97 343.60 L 279.56 344.07 L 280.15 344.16 L 280.74 344.70 L 281.33 344.75 L 281.93 345.35 L 282.52 345.36 L 283.11 346.01 L 283.70 346.01 L 284.29 346.67 L 284.88 346.67 L 285.48 347.33 L 286.07 347.35 L 286.66 348.01 L 287.25 348.09 L 287.84 348.71 L 288.43 348.86 L 289.02 349.44 L 289.62 349.68 L 290.21 350.20 L 290.80 350.54 L 291.39 350.98 L 291.98 351.47 L 292.57 351.79 L 293.17 352.41 L 293.76 352.63 L 294.35 353.36 L 294.94 353.49 L 295.53 354.33 L 296.12 354.39 L 296.72 355.29 L 297.31 355.31 L 297.90 356.24 L 298.49 356.24 L 299.08 357.18 L 299.67 357.20 L 300.27 358.08 L 300.86 358.15 L 301.45 358.93 L 302.04 359.08 L 302.63 359.74 L 303.23 359.99 L 303.82 360.50 L 304.41 360.84 L 305.00 361.22 L 305.59 361.64 L 306.18 361.92 L 306.77 362.40 L 307.37 362.58 L 307.96 363.12 L 308.55 363.22 L 309.14 363.79 L 309.73 363.84 L 310.32 364.40 L 310.92 364.41 L 311.51 364.97 L 312.10 364.97 L 312.69 365.50 L 313.28 365.50 L 313.88 366.00 L 314.47 366.03 L 315.06 366.47 L 315.65 366.52 L 316.24 366.93 L 316.83 367.02 L 317.43 367.37 L 318.02 367.50 L 318.61 367.78 L 319.20 367.96 L 319.79 368.18 L 320.38 368.40 L 320.98 368.56 L 321.57 368.82 L 322.16 368.93 L 322.75 369.22 L 323.34 369.28 L 323.93 369.60 L 324.52 369.64 L 325.12 369.98 L 325.71 369.99 L 326.30 370.33 L 326.89 370.33 L 327.48 370.66 L 328.08 370.66 L 328.67 370.97 L 329.26 370.98 L 329.85 371.27 L 330.44 371.30 L 331.03 371.56 L 331.62 371.61 L 332.22 371.85 L 332.81 371.92 L 333.40 372.12 L 333.99 372.24 L 334.58 372.39 L 335.18 372.55 L 335.77 372.65 L 336.36 372.84 L 336.95 372.91 L 337.54 373.12 L 338.13 373.16 L 338.73 373.40 L 339.32 373.42 L 339.91 373.67 L 340.50 373.67 L 341.09 373.92 L 341.68 373.92 L 342.27 374.17 L 342.87 374.18 L 343.46 374.41 L 344.05 374.43 L 344.64 374.64 L 345.23 374.68 L 345.82 374.87 L 346.42 374.92 L 347.01 375.08 L 347.60 375.17 L 348.19 375.30 L 348.78 375.41 L 349.38 375.51 L 349.97 375.65 L 350.56 375.73 L 351.15 375.89 L 351.74 375.94 L 352.33 376.13 L 352.93 376.16 L 353.52 376.36 L 354.11 376.37 L 354.70 376.59 L 355.29 376.59 L 355.88 376.81 L 356.48 376.81 L 357.07 377.03 L 357.66 377.04 L 358.25 377.24 L 358.84 377.26 L 359.43 377.45 L 360.02 377.48 L 360.62 377.65 L 361.21 377.70 L 361.80 377.84 L 362.39 377.91 L 362.98 378.02 L 363.57 378.12 L 364.17 378.20 L 364.76 378.32 L 365.35 378.38 L 365.94 378.52 L 366.53 378.56 L 367.12 378.72 L 367.72 378.74 L 368.31 378.91 L 368.90 378.91 L 369.49 379.09 L 370.08 379.09 L 370.68 379.26 L 371.27 379.26 L 371.86 379.42 L 372.45 379.43 L 373.04 379.58 L 373.63 379.60 L 374.23 379.74 L 374.82 379.76 L 375.41 379.89 L 376.00 379.93 L 376.59 380.03 L 377.18 380.09 L 377.78 380.17 L 378.37 380.25 L 378.96 380.32 L 379.55 380.41 L 380.14 380.45 L 380.73 380.56 L 381.32 380.59 L 381.92 380.72 L 382.51 380.73 L 383.10 380.86 L 383.69 380.87 L 384.28 381.00 L 384.88 381.01 L 385.47 381.15 L 386.06 381.15 L 386.65 381.29 L 387.24 381.29 L 387.83 381.42 L 388.43 381.43 L 389.02 381.56 L 389.61 381.58 L 390.20 381.70 L 390.79 381.73 L 391.38 381.84 L 391.97 381.89 L 392.57 381.98 L 393.16 382.05 L 393.75 382.13 L 394.34 382.21 L 394.93 382.27 L 395.52 382.39 L 396.12 382.43 L 396.71 382.56 L 397.30 382.59 L 397.89 382.75 L 398.48 382.76 L 399.07 382.93 L 399.67 382.93 L 400.26 383.12 L 400.85 383.12 L 401.44 383.31 L 402.03 383.32 L 402.62 383.51 L 403.22 383.53 L 403.81 383.70 L 404.40 383.74 L 404.99 383.90 L 405.58 383.96 L 406.18 384.09 L 406.77 384.17 L 407.36 384.28 L 407.95 384.39 L 408.54 384.46 L 409.13 384.59 L 409.73 384.65 L 410.32 384.80 L 410.91 384.83 L 411.50 385.01 L 412.09 385.03 L 412.68 385.21 L 413.28 385.22 L 413.87 385.41 L 414.46 385.41 L 415.05 385.61 L 415.64 385.61 L 416.23 385.81 L 416.82 385.82 L 417.42 386.02 L 418.01 386.03 L 418.60 386.22 L 419.19 386.26 L 419.78 386.43 L 420.38 386.49 L 420.97 386.64 L 421.56 386.73 L 422.15 386.86 L 422.74 386.98 L 423.33 387.08 L 423.93 387.24 L 424.52 387.31 L 425.11 387.50 L 425.70 387.55 L 426.29 387.77 L 426.88 387.80 L 427.47 388.05 L 428.07 388.06 L 428.66 388.34 L 429.25 388.34 L 429.84 388.62 L 430.43 388.62 L 431.02 388.89 L 431.62 388.90 L 432.21 389.16 L 432.80 389.20 L 433.39 389.43 L 433.98 389.49 L 434.57 389.69 L 435.17 389.78 L 435.76 389.94 L 436.35 390.08 L 436.94 390.21 L 437.53 390.38 L 438.12 390.47 L 438.72 390.67 L 439.31 390.72 L 439.90 390.95 L 440.49 390.99 L 441.08 391.24 L 441.68 391.25 L 442.27 391.51 L 442.86 391.51 L 443.45 391.78 L 444.04 391.78 L 444.63 392.05 L 445.23 392.06 L 445.82 392.32 L 446.41 392.34 L 447.00 392.57 L 447.59 392.61 L 448.18 392.82 L 448.77 392.89 L 449.37 393.07 L 449.96 393.17 L 450.55 393.32 L 451.14 393.46 L 451.73 393.59 L 452.32 393.76 L 452.92 393.86 L 453.51 394.07 L 454.10 394.14 L 454.69 394.39 L 455.28 394.42 L 455.87 394.71 L 456.47 394.73 L 457.06 395.04 L 457.65 395.05 L 458.24 395.37 L 458.83 395.37 L 459.42 395.69 L 460.02 395.71 L 460.61 396.03 L 461.20 396.07 L 461.79 396.37 L 462.38 396.45 L 462.97 396.71 L 463.57 396.83 L 464.16 397.04 L 464.75 397.21 L 465.34 397.37 L 465.93 397.59 L 466.52 397.70 L 467.12 397.96 L 467.71 398.04 L 468.30 398.33 L 468.89 398.37 L 469.48 398.69 L 470.07 398.71 L 470.67 399.04 L 471.26 399.04 L 471.85 399.37 L 472.44 399.37 L 473.03 399.68 L 473.62 399.69 L 474.22 399.99 L 474.81 400.01 L 475.40 400.29 L 475.99 400.33 L 476.58 400.57 L 477.18 400.64 L 477.77 400.86 L 478.36 400.95 L 478.95 401.14 L 479.54 401.26 L 480.13 401.41 L 480.72 401.56 L 481.32 401.68 L 481.91 401.87 L 482.50 401.96 L 483.09 402.19 L 483.68 402.25 L 484.27 402.51 L 484.87 402.54 L 485.46 402.83 L 486.05 402.85 L 486.64 403.16 L 487.23 403.17 L 487.82 403.50 L 488.42 403.50 L 489.01 403.85 L 489.60 403.86 L 490.19 404.20 L 490.78 404.22 L 491.38 404.55 L 491.97 404.61 L 492.56 404.91 L 493.15 405.00 L 493.74 405.28 L 494.33 405.41 L 494.93 405.65 L 495.52 405.83 L 496.11 406.02 L 496.70 406.25 L 497.29 406.39 L 497.88 406.68 L 498.48 406.77 L 499.07 407.10 L 499.66 407.15 L 500.25 407.53 L 500.84 407.55 L 501.43 407.96 L 502.03 407.96 L 502.62 408.37 L 503.21 408.37 L 503.80 408.77 L 504.39 408.79 L 504.98 409.17 L 505.57 409.21 L 506.17 409.56 L 506.76 409.64 L 507.35 409.94 L 507.94 410.07 L 508.53 410.32 L 509.12 410.50 L 509.72 410.68 L 510.31 410.92 L 510.90 411.05 L 511.49 411.34 L 512.08 411.43 L 512.67 411.76 L 513.27 411.81 L 513.86 412.17 L 514.45 412.19 L 515.04 412.57 L 515.63 412.58 L 516.23 412.98 L 516.82 412.98 L 517.41 413.38 L 518.00 413.39 L 518.59 413.78 L 519.18 413.81 L 519.78 414.18 L 520.37 414.24 L 520.96 414.58 L 521.55 414.68 L 522.14 414.97 L 522.73 415.12 L 523.33 415.37 L 523.92 415.58 L 524.51 415.78 L 525.10 416.05 L 525.69 416.19 L 526.28 416.51 L 526.88 416.60 L 527.47 416.96 L 528.06 417.01 L 528.65 417.42 L 529.24 417.44 L 529.83 417.87 L 530.42 417.87 L 531.02 418.30 L 531.61 418.30 L 532.20 418.72 L 532.79 418.74 L 533.38 419.14 L 533.98 419.17 L 534.57 419.53 L 535.16 419.60 L 535.75 419.91 L 536.34 420.02 L 536.93 420.28 L 537.52 420.44 L 538.12 420.64 L 538.71 420.85 L 539.30 421.00 L 539.89 421.24 L 540.48 421.34 L 541.08 421.63 L 541.67 421.68 L 542.26 422.00 L 542.85 422.02 L 543.44 422.36 L 544.03 422.36 L 544.62 422.69 L 545.22 422.69 L 545.81 423.01 L 546.40 423.03 L 546.99 423.33 L 547.58 423.36 L 548.17 423.62 L 548.77 423.69 L 549.36 423.91 L 549.95 424.02 L 550.54 424.19 L 551.13 424.33 L 551.72 424.45 L 552.32 424.64 L 552.91 424.72 L 553.50 424.94 L 554.09 424.98 L 554.68 425.23 L 555.27 425.25 L 555.87 425.51 L 556.46 425.52 L 557.05 425.78 L 557.64 425.79 L 558.23 426.04 L 558.83 426.06 L 559.42 426.29 L 560.01 426.34 L 560.60 426.54 L 561.19 426.61 L 561.78 426.78 L 562.38 426.90 L 562.97 427.01 L 563.56 427.18 L 564.15 427.25 L 564.74 427.46 L 565.33 427.50 L 565.92 427.75 L 566.52 427.76 L 567.11 428.02 L 567.70 428.03 L 568.29 428.30 L 568.88 428.31 L 569.47 428.58 L 570.07 428.59 L 570.66 428.84 L 571.25 428.89 L 571.84 429.11 L 572.43 429.20 L 573.02 429.38 L 573.62 429.51 L 574.21 429.65 L 574.80 429.82 L 575.39 429.92 L 575.98 430.14 L 576.58 430.20 L 577.17 430.46 L 577.76 430.49 L 578.35 430.76 L 578.94 430.78 L 579.53 431.07 L 580.12 431.07 L 580.72 431.37 L 581.31 431.37 L 581.90 431.67 L 582.49 431.68 L 583.08 431.96 L 583.67 431.98 L 584.27 432.25 L 584.86 432.29 L 585.45 432.53 L 586.04 432.61 L 586.63 432.80 L 587.23 432.91 L 587.82 433.07 L 588.41 433.21 L 589.00 433.34 L 589.59 433.52 L 590.18 433.61 L 590.78 433.82 L 591.37 433.88 L 591.96 434.12 L 592.55 434.15 L 593.14 434.42 L 593.73 434.43 L 594.33 434.71 L 594.92 434.71 L 595.51 435.00 L 596.10 435.00 L 596.69 435.27 L 597.28 435.29 L 597.88 435.55 L 598.47 435.58 L 599.06 435.82 L 599.65 435.88 L 600.24 436.09 L 600.83 436.18 L 601.42 436.36 L 602.02 436.50 L 602.61 436.64 L 603.20 436.81 L 603.79 436.91 L 604.38 437.11 L 604.98 437.19 L 605.57 437.43 L 606.16 437.47 L 606.75 437.74 L 607.34 437.76 L 607.93 438.05 L 608.52 438.06 L 609.12 438.36 L 609.71 438.36 L 610.30 438.66 L 610.89 438.67 L 611.48 438.97 L 612.08 438.99 L 612.67 439.26 L 613.26 439.32 L 613.85 439.56 L 614.44 439.65 L 615.03 439.86 L 615.62 439.99 L 616.22 440.17 L 616.81 440.34 L 617.40 440.48 L 617.99 440.69 L 618.58 440.79 L 619.18 441.05 L 619.77 441.11 L 620.36 441.40 L 620.95 441.44 L 621.54 441.76 L 622.13 441.78 L 622.73 442.12 L 623.32 442.13 L 623.91 442.48 L 624.50 442.48 L 625.09 442.84 L 625.68 442.85 L 626.27 443.19 L 626.87 443.22 L 627.46 443.55 L 628.05 443.61 L 628.64 443.91 L 629.23 444.01 L 629.82 444.26 L 630.42 444.41 L 631.01 444.62 L 631.60 444.84 L 632.19 444.99 L 632.78 445.27 L 633.38 445.37 L 633.97 445.70 L 634.56 445.76 L 635.15 446.15 L 635.74 446.17 L 636.33 446.59 L 636.92 446.59 L 637.52 447.04 L 638.11 447.04 L 638.70 447.48 L 639.29 447.48 L 639.88 447.91 L 640.48 447.95 L 641.07 448.34 L 641.66 448.41 L 642.25 448.76 L 642.84 448.88 L 643.43 449.16 L 644.02 449.34 L 644.62 449.57 L 645.21 449.79 L 645.80 449.97 L 646.39 450.24 L 646.98 450.36 L 647.57 450.67 L 648.17 450.75 L 648.76 451.10 L 649.35 451.15 L 649.94 451.52 L 650.53 451.54 L 651.12 451.94 L 651.72 451.94 L 652.31 452.34 L 652.90 452.34 L 653.49 452.75 L 654.08 452.75 L 654.67 453.16 L 655.27 453.18 L 655.86 453.58 L 656.45 453.62 L 657.04 453.99 L 657.63 454.07 L 658.23 454.40 L 658.82 454.53 L 659.41 454.82 L 660.00 455.01 L 660.59 455.26 L 661.18 455.50 L 661.77 455.70 L 662.37 456.01 L 662.96 456.15 L 663.55 456.52 L 664.14 456.61 L 664.73 457.05 L 665.33 457.10 L 665.92 457.58 L 666.51 457.60 L 667.10 458.10 L 667.69 458.10 L 668.28 458.62 L 668.88 458.62 L 669.47 459.13 L 670.06 459.15 L 670.65 459.64 L 671.24 459.69 L 671.83 460.13 L 672.42 460.23 L 673.02 460.62 L 673.61 460.78 L 674.20 461.12 L 674.79 461.33 L 675.38 461.61 L 675.98 461.89 L 676.57 462.10 L 677.16 462.45 L 677.75 462.60 L 678.34 463.01 L 678.93 463.11 L 679.52 463.59 L 680.12 463.64 L 680.71 464.17 L 681.30 464.18 L 681.89 464.74 L 682.48 464.74 L 683.08 465.32 L 683.67 465.32 L 684.26 465.88 L 684.85 465.91 L 685.44 466.45 L 686.03 466.52 L 686.62 467.02 L 687.22 467.14 L 687.81 467.58 L 688.40 467.77 L 688.99 468.14 L 689.58 468.40 L 690.18 468.69 L 690.77 469.01 L 691.36 469.24 L 691.95 469.63 L 692.54 469.78 L 693.13 470.23 L 693.73 470.33 L 694.32 470.82 L 694.91 470.87 L 695.50 471.40 L 696.09 471.42 L 696.68 471.98 L 697.27 471.98 L 697.87 472.53 L 698.46 472.54 L 699.05 473.07 L 699.64 473.10 L 700.23 473.60 L 700.83 473.67 L 701.42 474.12 L 702.01 474.24 L 702.60 474.64 L 703.19 474.83 L 703.78 475.16 L 704.38 475.43 L 704.97 475.70 L 705.56 476.03 L 706.15 476.23 L 706.74 476.64 L 707.33 476.78 L 707.93 477.26 L 708.52 477.33 L 709.11 477.87 L 709.70 477.91 L 710.29 478.49 L 710.88 478.50 L 711.48 479.11 L 712.07 479.11 L 712.66 479.71 L 713.25 479.73 L 713.84 480.30 L 714.43 480.35 L 715.02 480.87 L 715.62 480.98 L 716.21 481.43 L 716.80 481.61 L 717.39 481.96 L 717.98 482.23 L 718.57 482.50 L 719.17 482.84 L 719.76 483.02 L 720.35 483.44 L 720.94 483.55 L 721.53 484.01 L 722.12 484.06 L 722.72 484.55 L 723.31 484.56 L 723.90 485.06 L 724.49 485.06 L 725.08 485.56 L 725.67 485.57 L 726.27 486.02 L 726.86 486.06 L 727.45 486.48 L 728.04 486.55 L 728.63 486.91 L 729.23 487.03 L 729.82 487.31 L 730.41 487.52 L 731.00 487.72 L 731.59 487.98 L 732.18 488.12 L 732.77 488.45 L 733.37 488.53 L 733.96 488.90 L 734.55 488.94 L 735.14 489.34 L 735.73 489.35 L 736.32 489.77 L 736.92 489.77 L 737.51 490.20 L 738.10 490.21 L 738.69 490.63 L 739.28 490.66 L 739.88 491.05 L 740.47 491.12 L 741.06 491.47 L 741.65 491.60 L 742.24 491.90 L 742.83 492.11 L 743.42 492.34 L 744.02 492.62 L 744.61 492.79 L 745.20 493.16 L 745.79 493.27 L 746.38 493.71 L 746.98 493.77 L 747.57 494.27 L 748.16 494.30 L 748.75 494.84 L 749.34 494.84 L 749.93 495.41 L 750.52 495.41 L 751.12 495.98 L 751.71 496.01 L 752.30 496.55 L 752.89 496.62 L 753.48 497.13 L 754.08 497.26 L 754.67 497.69 L 755.26 497.90 L 755.85 498.25 L 756.44 498.55 L 757.03 498.82 L 757.62 499.19 L 758.22 499.40 L 758.81 499.84 L 759.40 499.97 L 759.99 500.47 L 760.58 500.54 L 761.17 501.09 L 761.77 501.12 L 762.36 501.68 L 762.95 501.69 L 763.54 502.27 L 764.13 502.27 L 764.73 502.83 L 765.32 502.84 L 765.91 503.37 L 766.50 503.41 L 767.09 503.89 L 767.68 503.97 L 768.27 504.41 L 768.87 504.54 L 769.46 504.91 L 770.05 505.11 L 770.64 505.41 L 771.23 505.67 L 771.83 505.92 L 772.42 506.23 L 773.01 506.42 L 773.60 506.79 L 774.19 506.92 L 774.78 507.35 L 775.38 507.44 L 775.97 507.92 L 776.56 507.97 L 777.15 508.49 L 777.74 508.51 L 778.33 509.07 L 778.93 509.07 L 779.52 509.64 L 780.11 509.65 L 780.70 510.22 L 781.29 510.24 L 781.88 510.80 L 782.48 510.85 L 783.07 511.38 L 783.66 511.48 L 784.25 511.95 L 784.84 512.12 L 785.43 512.52 L 786.02 512.75 L 786.62 513.09 L 787.21 513.39 L 787.80 513.64 L 788.39 514.02 L 788.98 514.19 L 789.58 514.65 L 790.17 514.75 L 790.76 515.25 L 791.35 515.31 L 791.94 515.83 L 792.53 515.86 L 793.12 516.41 L 793.72 516.41 L 794.31 516.94 L 794.90 516.95 L 795.49 517.44 L 796.08 517.47 L 796.68 517.93 L 797.27 517.99 L 797.86 518.40 L 798.45 518.51 L 799.04 518.85 L 799.63 519.02 L 800.23 519.29 L 800.82 519.52" fill="none" stroke="#ff7f0e" stroke-width="2.2" stroke-linejoin="round" stroke-linecap="round"/>
<circle cx="800.8" cy="519.5" r="3.8" fill="#ff7f0e" stroke="#ffffff" stroke-width="1.2"/>
<rect x="822" y="84" width="252" height="412" rx="6" fill="#ffffff" stroke="#d5dae3" stroke-width="1"/>
<text x="840.0" y="111.0" font-size="14" font-family="Arial, Helvetica, sans-serif" fill="#172033" text-anchor="start" font-weight="700">Completed mesh solves</text>
<line x1="840" y1="146.0" x2="870" y2="146.0" stroke="#1f77b4" stroke-width="3" stroke-linecap="round"/>
<text x="880.0" y="150.0" font-size="13" font-family="Arial, Helvetica, sans-serif" fill="#172033" text-anchor="start" font-weight="700">ring1.h5</text>
<text x="880.0" y="169.0" font-size="12" font-family="Arial, Helvetica, sans-serif" fill="#4b5563" text-anchor="start" font-weight="400">h=0.634, N=679, rho=0.97652</text>
<text x="880.0" y="187.0" font-size="12" font-family="Arial, Helvetica, sans-serif" fill="#4b5563" text-anchor="start" font-weight="400">final rel=9.89e-08, dec/it=0.01032</text>
<line x1="840" y1="212.0" x2="870" y2="212.0" stroke="#d62728" stroke-width="3" stroke-linecap="round"/>
<text x="880.0" y="216.0" font-size="13" font-family="Arial, Helvetica, sans-serif" fill="#172033" text-anchor="start" font-weight="700">ring2.h5</text>
<text x="880.0" y="235.0" font-size="12" font-family="Arial, Helvetica, sans-serif" fill="#4b5563" text-anchor="start" font-weight="400">h=0.329, N=1005, rho=0.98409</text>
<text x="880.0" y="253.0" font-size="12" font-family="Arial, Helvetica, sans-serif" fill="#4b5563" text-anchor="start" font-weight="400">final rel=1.00e-07, dec/it=0.00697</text>
<line x1="840" y1="278.0" x2="870" y2="278.0" stroke="#2ca02c" stroke-width="3" stroke-linecap="round"/>
<text x="880.0" y="282.0" font-size="13" font-family="Arial, Helvetica, sans-serif" fill="#172033" text-anchor="start" font-weight="700">ring3.h5</text>
<text x="880.0" y="301.0" font-size="12" font-family="Arial, Helvetica, sans-serif" fill="#4b5563" text-anchor="start" font-weight="400">h=0.1675, N=1095, rho=0.98538</text>
<text x="880.0" y="319.0" font-size="12" font-family="Arial, Helvetica, sans-serif" fill="#4b5563" text-anchor="start" font-weight="400">final rel=9.90e-08, dec/it=0.00640</text>
<line x1="840" y1="344.0" x2="870" y2="344.0" stroke="#9467bd" stroke-width="3" stroke-linecap="round"/>
<text x="880.0" y="348.0" font-size="13" font-family="Arial, Helvetica, sans-serif" fill="#172033" text-anchor="start" font-weight="700">ring4.h5</text>
<text x="880.0" y="367.0" font-size="12" font-family="Arial, Helvetica, sans-serif" fill="#4b5563" text-anchor="start" font-weight="400">h=0.08734, N=1146, rho=0.98603</text>
<text x="880.0" y="385.0" font-size="12" font-family="Arial, Helvetica, sans-serif" fill="#4b5563" text-anchor="start" font-weight="400">final rel=9.91e-08, dec/it=0.00611</text>
<line x1="840" y1="410.0" x2="870" y2="410.0" stroke="#ff7f0e" stroke-width="3" stroke-linecap="round"/>
<text x="880.0" y="414.0" font-size="13" font-family="Arial, Helvetica, sans-serif" fill="#172033" text-anchor="start" font-weight="700">ring5.h5</text>
<text x="880.0" y="433.0" font-size="12" font-family="Arial, Helvetica, sans-serif" fill="#4b5563" text-anchor="start" font-weight="400">h=0.04715, N=1198, rho=0.98664</text>
<text x="880.0" y="451.0" font-size="12" font-family="Arial, Helvetica, sans-serif" fill="#4b5563" text-anchor="start" font-weight="400">final rel=9.99e-08, dec/it=0.00584</text>
</svg>