<svg xmlns="http://www.w3.org/2000/svg" width="1120" height="700" viewBox="0 0 1120 700">
<rect width="100%" height="100%" fill="#ffffff"/>
<rect x="0" y="0" width="100%" height="100%" fill="#ffffff"/>
<text x="92.0" y="38.0" font-size="24" font-family="Arial, Helvetica, sans-serif" fill="#172033" text-anchor="start" font-weight="700">MINRES convergence from log.txt</text>
<text x="92.0" y="62.0" font-size="13" font-family="Arial, Helvetica, sans-serif" fill="#5b6472" text-anchor="start" font-weight="400">Relative preconditioned residual norm; rho = (final / initial)^(1 / N)</text>
<rect x="92" y="82" width="710" height="500" fill="#fbfcfe" stroke="#c8ced8" stroke-width="1"/>
<line x1="92.0" y1="82" x2="92.0" y2="582" stroke="#e6e9ef" stroke-width="1"/>
<line x1="92.0" y1="582" x2="92.0" y2="588" stroke="#6b7280" stroke-width="1"/>
<text x="92.0" y="606.0" font-size="12" font-family="Arial, Helvetica, sans-serif" fill="#4b5563" text-anchor="middle" font-weight="400">0</text>
<line x1="210.3" y1="82" x2="210.3" y2="582" stroke="#e6e9ef" stroke-width="1"/>
<line x1="210.3" y1="582" x2="210.3" y2="588" stroke="#6b7280" stroke-width="1"/>
<text x="210.3" y="606.0" font-size="12" font-family="Arial, Helvetica, sans-serif" fill="#4b5563" text-anchor="middle" font-weight="400">50</text>
<line x1="328.7" y1="82" x2="328.7" y2="582" stroke="#e6e9ef" stroke-width="1"/>
<line x1="328.7" y1="582" x2="328.7" y2="588" stroke="#6b7280" stroke-width="1"/>
<text x="328.7" y="606.0" font-size="12" font-family="Arial, Helvetica, sans-serif" fill="#4b5563" text-anchor="middle" font-weight="400">100</text>
<line x1="447.0" y1="82" x2="447.0" y2="582" stroke="#e6e9ef" stroke-width="1"/>
<line x1="447.0" y1="582" x2="447.0" y2="588" stroke="#6b7280" stroke-width="1"/>
<text x="447.0" y="606.0" font-size="12" font-family="Arial, Helvetica, sans-serif" fill="#4b5563" text-anchor="middle" font-weight="400">150</text>
<line x1="565.3" y1="82" x2="565.3" y2="582" stroke="#e6e9ef" stroke-width="1"/>
<line x1="565.3" y1="582" x2="565.3" y2="588" stroke="#6b7280" stroke-width="1"/>
<text x="565.3" y="606.0" font-size="12" font-family="Arial, Helvetica, sans-serif" fill="#4b5563" text-anchor="middle" font-weight="400">200</text>
<line x1="683.7" y1="82" x2="683.7" y2="582" stroke="#e6e9ef" stroke-width="1"/>
<line x1="683.7" y1="582" x2="683.7" y2="588" stroke="#6b7280" stroke-width="1"/>
<text x="683.7" y="606.0" font-size="12" font-family="Arial, Helvetica, sans-serif" fill="#4b5563" text-anchor="middle" font-weight="400">250</text>
<line x1="802.0" y1="82" x2="802.0" y2="582" stroke="#e6e9ef" stroke-width="1"/>
<line x1="802.0" y1="582" x2="802.0" y2="588" stroke="#6b7280" stroke-width="1"/>
<text x="802.0" y="606.0" font-size="12" font-family="Arial, Helvetica, sans-serif" fill="#4b5563" text-anchor="middle" font-weight="400">300</text>
<line x1="92" y1="82.0" x2="802" y2="82.0" stroke="#e6e9ef" stroke-width="1"/>
<line x1="86" y1="82.0" x2="92" y2="82.0" stroke="#6b7280" stroke-width="1"/>
<text x="80.0" y="86.0" font-size="12" font-family="Arial, Helvetica, sans-serif" fill="#4b5563" text-anchor="end" font-weight="400">1</text>
<line x1="92" y1="144.5" x2="802" y2="144.5" stroke="#e6e9ef" stroke-width="1"/>
<line x1="86" y1="144.5" x2="92" y2="144.5" stroke="#6b7280" stroke-width="1"/>
<text x="80.0" y="148.5" font-size="12" font-family="Arial, Helvetica, sans-serif" fill="#4b5563" text-anchor="end" font-weight="400">1e-1</text>
<line x1="92" y1="207.0" x2="802" y2="207.0" stroke="#e6e9ef" stroke-width="1"/>
<line x1="86" y1="207.0" x2="92" y2="207.0" stroke="#6b7280" stroke-width="1"/>
<text x="80.0" y="211.0" font-size="12" font-family="Arial, Helvetica, sans-serif" fill="#4b5563" text-anchor="end" font-weight="400">1e-2</text>
<line x1="92" y1="269.5" x2="802" y2="269.5" stroke="#e6e9ef" stroke-width="1"/>
<line x1="86" y1="269.5" x2="92" y2="269.5" stroke="#6b7280" stroke-width="1"/>
<text x="80.0" y="273.5" font-size="12" font-family="Arial, Helvetica, sans-serif" fill="#4b5563" text-anchor="end" font-weight="400">1e-3</text>
<line x1="92" y1="332.0" x2="802" y2="332.0" stroke="#e6e9ef" stroke-width="1"/>
<line x1="86" y1="332.0" x2="92" y2="332.0" stroke="#6b7280" stroke-width="1"/>
<text x="80.0" y="336.0" font-size="12" font-family="Arial, Helvetica, sans-serif" fill="#4b5563" text-anchor="end" font-weight="400">1e-4</text>
<line x1="92" y1="394.5" x2="802" y2="394.5" stroke="#e6e9ef" stroke-width="1"/>
<line x1="86" y1="394.5" x2="92" y2="394.5" stroke="#6b7280" stroke-width="1"/>
<text x="80.0" y="398.5" font-size="12" font-family="Arial, Helvetica, sans-serif" fill="#4b5563" text-anchor="end" font-weight="400">1e-5</text>
<line x1="92" y1="457.0" x2="802" y2="457.0" stroke="#e6e9ef" stroke-width="1"/>
<line x1="86" y1="457.0" x2="92" y2="457.0" stroke="#6b7280" stroke-width="1"/>
<text x="80.0" y="461.0" font-size="12" font-family="Arial, Helvetica, sans-serif" fill="#4b5563" text-anchor="end" font-weight="400">1e-6</text>
<line x1="92" y1="519.5" x2="802" y2="519.5" stroke="#e6e9ef" stroke-width="1"/>
<line x1="86" y1="519.5" x2="92" y2="519.5" stroke="#6b7280" stroke-width="1"/>
<text x="80.0" y="523.5" font-size="12" font-family="Arial, Helvetica, sans-serif" fill="#4b5563" text-anchor="end" font-weight="400">1e-7</text>
<line x1="92" y1="582.0" x2="802" y2="582.0" stroke="#e6e9ef" stroke-width="1"/>
<line x1="86" y1="582.0" x2="92" y2="582.0" stroke="#6b7280" stroke-width="1"/>
<text x="80.0" y="586.0" font-size="12" font-family="Arial, Helvetica, sans-serif" fill="#4b5563" text-anchor="end" font-weight="400">1e-8</text>
<line x1="92" y1="582" x2="802" y2="582" stroke="#111827" stroke-width="1.2"/>
<line x1="92" y1="82" x2="92" y2="582" stroke="#111827" stroke-width="1.2"/>
<text x="447.0" y="652.0" font-size="14" font-family="Arial, Helvetica, sans-serif" fill="#172033" text-anchor="middle" font-weight="400">MINRES iteration</text>
<text x="24.0" y="332.0" font-size="14" font-family="Arial, Helvetica, sans-serif" fill="#172033" text-anchor="middle" font-weight="400" transform="rotate(-90.0 24.0 332.0)">relative residual norm</text>
<path d="M 92.00 82.00 L 94.37 88.56 L 96.73 137.54 L 99.10 141.06 L 101.47 152.42 L 103.83 156.06 L 106.20 170.65 L 108.57 173.35 L 110.93 175.14 L 113.30 179.71 L 115.67 180.27 L 118.03 182.60 L 120.40 186.07 L 122.77 188.15 L 125.13 191.22 L 127.50 191.30 L 129.87 197.88 L 132.23 201.02 L 134.60 203.65 L 136.97 211.50 L 139.33 213.57 L 141.70 219.53 L 144.07 219.63 L 146.43 231.17 L 148.80 234.20 L 151.17 238.00 L 153.53 242.33 L 155.90 243.52 L 158.27 247.69 L 160.63 247.74 L 163.00 251.14 L 165.37 251.59 L 167.73 255.11 L 170.10 255.11 L 172.47 262.75 L 174.83 263.14 L 177.20 267.35 L 179.57 268.28 L 181.93 271.25 L 184.30 273.92 L 186.67 275.34 L 189.03 277.73 L 191.40 279.09 L 193.77 282.43 L 196.13 283.16 L 198.50 287.87 L 200.87 287.89 L 203.23 291.79 L 205.60 291.79 L 207.97 295.73 L 210.33 297.69 L 212.70 304.11 L 215.07 306.68 L 217.43 309.34 L 219.80 313.14 L 222.17 314.48 L 224.53 317.87 L 226.90 318.84 L 229.27 323.47 L 231.63 323.49 L 234.00 327.74 L 236.37 327.75 L 238.73 332.31 L 241.10 332.93 L 243.47 335.65 L 245.83 337.45 L 248.20 338.45 L 250.57 341.01 L 252.93 342.02 L 255.30 344.32 L 257.67 344.45 L 260.03 346.93 L 262.40 346.97 L 264.77 349.43 L 267.13 350.97 L 269.50 352.01 L 271.87 353.40 L 274.23 353.46 L 276.60 354.62 L 278.97 354.74 L 281.33 356.35 L 283.70 356.69 L 286.07 357.14 L 288.43 358.35 L 290.80 358.50 L 293.17 360.01 L 295.53 360.04 L 297.90 361.89 L 300.27 362.22 L 302.63 363.41 L 305.00 366.20 L 307.37 366.26 L 309.73 369.65 L 312.10 369.73 L 314.47 373.36 L 316.83 374.05 L 319.20 376.05 L 321.57 377.58 L 323.93 378.64 L 326.30 380.57 L 328.67 381.07 L 331.03 384.44 L 333.40 384.47 L 335.77 386.86 L 338.13 386.94 L 340.50 389.83 L 342.87 390.06 L 345.23 392.01 L 347.60 392.94 L 349.97 394.16 L 352.33 396.53 L 354.70 396.88 L 357.07 398.56 L 359.43 398.64 L 361.80 401.22 L 364.17 401.31 L 366.53 403.51 L 368.90 404.74 L 371.27 406.68 L 373.63 408.11 L 376.00 408.47 L 378.37 410.76 L 380.73 410.80 L 383.10 413.09 L 385.47 413.33 L 387.83 415.35 L 390.20 415.80 L 392.57 417.27 L 394.93 417.95 L 397.30 418.30 L 399.67 419.93 L 402.03 419.96 L 404.40 421.44 L 406.77 421.46 L 409.13 424.53 L 411.50 425.00 L 413.87 426.71 L 416.23 428.86 L 418.60 430.31 L 420.97 434.10 L 423.33 434.29 L 425.70 439.07 L 428.07 439.16 L 430.43 444.41 L 432.80 445.62 L 435.17 449.50 L 437.53 452.03 L 439.90 455.22 L 442.27 460.07 L 444.63 460.47 L 447.00 465.47 L 449.37 465.48 L 451.73 470.62 L 454.10 471.47 L 456.47 475.64 L 458.83 476.07 L 461.20 480.53 L 463.57 483.43 L 465.93 485.67 L 468.30 490.82 L 470.67 491.19 L 473.03 496.39 L 475.40 496.48 L 477.77 500.89 L 480.13 502.26 L 482.50 504.37 L 484.87 506.80 L 487.23 507.81 L 489.60 511.62 L 491.97 511.80 L 494.33 514.65 L 496.70 515.26 L 499.07 516.69 L 501.43 518.46 L 503.80 519.13 L 506.17 521.35" fill="none" stroke="#1f77b4" stroke-width="2.2" stroke-linejoin="round" stroke-linecap="round"/>
<circle cx="506.2" cy="521.3" r="3.8" fill="#1f77b4" stroke="#ffffff" stroke-width="1.2"/>
<path d="M 92.00 82.00 L 94.37 88.57 L 96.73 137.27 L 99.10 140.79 L 101.47 151.59 L 103.83 156.66 L 106.20 168.51 L 108.57 171.27 L 110.93 172.64 L 113.30 179.64 L 115.67 179.66 L 118.03 184.04 L 120.40 185.46 L 122.77 188.04 L 125.13 190.90 L 127.50 190.96 L 129.87 201.08 L 132.23 201.64 L 134.60 208.54 L 136.97 215.33 L 139.33 220.62 L 141.70 225.39 L 144.07 226.77 L 146.43 234.87 L 148.80 235.25 L 151.17 252.41 L 153.53 262.49 L 155.90 267.17 L 158.27 273.19 L 160.63 274.43 L 163.00 278.77 L 165.37 278.77 L 167.73 287.32 L 170.10 287.84 L 172.47 291.71 L 174.83 292.00 L 177.20 296.43 L 179.57 297.01 L 181.93 300.20 L 184.30 302.10 L 186.67 303.21 L 189.03 304.43 L 191.40 305.97 L 193.77 310.09 L 196.13 310.35 L 198.50 313.70 L 200.87 314.00 L 203.23 316.30 L 205.60 316.53 L 207.97 318.15 L 210.33 318.90 L 212.70 319.97 L 215.07 320.65 L 217.43 321.17 L 219.80 323.18 L 222.17 323.20 L 224.53 324.25 L 226.90 324.30 L 229.27 325.02 L 231.63 325.58 L 234.00 325.80 L 236.37 327.06 L 238.73 327.06 L 241.10 328.44 L 243.47 328.44 L 245.83 330.13 L 248.20 330.80 L 250.57 332.34 L 252.93 333.70 L 255.30 334.43 L 257.67 336.83 L 260.03 336.97 L 262.40 338.80 L 264.77 338.90 L 267.13 341.33 L 269.50 341.35 L 271.87 344.15 L 274.23 344.95 L 276.60 347.32 L 278.97 349.26 L 281.33 349.94 L 283.70 352.82 L 286.07 353.16 L 288.43 355.06 L 290.80 355.16 L 293.17 358.32 L 295.53 358.43 L 297.90 360.52 L 300.27 361.43 L 302.63 362.92 L 305.00 364.35 L 307.37 364.89 L 309.73 366.51 L 312.10 367.04 L 314.47 368.88 L 316.83 369.08 L 319.20 371.95 L 321.57 371.99 L 323.93 374.36 L 326.30 374.84 L 328.67 376.69 L 331.03 377.31 L 333.40 378.56 L 335.77 380.24 L 338.13 380.72 L 340.50 382.32 L 342.87 382.44 L 345.23 384.63 L 347.60 384.63 L 349.97 386.21 L 352.33 386.50 L 354.70 388.25 L 357.07 388.91 L 359.43 389.67 L 361.80 390.66 L 364.17 391.28 L 366.53 392.90 L 368.90 392.98 L 371.27 395.17 L 373.63 395.19 L 376.00 397.52 L 378.37 397.76 L 380.73 399.36 L 383.10 400.14 L 385.47 400.91 L 387.83 402.33 L 390.20 402.81 L 392.57 405.24 L 394.93 405.36 L 397.30 407.30 L 399.67 407.37 L 402.03 409.28 L 404.40 409.63 L 406.77 410.71 L 409.13 411.59 L 411.50 412.45 L 413.87 413.58 L 416.23 413.65 L 418.60 415.34 L 420.97 415.34 L 423.33 416.86 L 425.70 417.19 L 428.07 418.64 L 430.43 419.06 L 432.80 419.83 L 435.17 421.43 L 437.53 422.19 L 439.90 424.04 L 442.27 424.36 L 444.63 426.79 L 447.00 426.80 L 449.37 428.85 L 451.73 429.14 L 454.10 430.90 L 456.47 431.27 L 458.83 433.22 L 461.20 433.82 L 463.57 434.80 L 465.93 436.07 L 468.30 436.77 L 470.67 438.66 L 473.03 438.68 L 475.40 441.00 L 477.77 441.01 L 480.13 443.02 L 482.50 443.41 L 484.87 445.43 L 487.23 445.90 L 489.60 447.08 L 491.97 448.32 L 494.33 449.73 L 496.70 451.19 L 499.07 451.45 L 501.43 453.59 L 503.80 453.84 L 506.17 456.20 L 508.53 456.20 L 510.90 458.76 L 513.27 458.82 L 515.63 460.70 L 518.00 461.46 L 520.37 463.63 L 522.73 464.60 L 525.10 465.78 L 527.47 467.51 L 529.83 468.28 L 532.20 471.03 L 534.57 471.03 L 536.93 473.70 L 539.30 473.73 L 541.67 475.97 L 544.03 476.62 L 546.40 478.01 L 548.77 479.34 L 551.13 480.18 L 553.50 481.97 L 555.87 482.21 L 558.23 484.63 L 560.60 484.66 L 562.97 487.54 L 565.33 487.63 L 567.70 490.11 L 570.07 490.80 L 572.43 492.19 L 574.80 493.43 L 577.17 494.87 L 579.53 496.05 L 581.90 496.69 L 584.27 498.34 L 586.63 498.55 L 589.00 500.51 L 591.37 500.51 L 593.73 503.15 L 596.10 503.15 L 598.47 505.06 L 600.83 505.27 L 603.20 506.82 L 605.57 507.31 L 607.93 508.10 L 610.30 509.68 L 612.67 510.39 L 615.03 512.34 L 617.40 512.56 L 619.77 514.54 L 622.13 514.54 L 624.50 516.70 L 626.87 516.96 L 629.23 518.84 L 631.60 519.63" fill="none" stroke="#d62728" stroke-width="2.2" stroke-linejoin="round" stroke-linecap="round"/>
<circle cx="631.6" cy="519.6" r="3.8" fill="#d62728" stroke="#ffffff" stroke-width="1.2"/>
<path d="M 92.00 82.00 L 94.37 88.57 L 96.73 136.63 L 99.10 140.05 L 101.47 149.65 L 103.83 153.96 L 106.20 164.43 L 108.57 168.07 L 110.93 168.70 L 113.30 178.61 L 115.67 178.64 L 118.03 182.73 L 120.40 184.89 L 122.77 186.61 L 125.13 191.42 L 127.50 191.42 L 129.87 203.92 L 132.23 204.28 L 134.60 216.90 L 136.97 216.94 L 139.33 223.07 L 141.70 224.88 L 144.07 229.53 L 146.43 237.64 L 148.80 245.07 L 151.17 257.71 L 153.53 259.77 L 155.90 272.34 L 158.27 278.31 L 160.63 281.56 L 163.00 286.95 L 165.37 290.01 L 167.73 299.42 L 170.10 301.21 L 172.47 309.62 L 174.83 310.69 L 177.20 313.74 L 179.57 315.26 L 181.93 319.24 L 184.30 319.65 L 186.67 321.73 L 189.03 322.26 L 191.40 324.08 L 193.77 325.33 L 196.13 329.99 L 198.50 333.79 L 200.87 334.14 L 203.23 336.70 L 205.60 337.22 L 207.97 340.02 L 210.33 340.02 L 212.70 343.14 L 215.07 343.29 L 217.43 345.87 L 219.80 345.87 L 222.17 349.19 L 224.53 349.67 L 226.90 350.76 L 229.27 351.59 L 231.63 352.48 L 234.00 353.21 L 236.37 353.73 L 238.73 355.69 L 241.10 355.93 L 243.47 357.54 L 245.83 357.56 L 248.20 358.76 L 250.57 358.81 L 252.93 359.57 L 255.30 359.90 L 257.67 360.47 L 260.03 360.97 L 262.40 361.09 L 264.77 362.38 L 267.13 362.40 L 269.50 363.87 L 271.87 364.16 L 274.23 364.73 L 276.60 365.22 L 278.97 365.66 L 281.33 366.58 L 283.70 366.73 L 286.07 368.04 L 288.43 368.06 L 290.80 369.66 L 293.17 370.21 L 295.53 371.27 L 297.90 371.94 L 300.27 372.39 L 302.63 373.44 L 305.00 373.84 L 307.37 374.61 L 309.73 374.78 L 312.10 376.70 L 314.47 376.71 L 316.83 378.08 L 319.20 378.31 L 321.57 379.18 L 323.93 379.51 L 326.30 380.14 L 328.67 381.12 L 331.03 381.56 L 333.40 382.73 L 335.77 382.78 L 338.13 384.88 L 340.50 384.88 L 342.87 386.67 L 345.23 386.71 L 347.60 388.67 L 349.97 388.97 L 352.33 390.12 L 354.70 390.81 L 357.07 392.24 L 359.43 392.97 L 361.80 393.57 L 364.17 395.02 L 366.53 395.26 L 368.90 396.71 L 371.27 396.72 L 373.63 398.31 L 376.00 398.31 L 378.37 399.52 L 380.73 399.80 L 383.10 401.30 L 385.47 401.87 L 387.83 402.64 L 390.20 403.79 L 392.57 404.29 L 394.93 405.35 L 397.30 405.41 L 399.67 406.91 L 402.03 407.04 L 404.40 408.83 L 406.77 408.88 L 409.13 410.54 L 411.50 410.67 L 413.87 411.95 L 416.23 412.80 L 418.60 413.96 L 420.97 414.81 L 423.33 415.38 L 425.70 416.61 L 428.07 417.10 L 430.43 418.72 L 432.80 418.74 L 435.17 420.48 L 437.53 420.51 L 439.90 422.00 L 442.27 422.07 L 444.63 423.59 L 447.00 423.79 L 449.37 424.87 L 451.73 425.33 L 454.10 426.15 L 456.47 427.06 L 458.83 427.25 L 461.20 428.43 L 463.57 428.48 L 465.93 429.90 L 468.30 429.90 L 470.67 431.34 L 473.03 431.63 L 475.40 432.63 L 477.77 433.14 L 480.13 434.03 L 482.50 434.95 L 484.87 435.47 L 487.23 436.40 L 489.60 436.55 L 491.97 437.88 L 494.33 437.91 L 496.70 439.16 L 499.07 439.22 L 501.43 440.31 L 503.80 440.46 L 506.17 441.14 L 508.53 441.82 L 510.90 442.26 L 513.27 443.14 L 515.63 443.20 L 518.00 444.35 L 520.37 444.39 L 522.73 445.69 L 525.10 445.94 L 527.47 447.24 L 529.83 447.49 L 532.20 448.41 L 534.57 449.19 L 536.93 449.73 L 539.30 450.58 L 541.67 450.74 L 544.03 452.24 L 546.40 452.36 L 548.77 453.95 L 551.13 453.97 L 553.50 455.40 L 555.87 455.50 L 558.23 456.62 L 560.60 457.14 L 562.97 457.92 L 565.33 458.79 L 567.70 459.01 L 570.07 460.75 L 572.43 460.81 L 574.80 462.40 L 577.17 462.41 L 579.53 464.21 L 581.90 464.45 L 584.27 465.73 L 586.63 466.46 L 589.00 467.63 L 591.37 468.55 L 593.73 469.09 L 596.10 470.54 L 598.47 470.83 L 600.83 472.59 L 603.20 472.72 L 605.57 474.91 L 607.93 474.91 L 610.30 476.44 L 612.67 476.65 L 615.03 477.99 L 617.40 478.31 L 619.77 479.62 L 622.13 480.07 L 624.50 480.87 L 626.87 482.08 L 629.23 482.45 L 631.60 484.28 L 633.97 484.29 L 636.33 486.04 L 638.70 486.04 L 641.07 487.57 L 643.43 487.87 L 645.80 489.46 L 648.17 489.96 L 650.53 490.95 L 652.90 492.05 L 655.27 492.92 L 657.63 494.01 L 660.00 494.31 L 662.37 496.00 L 664.73 496.28 L 667.10 497.96 L 669.47 497.96 L 671.83 499.63 L 674.20 499.66 L 676.57 500.93 L 678.93 501.26 L 681.30 502.89 L 683.67 503.33 L 686.03 504.03 L 688.40 505.27 L 690.77 505.78 L 693.13 507.36 L 695.50 507.41 L 697.87 509.19 L 700.23 509.25 L 702.60 510.89 L 704.97 511.12 L 707.33 512.88 L 709.70 513.11 L 712.07 514.37 L 714.43 515.27 L 716.80 516.12 L 719.17 517.17 L 721.53 517.47 L 723.90 519.33 L 726.27 519.68" fill="none" stroke="#2ca02c" stroke-width="2.2" stroke-linejoin="round" stroke-linecap="round"/>
<circle cx="726.3" cy="519.7" r="3.8" fill="#2ca02c" stroke="#ffffff" stroke-width="1.2"/>
<path d="M 92.00 82.00 L 94.37 88.57 L 96.73 136.03 L 99.10 139.33 L 101.47 148.17 L 103.83 151.06 L 106.20 162.58 L 108.57 165.71 L 110.93 167.15 L 113.30 177.88 L 115.67 177.92 L 118.03 181.86 L 120.40 184.54 L 122.77 186.62 L 125.13 192.31 L 127.50 192.44 L 129.87 203.87 L 132.23 205.41 L 134.60 217.42 L 136.97 217.68 L 139.33 224.40 L 141.70 225.26 L 144.07 237.94 L 146.43 238.21 L 148.80 250.14 L 151.17 254.66 L 153.53 263.83 L 155.90 276.16 L 158.27 278.02 L 160.63 287.18 L 163.00 290.24 L 165.37 303.93 L 167.73 305.90 L 170.10 318.62 L 172.47 322.65 L 174.83 325.36 L 177.20 328.15 L 179.57 330.92 L 181.93 338.77 L 184.30 339.71 L 186.67 348.52 L 189.03 350.44 L 191.40 352.57 L 193.77 352.81 L 196.13 360.29 L 198.50 360.58 L 200.87 362.72 L 203.23 363.42 L 205.60 365.69 L 207.97 367.36 L 210.33 368.55 L 212.70 371.19 L 215.07 371.60 L 217.43 372.95 L 219.80 372.99 L 222.17 375.74 L 224.53 375.75 L 226.90 378.66 L 229.27 378.74 L 231.63 380.97 L 234.00 380.98 L 236.37 383.11 L 238.73 383.44 L 241.10 386.72 L 243.47 387.86 L 245.83 388.93 L 248.20 389.82 L 250.57 390.27 L 252.93 391.14 L 255.30 391.62 L 257.67 394.39 L 260.03 394.39 L 262.40 396.33 L 264.77 396.50 L 267.13 398.07 L 269.50 398.69 L 271.87 400.10 L 274.23 400.49 L 276.60 401.64 L 278.97 402.91 L 281.33 403.48 L 283.70 405.77 L 286.07 405.87 L 288.43 407.39 L 290.80 407.39 L 293.17 408.80 L 295.53 408.94 L 297.90 410.09 L 300.27 411.09 L 302.63 411.87 L 305.00 413.01 L 307.37 413.09 L 309.73 414.99 L 312.10 415.01 L 314.47 416.94 L 316.83 416.99 L 319.20 418.45 L 321.57 418.55 L 323.93 419.85 L 326.30 420.65 L 328.67 421.72 L 331.03 422.61 L 333.40 423.19 L 335.77 424.22 L 338.13 424.30 L 340.50 425.48 L 342.87 425.50 L 345.23 426.35 L 347.60 426.44 L 349.97 427.27 L 352.33 427.66 L 354.70 427.99 L 357.07 429.10 L 359.43 429.18 L 361.80 430.42 L 364.17 430.54 L 366.53 431.91 L 368.90 432.10 L 371.27 432.84 L 373.63 433.46 L 376.00 434.24 L 378.37 435.01 L 380.73 435.54 L 383.10 437.10 L 385.47 437.40 L 387.83 438.96 L 390.20 438.97 L 392.57 440.60 L 394.93 440.67 L 397.30 441.82 L 399.67 442.09 L 402.03 443.00 L 404.40 443.67 L 406.77 444.11 L 409.13 445.57 L 411.50 445.80 L 413.87 447.20 L 416.23 447.24 L 418.60 448.75 L 420.97 448.80 L 423.33 450.31 L 425.70 450.39 L 428.07 452.11 L 430.43 452.35 L 432.80 453.56 L 435.17 454.42 L 437.53 455.17 L 439.90 456.19 L 442.27 456.71 L 444.63 457.74 L 447.00 457.95 L 449.37 459.28 L 451.73 459.28 L 454.10 460.84 L 456.47 460.86 L 458.83 462.69 L 461.20 462.94 L 463.57 464.00 L 465.93 464.63 L 468.30 465.42 L 470.67 466.42 L 473.03 466.75 L 475.40 467.99 L 477.77 468.19 L 480.13 469.63 L 482.50 469.63 L 484.87 471.44 L 487.23 471.48 L 489.60 473.16 L 491.97 473.55 L 494.33 474.95 L 496.70 475.55 L 499.07 476.03 L 501.43 476.98 L 503.80 477.60 L 506.17 478.65 L 508.53 478.85 L 510.90 480.38 L 513.27 480.39 L 515.63 481.64 L 518.00 481.70 L 520.37 482.97 L 522.73 483.33 L 525.10 484.04 L 527.47 484.82 L 529.83 485.22 L 532.20 485.97 L 534.57 486.05 L 536.93 487.18 L 539.30 487.20 L 541.67 488.45 L 544.03 488.52 L 546.40 490.25 L 548.77 490.45 L 551.13 491.40 L 553.50 492.08 L 555.87 492.74 L 558.23 493.35 L 560.60 493.75 L 562.97 494.81 L 565.33 495.18 L 567.70 496.39 L 570.07 496.39 L 572.43 497.72 L 574.80 497.75 L 577.17 498.71 L 579.53 499.03 L 581.90 499.77 L 584.27 500.34 L 586.63 500.69 L 589.00 501.99 L 591.37 502.17 L 593.73 503.45 L 596.10 503.46 L 598.47 504.80 L 600.83 504.82 L 603.20 505.96 L 605.57 506.19 L 607.93 507.51 L 610.30 508.02 L 612.67 508.83 L 615.03 509.65 L 617.40 509.96 L 619.77 510.92 L 622.13 511.05 L 624.50 512.30 L 626.87 512.33 L 629.23 513.77 L 631.60 513.79 L 633.97 515.25 L 636.33 515.55 L 638.70 516.65 L 641.07 517.13 L 643.43 517.83 L 645.80 518.67 L 648.17 519.14 L 650.53 520.41" fill="none" stroke="#9467bd" stroke-width="2.2" stroke-linejoin="round" stroke-linecap="round"/>
<circle cx="650.5" cy="520.4" r="3.8" fill="#9467bd" stroke="#ffffff" stroke-width="1.2"/>
<path d="M 92.00 82.00 L 94.37 88.57 L 96.73 135.78 L 99.10 139.03 L 101.47 147.68 L 103.83 150.18 L 106.20 162.14 L 108.57 165.07 L 110.93 166.89 L 113.30 177.64 L 115.67 177.67 L 118.03 181.62 L 120.40 184.42 L 122.77 186.72 L 125.13 192.62 L 127.50 192.85 L 129.87 203.94 L 132.23 205.77 L 134.60 217.41 L 136.97 217.78 L 139.33 224.84 L 141.70 225.52 L 144.07 239.99 L 146.43 240.61 L 148.80 253.07 L 151.17 254.51 L 153.53 265.65 L 155.90 276.96 L 158.27 277.86 L 160.63 293.61 L 163.00 294.32 L 165.37 308.27 L 167.73 308.27 L 170.10 323.67 L 172.47 325.56 L 174.83 330.78 L 177.20 332.49 L 179.57 335.65 L 181.93 347.83 L 184.30 347.85 L 186.67 368.61 L 189.03 368.61 L 191.40 372.28 L 193.77 372.52 L 196.13 378.15 L 198.50 378.24 L 200.87 379.91 L 203.23 380.19 L 205.60 382.23 L 207.97 383.56 L 210.33 384.97 L 212.70 388.70 L 215.07 389.84 L 217.43 391.23 L 219.80 391.93 L 222.17 396.51 L 224.53 396.72 L 226.90 399.97 L 229.27 399.98 L 231.63 401.96 L 234.00 402.01 L 236.37 404.34 L 238.73 404.36 L 241.10 407.72 L 243.47 407.81 L 245.83 410.01 L 248.20 411.36 L 250.57 411.74 L 252.93 412.60 L 255.30 413.20 L 257.67 415.62 L 260.03 415.66 L 262.40 418.39 L 264.77 418.54 L 267.13 420.48 L 269.50 420.53 L 271.87 423.01 L 274.23 423.38 L 276.60 424.96 L 278.97 425.66 L 281.33 426.48 L 283.70 427.84 L 286.07 428.43 L 288.43 429.51 L 290.80 429.67 L 293.17 431.29 L 295.53 431.38 L 297.90 433.01 L 300.27 433.02 L 302.63 434.93 L 305.00 435.30 L 307.37 436.47 L 309.73 437.24 L 312.10 437.87 L 314.47 438.72 L 316.83 439.12 L 319.20 440.13 L 321.57 440.25 L 323.93 441.34 L 326.30 441.34 L 328.67 443.19 L 331.03 443.34 L 333.40 444.78 L 335.77 445.33 L 338.13 445.83 L 340.50 446.88 L 342.87 447.49 L 345.23 448.31 L 347.60 448.79 L 349.97 450.16 L 352.33 450.26 L 354.70 451.76 L 357.07 451.77 L 359.43 453.47 L 361.80 453.48 L 364.17 454.27 L 366.53 454.52 L 368.90 455.05 L 371.27 455.59 L 373.63 455.78 L 376.00 456.60 L 378.37 456.66 L 380.73 457.76 L 383.10 457.93 L 385.47 459.05 L 387.83 459.24 L 390.20 459.85 L 392.57 460.49 L 394.93 460.90 L 397.30 461.72 L 399.67 461.81 L 402.03 463.20 L 404.40 463.21 L 406.77 464.52 L 409.13 464.74 L 411.50 465.78 L 413.87 466.22 L 416.23 466.66 L 418.60 467.29 L 420.97 467.65 L 423.33 468.45 L 425.70 468.63 L 428.07 470.19 L 430.43 470.19 L 432.80 471.59 L 435.17 471.67 L 437.53 472.99 L 439.90 473.37 L 442.27 474.30 L 444.63 474.92 L 447.00 475.58 L 449.37 476.29 L 451.73 476.82 L 454.10 477.89 L 456.47 478.31 L 458.83 480.06 L 461.20 480.10 L 463.57 481.95 L 465.93 481.95 L 468.30 483.40 L 470.67 483.46 L 473.03 484.32 L 475.40 484.54 L 477.77 485.45 L 480.13 486.02 L 482.50 486.73 L 484.87 487.93 L 487.23 488.08 L 489.60 489.52 L 491.97 489.53 L 494.33 490.99 L 496.70 490.99 L 499.07 492.13 L 501.43 492.36 L 503.80 493.52 L 506.17 494.17 L 508.53 494.98 L 510.90 495.80 L 513.27 496.24 L 515.63 497.56 L 518.00 497.65 L 520.37 499.20 L 522.73 499.20 L 525.10 500.75 L 527.47 500.81 L 529.83 501.73 L 532.20 502.08 L 534.57 502.84 L 536.93 503.35 L 539.30 504.13 L 541.67 505.02 L 544.03 505.25 L 546.40 506.74 L 548.77 506.78 L 551.13 508.25 L 553.50 508.25 L 555.87 509.63 L 558.23 509.67 L 560.60 510.99 L 562.97 511.34 L 565.33 512.73 L 567.70 513.28 L 570.07 513.99 L 572.43 514.89 L 574.80 515.34 L 577.17 516.32 L 579.53 516.52 L 581.90 518.06 L 584.27 518.17 L 586.63 519.84" fill="none" stroke="#ff7f0e" stroke-width="2.2" stroke-linejoin="round" stroke-linecap="round"/>
<circle cx="586.6" cy="519.8" r="3.8" fill="#ff7f0e" stroke="#ffffff" stroke-width="1.2"/>
<rect x="822" y="84" width="252" height="412" rx="6" fill="#ffffff" stroke="#d5dae3" stroke-width="1"/>
<text x="840.0" y="111.0" font-size="14" font-family="Arial, Helvetica, sans-serif" fill="#172033" text-anchor="start" font-weight="700">Completed mesh solves</text>
<line x1="840" y1="146.0" x2="870" y2="146.0" stroke="#1f77b4" stroke-width="3" stroke-linecap="round"/>
<text x="880.0" y="150.0" font-size="13" font-family="Arial, Helvetica, sans-serif" fill="#172033" text-anchor="start" font-weight="700">ring1.h5</text>
<text x="880.0" y="169.0" font-size="12" font-family="Arial, Helvetica, sans-serif" fill="#4b5563" text-anchor="start" font-weight="400">h=0.634, N=175, rho=0.91166</text>
<text x="880.0" y="187.0" font-size="12" font-family="Arial, Helvetica, sans-serif" fill="#4b5563" text-anchor="start" font-weight="400">final rel=9.34e-08, dec/it=0.04017</text>
<line x1="840" y1="212.0" x2="870" y2="212.0" stroke="#d62728" stroke-width="3" stroke-linecap="round"/>
<text x="880.0" y="216.0" font-size="13" font-family="Arial, Helvetica, sans-serif" fill="#172033" text-anchor="start" font-weight="700">ring2.h5</text>
<text x="880.0" y="235.0" font-size="12" font-family="Arial, Helvetica, sans-serif" fill="#4b5563" text-anchor="start" font-weight="400">h=0.329, N=228, rho=0.93173</text>
<text x="880.0" y="253.0" font-size="12" font-family="Arial, Helvetica, sans-serif" fill="#4b5563" text-anchor="start" font-weight="400">final rel=9.95e-08, dec/it=0.03071</text>
<line x1="840" y1="278.0" x2="870" y2="278.0" stroke="#2ca02c" stroke-width="3" stroke-linecap="round"/>
<text x="880.0" y="282.0" font-size="13" font-family="Arial, Helvetica, sans-serif" fill="#172033" text-anchor="start" font-weight="700">ring3.h5</text>
<text x="880.0" y="301.0" font-size="12" font-family="Arial, Helvetica, sans-serif" fill="#4b5563" text-anchor="start" font-weight="400">h=0.1675, N=268, rho=0.94161</text>
<text x="880.0" y="319.0" font-size="12" font-family="Arial, Helvetica, sans-serif" fill="#4b5563" text-anchor="start" font-weight="400">final rel=9.94e-08, dec/it=0.02613</text>
<line x1="840" y1="344.0" x2="870" y2="344.0" stroke="#9467bd" stroke-width="3" stroke-linecap="round"/>
<text x="880.0" y="348.0" font-size="13" font-family="Arial, Helvetica, sans-serif" fill="#172033" text-anchor="start" font-weight="700">ring4.h5</text>
<text x="880.0" y="367.0" font-size="12" font-family="Arial, Helvetica, sans-serif" fill="#4b5563" text-anchor="start" font-weight="400">h=0.08734, N=236, rho=0.93385</text>
<text x="880.0" y="385.0" font-size="12" font-family="Arial, Helvetica, sans-serif" fill="#4b5563" text-anchor="start" font-weight="400">final rel=9.67e-08, dec/it=0.02972</text>
<line x1="840" y1="410.0" x2="870" y2="410.0" stroke="#ff7f0e" stroke-width="3" stroke-linecap="round"/>
<text x="880.0" y="414.0" font-size="13" font-family="Arial, Helvetica, sans-serif" fill="#172033" text-anchor="start" font-weight="700">ring5.h5</text>
<text x="880.0" y="433.0" font-size="12" font-family="Arial, Helvetica, sans-serif" fill="#4b5563" text-anchor="start" font-weight="400">h=0.04715, N=209, rho=0.92572</text>
<text x="880.0" y="451.0" font-size="12" font-family="Arial, Helvetica, sans-serif" fill="#4b5563" text-anchor="start" font-weight="400">final rel=9.87e-08, dec/it=0.03352</text>
</svg>